<?xml version="1.0" encoding="UTF-8" standalone="no"?>
<!DOCTYPE svg  PUBLIC '-//W3C//DTD SVG 1.1//EN'  'http://www.w3.org/Graphics/SVG/1.1/DTD/svg11.dtd'>
<svg xmlns="http://www.w3.org/2000/svg">
<defs>
<font id="FuturaPT-Light" horiz-adv-x="500">
<font-face underline-position="-50" font-weight="300" descent="-200" panose-1="2 11 4 2 2 2 4 2 3 3" units-per-em="1000" unicode-range="U+0020-FB02" bbox="-298 -250 1018 900" x-height="408" underline-thickness="50" font-family="FuturaPT" ascent="800" cap-height="667"/>
<missing-glyph d="M50 512h400v-512h-400v512zM442 8v496h-384v-496h384z"/>
<glyph glyph-name="afii10017.var.accented" horiz-adv-x="586" unicode="А`" d="M419 259l-125 316l-127 -316h252zM435 219h-284l-89 -219h-48l281 687l277 -687h-48zM409 829l-134 -126l-32 18l116 133z"/>
<glyph glyph-name="afii10022.var.accented" horiz-adv-x="464" unicode="Е`" d="M410 627h-276v-242h270v-40h-270v-305h276v-40h-320v667h320v-40zM366 829l-134 -126l-32 18l116 133z"/>
<glyph glyph-name="afii10026.var.accented" horiz-adv-x="700" unicode="И`" d="M566 556l-476 -573v684h44v-566l476 573v-674h-44v556zM466 829l-134 -126l-32 18l116 133z"/>
<glyph glyph-name="afii10032.var.accented" horiz-adv-x="800" unicode="О`" d="M400 29q64 0 119 23.5t95.5 64.5t63 96t22.5 119t-22.5 119.5t-63 96.5t-95.5 64.5t-119 23.5q-65 0 -119.5 -23.5t-95 -64.5t-63 -96.5t-22.5 -119.5t22.5 -119t63 -96t95 -64.5t119.5 -23.5zM400 676q73 0 136.5 -27t110 -73.5t73 -109t26.5 -134.5t-26.5 -134.5 t-73 -109t-110 -73t-136.5 -26.5q-74 0 -137 26.5t-109.5 73t-73 109t-26.5 134.5t26.5 134.5t73 109t110 73.5t136.5 27zM516 829l-134 -126l-32 18l116 133z"/>
<glyph glyph-name="afii10037.var.accented" horiz-adv-x="550" unicode="У`" d="M64 667l231 -432l195 432h46l-305 -667h-46l85 186l-256 481h50zM391 829l-134 -126l-32 18l116 133z"/>
<glyph glyph-name="afii10045.var.accented" horiz-adv-x="690" unicode="Ы`" d="M600 667v-667h-44v667h44zM134 40h112q15 0 33 0.5t37.5 5t39 13t36.5 25.5q17 16 29.5 43.5t12.5 69.5q0 38 -14 70t-55 53q-29 15 -61.5 17.5t-65.5 2.5h-104v-300zM90 667h44v-287h116q30 0 70 -5t75.5 -24t60 -55t24.5 -99q0 -38 -12 -73t-37.5 -63t-67 -44.5 t-99.5 -16.5h-174v667zM461 829l-134 -126l-32 18l116 133z"/>
<glyph glyph-name="afii10047.var.accented" horiz-adv-x="678" unicode="Э`" d="M54 130q25 -28 54 -47t58.5 -31t58 -17.5t53.5 -5.5q53 0 105.5 20t95.5 57.5t70 92.5t29 125h-444v40h442q-6 59 -31.5 109t-65.5 86t-91.5 56.5t-108.5 20.5q-65 0 -123.5 -27t-101.5 -78v58q7 7 25.5 21.5t46.5 29t66 25.5t86 11q72 0 135 -27t110 -73.5t74 -109 t27 -134.5q0 -70 -26.5 -132t-73 -109t-110 -74.5t-138.5 -27.5q-54 0 -112.5 19t-109.5 64v58zM415 829l-134 -126l-32 18l116 133z"/>
<glyph glyph-name="afii10048.var.accented" horiz-adv-x="960" unicode="Ю`" d="M570 29q63 0 116 23.5t91.5 64.5t60.5 96t22 119t-22 119.5t-60.5 96.5t-91.5 64.5t-116 23.5t-116 -23.5t-91.5 -64.5t-60.5 -96.5t-22 -119.5t22 -119t60.5 -96t91.5 -64.5t116 -23.5zM236 372q7 66 36.5 122t74 96.5t102 63t121.5 22.5q71 0 132.5 -27t106.5 -73.5 t71 -109t26 -134.5t-26 -134.5t-71 -109t-106.5 -73t-132.5 -26.5q-72 0 -133 27t-106 73.5t-70.5 109t-26.5 133.5h-100v-332h-44v667h44v-295h102zM596 829l-134 -126l-32 18l116 133z"/>
<glyph glyph-name="afii10049.var.accented" horiz-adv-x="470" unicode="Я`" d="M266 627q-23 0 -47 -3t-44 -13q-35 -17 -55 -50.5t-20 -77.5q0 -36 12 -64t32 -45q14 -12 30 -19t31.5 -10.5t29.5 -4.5t25 -1h76v288h-70zM236 299q-20 1 -39 5t-36 10q-8 3 -25.5 12.5t-35.5 29t-32 50.5t-14 77q0 33 8.5 59t21.5 45.5t28 32.5t29 21q29 17 62 21.5 t63 4.5h114v-667h-44v299h-50l-200 -299h-52zM352 829l-134 -126l-32 18l116 133z"/>
<glyph glyph-name="afii10023.var.accented" horiz-adv-x="464" unicode="Ё`" d="M326 829l-134 -126l-26 18l116 133zM319 780q0 16 11 27t27 11t27 -11t11 -27t-11 -27t-27 -11t-27 11t-11 27zM103 780q0 16 11 27t27 11t27 -11t11 -27t-11 -27t-27 -11t-27 11t-11 27zM410 627h-276v-242h270v-40h-270v-305h276v-40h-320v667h320v-40z"/>
<glyph glyph-name="afii10065.var.accented" horiz-adv-x="516" unicode="а`" d="M247 379q-30 0 -59 -11.5t-51 -33t-35.5 -53.5t-13.5 -74q0 -35 10.5 -67t31 -57.5t50 -40.5t68.5 -15q38 0 67.5 15t49.5 40t30.5 57.5t10.5 67.5q0 45 -15 77.5t-38.5 53.5t-51.5 31t-54 10zM404 408h40v-408h-40v73q-31 -47 -75 -65.5t-84 -18.5t-76 14.5t-63.5 42.5 t-43.5 68t-16 90q0 47 14.5 86.5t40.5 67.5t62.5 43.5t81.5 15.5q48 0 89 -19t70 -61v71zM356 595l-105 -128l-30 16l92 137z"/>
<glyph glyph-name="afii10070.var.accented" horiz-adv-x="483" unicode="е`" d="M395 237q-4 30 -16.5 56t-32.5 45t-46 30t-56 11q-31 0 -57.5 -11t-46 -30.5t-32.5 -45t-17 -55.5h304zM88 199v-10q0 -33 11 -61q13 -32 36 -54.5t53 -34.5t62 -12q50 0 86 26t56 67l34 -20q-9 -17 -24 -36.5t-36.5 -36t-51 -27.5t-67.5 -11q-48 0 -85 16.5t-63 45.5 t-39.5 67.5t-13.5 83.5q0 53 17 93.5t44.5 67.5t63 40.5t73.5 13.5q41 0 77 -16t62 -45q27 -28 41 -68q14 -37 13 -83v-6h-349zM342 595l-105 -128l-30 16l92 137z"/>
<glyph glyph-name="afii10074.var.accented" horiz-adv-x="474" unicode="и`" d="M112 408v-327l290 350v-431h-40v325l-290 -350v433h40zM336 595l-105 -128l-30 16l92 137z"/>
<glyph glyph-name="afii10080.var.accented" horiz-adv-x="520" unicode="о`" d="M260 27q37 0 68.5 13.5t54.5 37.5t36 56t13 69t-13 69t-36 56t-54.5 37.5t-68.5 13.5t-68.5 -13.5t-54.5 -37.5t-36 -56t-13 -69t13 -69t36 -56t54.5 -37.5t68.5 -13.5zM260 417q45 0 84.5 -16.5t68 -45t45 -68t16.5 -84.5t-16.5 -84.5t-45 -68t-68 -45t-84.5 -16.5 t-84.5 16.5t-68 45t-45 68t-16.5 84.5t16.5 84.5t45 68t68 45t84.5 16.5zM348 595l-105 -128l-30 16l92 137z"/>
<glyph glyph-name="afii10085.var.accented" horiz-adv-x="428" unicode="у`" d="M202 -7l-194 415h46l171 -363l149 363h46l-268 -638h-47zM313 595l-105 -128l-30 16l92 137z"/>
<glyph glyph-name="afii10093.var.accented" d="M428 408v-408h-40v408h40zM208 38q15 0 32 3t32 16q12 10 20 26t8 36q0 21 -8 37t-21 26t-30.5 14t-34.5 4h-94v-162h96zM112 408v-170h97q24 0 52.5 -6t51.5 -32q15 -17 22 -38.5t7 -42.5q0 -25 -9 -48t-27 -40q-23 -21 -49 -26t-49 -5h-136v408h40zM348 595l-105 -128 l-30 16l92 137z" unicode="ы`"/>
<glyph glyph-name="afii10095.var.accented" horiz-adv-x="412" unicode="э`" d="M38 52q31 -17 63 -21t47 -4q48 0 80 16t52 37q16 17 29 44.5t15 65.5h-239v38h239q-3 24 -10 43t-17 33.5t-20.5 24.5t-19.5 17q-29 21 -58.5 27t-53.5 6q-38 0 -62.5 -6.5t-40.5 -14.5v40q28 11 52.5 15t50.5 4q34 0 75 -9.5t78 -41.5q27 -23 47.5 -62t20.5 -99 q0 -59 -19 -97.5t-42 -60.5q-20 -19 -58 -38.5t-99 -19.5q-8 0 -21 0.5t-28 3t-30.5 6.5t-30.5 11v42zM275 595l-105 -128l-30 16l92 137z"/>
<glyph glyph-name="afii10096.var.accented" horiz-adv-x="640" unicode="ю`" d="M388 27q35 0 65 13.5t52 37.5t34.5 56t12.5 69t-12.5 69t-34.5 56t-52 37.5t-65 13.5t-65 -13.5t-52 -37.5t-34.5 -56t-12.5 -69t12.5 -69t34.5 -56t52 -37.5t65 -13.5zM182 228q4 40 21.5 75t44.5 60t62.5 39.5t77.5 14.5q44 0 81.5 -16.5t65.5 -45t43.5 -68t15.5 -84.5 t-15.5 -84.5t-43.5 -68t-65.5 -45t-81.5 -16.5q-39 0 -75.5 14t-64.5 40t-46 63t-20 84h-70v-190h-40v408h40v-180h70zM418 595l-105 -128l-30 16l92 137z"/>
<glyph glyph-name="afii10097.var.accented" horiz-adv-x="386" unicode="я`" d="M274 370h-96q-16 0 -33.5 -3.5t-31.5 -14.5q-10 -8 -18.5 -22.5t-8.5 -39.5q0 -23 8 -36.5t18 -21.5q13 -10 31 -14t35 -4h96v156zM158 178q-47 2 -80 30q-22 20 -28 41t-6 40q0 20 6.5 45t30.5 45q23 20 48.5 24.5t48.5 4.5h136v-408h-40v176h-70l-128 -176h-48z M292 595l-105 -128l-30 16l92 137z"/>
<glyph glyph-name="afii10071.var.accented" horiz-adv-x="483" unicode="ё`" d="M317 595l-105 -128l-24 16l92 137zM301 526q0 15 10.5 25.5t25.5 10.5t25.5 -10.5t10.5 -25.5t-10.5 -25.5t-25.5 -10.5t-25.5 10.5t-10.5 25.5zM115 526q0 15 10.5 25.5t25.5 10.5t25.5 -10.5t10.5 -25.5t-10.5 -25.5t-25.5 -10.5t-25.5 10.5t-10.5 25.5zM395 237 q-4 29 -16 55t-30 44q-14 14 -40 28.5t-65 14.5q-31 0 -58 -12t-48 -32q-14 -14 -28 -38t-19 -60h304zM88 199v-10q0 -36 13.5 -65.5t33.5 -49.5q20 -21 50 -34t65 -13q26 0 47.5 7.5t38.5 18.5q18 13 32.5 30.5t23.5 36.5l34 -20q-14 -24 -32 -44.5t-38 -34.5t-47 -23 t-62 -9q-44 0 -80 15t-62 40q-22 21 -40.5 59.5t-18.5 98.5t19 98.5t42 61.5q30 29 66 42t71 13q42 0 76 -15t57 -38q29 -29 44.5 -71.5t15.5 -87.5v-6h-349z"/>
<glyph glyph-name="fi" horiz-adv-x="442" unicode="fi" d="M370 408v-408h-40v408h40zM112 370v-370h-40v370h-46v38h46v163q0 47 5.5 69.5t16.5 39.5q15 21 31.5 33.5t33 18.5t32.5 7.5t30 1.5t30 -1.5t32.5 -7.5t33 -18.5t31.5 -33.5q11 -17 16.5 -39.5t5.5 -69.5v-17h-40v17q0 18 -1.5 42.5t-15.5 45.5q-18 29 -45 36.5t-47 7.5 t-47 -7.5t-45 -36.5q-14 -21 -15.5 -45.5t-1.5 -42.5v-163h102v-38h-102z"/>
<glyph glyph-name="fl" horiz-adv-x="442" unicode="fl" d="M112 370v-370h-40v370h-46v38h46v163q0 47 5.5 69.5t16.5 39.5q15 21 31.5 33.5t33 18.5t32.5 7.5t30 1.5t30 -1.5t32.5 -7.5t33 -18.5t31.5 -33.5q11 -17 16.5 -39.5t5.5 -69.5v-571h-40v571q0 18 -1.5 42.5t-15.5 45.5q-18 29 -45 36.5t-47 7.5q-37 0 -59 -13t-33 -31 t-14.5 -39t-3.5 -35q0 -7 1 -14v-163h102v-38h-102z"/>
<glyph glyph-name=".notdef" d="M50 512h400v-512h-400v512zM442 8v496h-384v-496h384z"/>
<glyph glyph-name=".null" horiz-adv-x="0"/>
<glyph glyph-name="nonmarkingreturn" horiz-adv-x="233"/>
<glyph glyph-name="space" horiz-adv-x="233" unicode=" "/>
<glyph glyph-name="exclam" horiz-adv-x="260" unicode="!" d="M93 30q0 16 10.5 26.5t26.5 10.5t26.5 -10.5t10.5 -26.5t-10.5 -26.5t-26.5 -10.5t-26.5 10.5t-10.5 26.5zM108 119v548h44v-548h-44z"/>
<glyph glyph-name="quotedbl" horiz-adv-x="280" unicode='&quot;' d="M213 398h-30l-7 269h44zM97 398h-30l-7 269h44z"/>
<glyph glyph-name="numbersign" horiz-adv-x="600" unicode="#" d="M398 420h-164l-24 -161h164zM335 0l33 221h-164l-33 -221h-40l33 221h-118l6 38h118l24 161h-118l6 38h118l32 209h40l-32 -209h164l32 209h40l-32 -209h118l-6 -38h-118l-24 -161h118l-6 -38h-118l-33 -221h-40z"/>
<glyph glyph-name="dollar" horiz-adv-x="548" unicode="$" d="M267 636q-27 -2 -47.5 -13t-35 -28.5t-21.5 -39t-7 -43.5q0 -45 28 -74t83 -52v250zM307 32q29 6 52 20.5t39 35t24.5 45t8.5 50.5q0 27 -13.5 54.5t-51.5 50.5q-5 2 -16 8.5t-43 22.5v-287zM411 554q-2 4 -8.5 16t-19.5 25t-31.5 25t-44.5 16v-270q35 -16 58.5 -28.5 t40.5 -24.5q11 -8 23.5 -18.5t23 -26t17.5 -36t7 -48.5q0 -32 -11.5 -64t-33.5 -58.5t-53.5 -45t-71.5 -24.5v-99h-40v96q-31 0 -55.5 7t-43 17.5t-32 22.5t-22.5 23q-20 23 -29 41.5t-14 31.5l38 18q7 -20 17.5 -37.5t18.5 -26.5q23 -29 56.5 -42.5t65.5 -14.5v310l-25 12 q-48 23 -72 40.5t-39 42.5q-11 19 -16 37.5t-5 38.5q0 33 11.5 62.5t32 52t49.5 36t64 15.5v89h40v-89q6 -1 22.5 -4t36.5 -13t40.5 -28.5t36.5 -49.5z"/>
<glyph glyph-name="percent" horiz-adv-x="608" unicode="%" d="M439 30q24 0 42 8.5t30 22.5t17.5 30.5t5.5 33.5q0 16 -5.5 33t-17.5 31t-30 22.5t-42 8.5t-42 -8.5t-30 -22.5t-17.5 -31t-5.5 -33q0 -17 5.5 -33.5t17.5 -30.5t30 -22.5t42 -8.5zM439 256q62 0 98.5 -37t36.5 -94t-36.5 -94t-98.5 -37t-98.5 37t-36.5 94t36.5 94 t98.5 37zM486 682l30 -16l-394 -681l-30 16zM169 447q24 0 42 8.5t30 22.5t17.5 30.5t5.5 33.5q0 16 -5.5 33t-17.5 31t-30 22.5t-42 8.5t-42 -8.5t-30 -22.5t-17.5 -31t-5.5 -33q0 -17 5.5 -33.5t17.5 -30.5t30 -22.5t42 -8.5zM169 673q62 0 98.5 -37t36.5 -94t-36.5 -94 t-98.5 -37t-98.5 37t-36.5 94t36.5 94t98.5 37z"/>
<glyph glyph-name="ampersand" horiz-adv-x="628" unicode="&amp;" d="M301 424q17 11 38.5 27t35.5 30q14 15 22.5 32t8.5 41q0 20 -7 35.5t-16 24.5q-11 11 -27 17t-31 6q-10 0 -25 -4t-30 -18q-14 -13 -21 -31t-7 -36q0 -17 6 -33t15 -32t19 -30.5t19 -28.5zM289 368l-63 -41q-26 -17 -47.5 -34.5t-37.5 -38.5q-17 -23 -23 -44.5t-6 -47.5 q0 -22 6.5 -48t28.5 -49q14 -14 36 -26t57 -12q28 0 58 9.5t59 26.5q27 15 53 36t46 41zM599 232q-25 -34 -47 -58t-38 -39l100 -135h-56l-77 105q-35 -29 -61.5 -49t-56.5 -36q-32 -17 -62 -25t-62 -8q-38 0 -68 11.5t-53 34.5q-22 21 -37 52.5t-15 73.5q0 41 13 72.5 t31 53.5q15 19 36.5 36.5t47.5 34.5l71 46q-17 27 -30 47t-21 37t-12 32t-4 32q0 24 9 48t29 44q36 37 92 37q28 0 48.5 -9.5t36.5 -23.5q21 -20 29 -43t8 -48q0 -17 -7.5 -45t-41.5 -62q-13 -13 -36 -30t-39 -28l163 -220q17 17 34 36t44 53z"/>
<glyph glyph-name="quotesingle" horiz-adv-x="164" unicode="&apos;" d="M97 398h-30l-7 269h44z"/>
<glyph glyph-name="parenleft" horiz-adv-x="282" unicode="(" d="M146 290q0 -52 5.5 -112.5t15.5 -119.5q8 -53 19 -100t26 -95l-38 -23q-17 49 -27.5 91t-20.5 92q-7 37 -12 69t-8 63t-4.5 64t-1.5 71q0 39 1.5 71.5t4.5 64t8 63.5t12 68q10 50 20.5 92t27.5 91l38 -23q-17 -51 -27 -96.5t-18 -98.5q-8 -51 -14.5 -112t-6.5 -120z"/>
<glyph glyph-name="parenright" horiz-adv-x="282" unicode=")" d="M70 -137q15 48 26 95t19 100q10 59 15.5 119.5t5.5 112.5q0 59 -6.5 120t-14.5 112q-8 53 -18 98.5t-27 96.5l38 23q17 -49 27.5 -91t20.5 -92q7 -36 12 -68t8 -63.5t4.5 -64t1.5 -71.5q0 -38 -1.5 -71t-4.5 -64t-8 -63t-12 -69q-10 -50 -20.5 -92t-27.5 -91z"/>
<glyph glyph-name="asterisk" horiz-adv-x="548" unicode="*" d="M255 596l-3 133h44l-3 -133l125 44l14 -41l-128 -38l81 -106l-35 -25l-76 110l-76 -110l-35 25l81 106l-128 38l14 41z"/>
<glyph glyph-name="plus" d="M33 348h197v182h40v-182h197v-38h-197v-182h-40v182h-197v38z" unicode="+"/>
<glyph glyph-name="comma" horiz-adv-x="228" unicode="," d="M98 65l40 -12l-74 -200l-26 10z"/>
<glyph glyph-name="hyphen" horiz-adv-x="300" unicode="-" d="M50 230h200v-46h-200v46z"/>
<glyph glyph-name="period" horiz-adv-x="202" unicode="." d="M64 30q0 16 10.5 26.5t26.5 10.5t26.5 -10.5t10.5 -26.5t-10.5 -26.5t-26.5 -10.5t-26.5 10.5t-10.5 26.5z"/>
<glyph glyph-name="slash" horiz-adv-x="576" unicode="/" d="M524 743l32 -16l-504 -901l-32 16z"/>
<glyph glyph-name="zero" horiz-adv-x="548" unicode="0" d="M274 29q9 0 22.5 2t30 9t35 20.5t36.5 36.5q32 40 52 98t20 138q0 81 -20 138.5t-52 97.5q-9 11 -21 23t-27.5 21.5t-34.5 16t-41 6.5t-41 -6.5t-34.5 -16t-27.5 -21.5t-21 -23q-32 -40 -52 -97.5t-20 -138.5q0 -80 20 -138t52 -98q18 -23 36.5 -36.5t35 -20.5t30 -9 t22.5 -2zM274 676q16 0 35 -3.5t39.5 -12.5t41.5 -25t41 -40q39 -47 62 -113t23 -149t-23 -149t-62 -113q-36 -43 -77.5 -62.5t-79.5 -19.5t-79.5 19.5t-77.5 62.5q-39 47 -62 113t-23 149t23 149t62 113q20 24 41 40t41.5 25t39.5 12.5t35 3.5z"/>
<glyph glyph-name="one" horiz-adv-x="548" unicode="1" d="M272 627h-104l20 40h128v-667h-44v627z"/>
<glyph glyph-name="two" horiz-adv-x="548" unicode="2" d="M60 0l256 282q17 20 36 41.5t37 48.5q14 22 26.5 50.5t12.5 63.5q0 31 -11.5 58.5t-31.5 48t-49 32t-63 11.5q-27 0 -58 -9.5t-57 -39.5q-16 -17 -28 -45q-12 -25 -11 -59v-5h-44v5q1 42 15 76q16 36 38 59t58 40.5t90 17.5q43 0 79.5 -14.5t62.5 -40t41 -60.5t15 -75 q0 -43 -14 -76.5t-34 -60.5q-11 -16 -28 -36t-31 -36l-214 -237h318v-40h-411z"/>
<glyph glyph-name="three" horiz-adv-x="548" unicode="3" d="M120 162q2 -39 22 -71q19 -27 52 -44.5t66 -17.5q31 0 58 12.5t47.5 34t32.5 49.5t12 59q0 43 -18.5 74t-44.5 48q-17 10 -39 16q-16 4 -33 5q-6 0 -13 -1v40q19 0 34.5 4t27 9t18.5 10.5t10 7.5q22 18 35.5 47t13.5 62q0 27 -8.5 50.5t-24.5 41t-40 28t-55 10.5 q-20 0 -46.5 -6.5t-49.5 -32.5q-16 -17 -24.5 -40.5t-9.5 -48.5h-42q1 38 15 68.5t34 51.5q30 31 63 39.5t60 8.5q41 0 73.5 -13.5t55 -36t34 -53t11.5 -64.5q0 -21 -5 -44.5t-17.5 -45.5t-32.5 -40.5t-50 -30.5q54 -17 84 -61.5t30 -101.5q0 -42 -15.5 -78t-42 -62t-62 -41 t-76.5 -15q-45 0 -89.5 22t-70.5 65q-10 16 -17 37.5t-7 48.5h44z"/>
<glyph glyph-name="four" horiz-adv-x="548" unicode="4" d="M371 167v392l-281 -392h281zM415 167h93v-40h-93v-127h-44v127h-359l403 562v-522z"/>
<glyph glyph-name="five" horiz-adv-x="548" unicode="5" d="M470 627h-224l-56 -180q12 3 22.5 4.5t22.5 1.5q53 0 96 -17.5t73 -48t46.5 -73t16.5 -92.5q0 -54 -19 -97t-51 -73.5t-75 -46.5t-92 -16q-26 0 -54 5.5t-54.5 18.5t-50 34t-41.5 52l39 16q28 -42 69.5 -64t92.5 -22q41 0 76 14t60.5 39.5t39.5 61t14 77.5t-14 77.5 t-38.5 61t-59 39.5t-76.5 14q-32 0 -57 -7.5t-47 -21.5l86 283h40h215v-40z"/>
<glyph glyph-name="six" horiz-adv-x="548" unicode="6" d="M273 29q41 0 76 15t60.5 41t40 62t14.5 77q0 43 -14.5 78.5t-40 61t-60.5 40t-76 14.5q-42 0 -77 -14.5t-60.5 -40.5t-39.5 -61.5t-14 -77.5t14.5 -77.5t40 -62t60.5 -41t76 -14.5zM335 650l-148 -210q23 10 45.5 14t45.5 4q49 0 91.5 -17.5t74 -48t49 -73.5t17.5 -94 q0 -50 -17.5 -93.5t-49 -75t-75.5 -49.5t-96 -18q-51 0 -94 17.5t-74.5 49t-49.5 75t-18 95.5q0 27 5 49.5t12 39.5t14.5 29t11.5 18l222 314z"/>
<glyph glyph-name="seven" horiz-adv-x="548" unicode="7" d="M454 627h-405v40h483l-477 -678l-33 25z"/>
<glyph glyph-name="eight" horiz-adv-x="548" unicode="8" d="M274 29q34 0 61 11.5t46 31.5t29.5 47t10.5 58q0 33 -11 60.5t-30.5 47.5t-46.5 31t-59 11t-59 -11t-46.5 -31t-30.5 -47.5t-11 -60.5q0 -31 10.5 -58t29.5 -47t46 -31.5t61 -11.5zM274 365q27 0 50.5 10t41.5 28t28.5 42.5t10.5 54.5t-10 55t-28 43t-42 28t-51 10 t-51 -10t-42 -28t-28 -43t-10 -55t10.5 -54.5t28.5 -42.5t41.5 -28t50.5 -10zM358 346q27 -10 47 -27.5t34 -40t21 -48.5t7 -53q0 -44 -15.5 -78.5t-41.5 -59t-61.5 -37.5t-74.5 -13t-74.5 13t-61.5 37.5t-41.5 59t-15.5 78.5q0 27 7 53t21 48.5t34 40t47 27.5 q-34 18 -53 41.5t-28 46t-10.5 40.5t-1.5 26q0 38 13.5 70t37.5 55.5t56 37t70 13.5q37 0 69.5 -13.5t56.5 -37t37.5 -55.5t13.5 -70q0 -8 -1.5 -26t-10.5 -40.5t-28 -46t-53 -41.5z"/>
<glyph glyph-name="nine" horiz-adv-x="548" unicode="9" d="M275 636q-41 0 -76 -15t-60.5 -41t-40 -61.5t-14.5 -76.5q0 -43 14.5 -78.5t40 -61t60.5 -40t76 -14.5q42 0 77 14.5t60.5 40.5t39.5 61.5t14 77.5q0 41 -14.5 76.5t-40 61.5t-60.5 41t-76 15zM213 15l148 211q-23 -10 -45.5 -14t-45.5 -4q-50 0 -92 17.5t-73.5 48 t-49 73.5t-17.5 94q0 50 17.5 93t49 74.5t75 49.5t96.5 18q51 0 94 -17.5t74.5 -49t49.5 -75t18 -94.5q0 -27 -5 -49.5t-12 -39.5t-14.5 -29t-11.5 -18l-222 -315z"/>
<glyph glyph-name="colon" horiz-adv-x="202" unicode=":" d="M64 26q0 16 10.5 26.5t26.5 10.5t26.5 -10.5t10.5 -26.5t-10.5 -26.5t-26.5 -10.5t-26.5 10.5t-10.5 26.5zM64 380q0 16 10.5 26.5t26.5 10.5t26.5 -10.5t10.5 -26.5t-10.5 -26.5t-26.5 -10.5t-26.5 10.5t-10.5 26.5z"/>
<glyph glyph-name="semicolon" horiz-adv-x="228" unicode=";" d="M98 65l40 -12l-74 -200l-26 10zM66 380q0 16 10.5 26.5t26.5 10.5t26.5 -10.5t10.5 -26.5t-10.5 -26.5t-26.5 -10.5t-26.5 10.5t-10.5 26.5z"/>
<glyph glyph-name="less" d="M467 539v-41l-390 -170l390 -170v-41l-434 192v38z" unicode="&lt;"/>
<glyph glyph-name="equal" d="M33 277h434v-38h-434v38zM33 419h434v-38h-434v38z" unicode="="/>
<glyph glyph-name="greater" d="M33 117v41l390 170l-390 170v41l434 -192v-38z" unicode="&gt;"/>
<glyph glyph-name="question" horiz-adv-x="466" unicode="?" d="M197 26q0 16 10.5 26.5t26.5 10.5t26.5 -10.5t10.5 -26.5t-10.5 -26.5t-26.5 -10.5t-26.5 10.5t-10.5 26.5zM370 260q0 -17 -4.5 -42.5t-16.5 -45.5q-14 -24 -42.5 -41t-71.5 -17q-30 0 -57 10t-44 26q-18 17 -29 44t-11 57q0 32 12 57t32 42t44 23.5t48 14.5 q25 8 49.5 15.5t41.5 26.5q16 18 20.5 40.5t4.5 41.5q0 26 -6.5 48.5t-23.5 41.5q-14 15 -34.5 24.5t-50.5 9.5q-28 0 -49.5 -9.5t-35.5 -24.5q-9 -10 -18.5 -31t-9.5 -59q0 -20 7 -40h-44q-7 22 -7 46q0 32 8.5 61t35.5 55q20 18 49 30t67 12q40 0 69.5 -13t47.5 -32 q26 -27 33.5 -58t7.5 -59q0 -29 -7.5 -55.5t-28.5 -50.5q-20 -22 -42 -33t-47 -18q-26 -8 -51.5 -14t-43.5 -20q-11 -9 -22.5 -27t-11.5 -47q0 -20 7 -38t18 -30q10 -11 27 -20t44 -9q32 0 51 11.5t28 24.5q11 15 14 36.5t3 35.5h40z"/>
<glyph glyph-name="at" horiz-adv-x="732" unicode="@" d="M340 169q26 0 49.5 13t41.5 37t29 58.5t11 78.5q0 9 -2 28.5t-12 39t-29.5 34t-53.5 14.5t-60.5 -14.5t-45 -39t-28 -55.5t-9.5 -64q0 -32 9.5 -56.5t24.5 -41t34.5 -24.5t40.5 -8zM504 491h32l-43 -222q-2 -7 -4.5 -21t-2.5 -28q0 -18 10.5 -35.5t36.5 -17.5t49.5 17 t41 46t28 67.5t10.5 80.5q0 61 -22.5 110t-61 83.5t-90.5 53.5t-111 19q-66 0 -123 -24t-98.5 -66t-65.5 -98.5t-24 -122.5q0 -47 12.5 -92t36.5 -83.5t59 -68.5t80 -48q36 -14 72.5 -19t66.5 -5q21 0 45.5 2.5t49 7t48 12t42.5 16.5q11 5 15.5 7t6.5 3.5t4.5 2.5t10.5 5 l12 -29q-36 -19 -66 -29t-53 -15q-24 -5 -56 -9t-60 -4q-79 0 -145 25.5t-114 71.5t-74.5 109t-26.5 138q0 73 27 135.5t73.5 108.5t109.5 72.5t135 26.5q64 0 121 -21t100 -60t68.5 -93.5t25.5 -121.5q0 -53 -14 -96.5t-36.5 -75.5t-51.5 -49.5t-58 -17.5q-32 0 -51.5 19 t-19.5 48v6q-21 -38 -55 -56.5t-71 -18.5q-33 0 -58.5 13t-43.5 34.5t-27.5 51t-9.5 62.5q0 42 13 79t36 65.5t55 45t71 16.5q5 0 21 -1.5t34.5 -10t36 -27t26.5 -52.5z"/>
<glyph glyph-name="A" horiz-adv-x="586" unicode="A" d="M419 259l-125 316l-127 -316h252zM435 219h-284l-89 -219h-48l281 687l277 -687h-48z"/>
<glyph glyph-name="B" horiz-adv-x="534" unicode="B" d="M134 40h112q34 0 72.5 5t72.5 35q27 24 35 51.5t8 50.5q0 45 -16.5 76t-54.5 48q-14 6 -41.5 12.5t-83.5 6.5h-104v-285zM134 365h106q26 0 47.5 5t43.5 23q20 17 32 42t12 60q0 40 -14 65t-31 39q-25 20 -55 24t-56 4h-85v-262zM90 667h146q88 0 136 -46t48 -121 q0 -54 -22.5 -90t-55.5 -56q66 -11 102 -56.5t36 -110.5q0 -44 -15.5 -78.5t-43 -58.5t-65.5 -37t-83 -13h-183v667z"/>
<glyph glyph-name="C" horiz-adv-x="678" unicode="C" d="M624 531q-43 51 -101.5 78t-123.5 27q-64 0 -119 -24t-95 -65.5t-62.5 -97.5t-22.5 -119q0 -74 28 -130.5t71.5 -94.5t96.5 -57t104 -19q25 0 53.5 5.5t58 17.5t58 31t54.5 47v-58q-51 -45 -109.5 -64t-112.5 -19q-75 0 -139 27.5t-110.5 74.5t-72.5 109t-26 132 q0 72 27 134.5t74 109t110 73.5t135 27q48 0 86 -11t66 -25.5t46 -29t26 -21.5v-58z"/>
<glyph glyph-name="D" horiz-adv-x="618" unicode="D" d="M134 40h87q66 0 120.5 21.5t94 60t61 92.5t21.5 119q0 64 -22 118t-61 93t-93.5 61t-120.5 22h-87v-587zM90 0v667h132q22 0 51.5 -2.5t62 -12.5t66.5 -28.5t66 -49.5q27 -27 45 -57.5t29.5 -62t16.5 -63t5 -58.5t-5 -58t-16.5 -62.5t-29.5 -62t-45 -57.5 q-32 -32 -66 -50t-66.5 -28t-62 -12.5t-51.5 -2.5h-132z"/>
<glyph glyph-name="E" horiz-adv-x="464" unicode="E" d="M410 627h-276v-242h270v-40h-270v-305h276v-40h-320v667h320v-40z"/>
<glyph glyph-name="F" horiz-adv-x="406" unicode="F" d="M360 627h-226v-242h220v-40h-220v-345h-44v667h270v-40z"/>
<glyph glyph-name="G" horiz-adv-x="772" unicode="G" d="M438 320h280q0 -23 -3 -50t-10.5 -56t-20.5 -58t-34 -55q-45 -57 -109.5 -84.5t-141.5 -27.5q-74 0 -137 25.5t-109 71.5t-72.5 108.5t-26.5 137.5q0 74 27 137t74 109t110.5 72t136.5 26q71 0 120.5 -21t88.5 -51q21 -17 40.5 -36t39.5 -48l-35 -28q-14 24 -32 43.5 t-32 30.5q-32 26 -80 48t-111 22q-64 0 -119 -24t-95.5 -65.5t-63.5 -97t-23 -119.5q0 -63 22.5 -117.5t62 -95.5t94 -64.5t119.5 -23.5q43 0 79.5 10t66 26t51 36t35.5 41q20 30 31 68t13 70h-236v40z"/>
<glyph glyph-name="H" horiz-adv-x="672" unicode="H" d="M134 384h404v283h44v-667h-44v344h-404v-344h-44v667h44v-283z"/>
<glyph glyph-name="I" horiz-adv-x="224" unicode="I" d="M134 667v-667h-44v667h44z"/>
<glyph glyph-name="J" horiz-adv-x="263" unicode="J" d="M173 667v-537q0 -12 -0.5 -26t-4 -28.5t-10 -29t-18.5 -26.5q-14 -14 -34.5 -22.5t-48.5 -8.5q-23 0 -40 6t-33 19t-25.5 26t-13.5 19l31 26q13 -25 31 -38q24 -18 52 -18q29 0 48 19q16 16 19 36t3 39v544h44z"/>
<glyph glyph-name="K" horiz-adv-x="540" unicode="K" d="M134 353l315 314h58l-323 -319l342 -348h-60l-314 318l-18 -17v-301h-44v667h44v-314z"/>
<glyph glyph-name="L" horiz-adv-x="334" unicode="L" d="M134 667v-627h186v-40h-230v667h44z"/>
<glyph glyph-name="M" horiz-adv-x="896" unicode="M" d="M83 0l76 690l289 -617l289 617l76 -690h-44l-59 536l-262 -560l-262 560l-59 -536h-44z"/>
<glyph glyph-name="N" horiz-adv-x="784" unicode="N" d="M90 0v674l560 -586v579h44v-684l-560 586v-569h-44z"/>
<glyph glyph-name="O" horiz-adv-x="800" unicode="O" d="M400 29q64 0 119 23.5t95.5 64.5t63 96t22.5 119t-22.5 119.5t-63 96.5t-95.5 64.5t-119 23.5q-65 0 -119.5 -23.5t-95 -64.5t-63 -96.5t-22.5 -119.5t22.5 -119t63 -96t95 -64.5t119.5 -23.5zM400 676q73 0 136.5 -27t110 -73.5t73 -109t26.5 -134.5t-26.5 -134.5 t-73 -109t-110 -73t-136.5 -26.5q-74 0 -137 26.5t-109.5 73t-73 109t-26.5 134.5t26.5 134.5t73 109t110 73.5t136.5 27z"/>
<glyph glyph-name="P" horiz-adv-x="446" unicode="P" d="M134 357h88q66 0 106 36t40 99t-40 99t-113 36h-81v-270zM134 317v-317h-44v667h129q41 0 76.5 -11t62 -33t41.5 -54.5t15 -75.5q0 -42 -14 -74.5t-39.5 -55t-61.5 -34.5t-79 -12h-86z"/>
<glyph glyph-name="Q" horiz-adv-x="800" unicode="Q" d="M400 29q41 0 91 13t100 52l-167 179h58l139 -150q12 13 26 32.5t26 45.5t19.5 58.5t7.5 72.5q0 64 -22.5 119.5t-63 96.5t-95.5 64.5t-119 23.5q-65 0 -119.5 -23.5t-95 -64.5t-63 -96.5t-22.5 -119.5t22.5 -119t63 -96t95 -64.5t119.5 -23.5zM678 0l-59 64 q-11 -9 -30 -21.5t-46.5 -24.5t-63 -20.5t-79.5 -8.5q-73 0 -136.5 26.5t-110 73t-73 109t-26.5 134.5t26.5 134.5t73 109t110 73.5t136.5 27t136 -27t109.5 -73.5t73.5 -109t27 -134.5q0 -26 -4.5 -55.5t-15 -60.5t-29.5 -62.5t-47 -61.5l86 -92h-58z"/>
<glyph glyph-name="R" horiz-adv-x="468" unicode="R" d="M134 355h64q72 0 112 35.5t40 100.5q0 25 -5.5 44.5t-14 33.5t-19 23.5t-20.5 14.5q-11 6 -24.5 10t-27.5 6t-27 3t-23 1h-55v-272zM370 0l-216 315h-20v-315h-44v667h96q38 0 73 -5.5t68 -28.5q39 -27 54 -65.5t15 -77.5q0 -25 -6 -49.5t-19 -46t-34.5 -39t-52.5 -27.5 q-26 -9 -48.5 -11t-33.5 -2l218 -315h-50z"/>
<glyph glyph-name="S" horiz-adv-x="514" unicode="S" d="M394 554q-15 30 -35 46.5t-39 24.5t-34.5 9.5t-22.5 1.5q-30 0 -53 -10t-38.5 -27t-24 -39.5t-8.5 -47.5q0 -27 9 -46t24.5 -33t37 -26t46.5 -24t44 -21t34.5 -17t28.5 -15.5t26 -16.5q11 -8 23.5 -18.5t23 -26t17.5 -36t7 -48.5q0 -42 -16.5 -77.5t-45 -62t-66 -41 t-80.5 -14.5q-32 0 -57 7t-43.5 17.5t-32 22.5t-22.5 23q-20 23 -29 41.5t-14 31.5l38 18q7 -20 17.5 -37.5t18.5 -26.5q23 -29 56.5 -43t68.5 -14q34 0 63 11.5t51 32.5t34.5 49t12.5 61q0 27 -13.5 54.5t-51.5 50.5q-29 17 -113 58q-25 12 -44 22t-33.5 20t-25 21 t-19.5 25q-11 19 -16 37.5t-5 38.5q0 29 10 58.5t31 53.5t53 39t77 15q51 0 93.5 -23.5t68.5 -71.5z"/>
<glyph glyph-name="T" horiz-adv-x="418" unicode="T" d="M231 627v-627h-44v627h-173v40h390v-40h-173z"/>
<glyph glyph-name="U" horiz-adv-x="634" unicode="U" d="M134 667v-417q0 -48 4.5 -81t23.5 -63q15 -24 35 -39t41 -23.5t42 -11.5t37 -3t37 3t42 11.5t41 23.5t35 39q19 30 23.5 63t4.5 81v417h44v-417q0 -27 -1 -50.5t-5 -44t-11.5 -39t-20.5 -37.5q-19 -27 -42.5 -44.5t-48.5 -27.5t-50.5 -14t-47.5 -4q-23 0 -48 4t-50 14 t-48.5 27.5t-42.5 44.5q-26 37 -32 76.5t-6 94.5v417h44z"/>
<glyph glyph-name="V" horiz-adv-x="510" unicode="V" d="M62 667l196 -568l190 568h48l-238 -694l-244 694h48z"/>
<glyph glyph-name="W" horiz-adv-x="984" unicode="W" d="M62 667l184 -566l241 602l226 -602l209 566h48l-257 -692l-226 606l-248 -606l-225 692h48z"/>
<glyph glyph-name="X" horiz-adv-x="470" unicode="X" d="M206 340l-175 327h48l151 -285l152 285h48l-174 -327l183 -340h-48l-161 300l-159 -300h-48z"/>
<glyph glyph-name="Y" horiz-adv-x="516" unicode="Y" d="M233 285l-219 382h50l192 -337l196 337h50l-225 -382v-285h-44v285z"/>
<glyph glyph-name="Z" horiz-adv-x="554" unicode="Z" d="M111 40h395v-40h-469l406 627h-367v40h441z"/>
<glyph glyph-name="bracketleft" horiz-adv-x="278" unicode="[" d="M132 689v-809h106v-40h-150v889h150v-40h-106z"/>
<glyph glyph-name="backslash" horiz-adv-x="576" unicode="\" d="M524 -174l-504 901l32 16l504 -901z"/>
<glyph glyph-name="bracketright" horiz-adv-x="278" unicode="]" d="M146 -120v809h-106v40h150v-889h-150v40h106z"/>
<glyph glyph-name="asciicircum" d="M83 382h-46l186 285h54l186 -285h-46l-167 254z" unicode="^"/>
<glyph glyph-name="underscore" d="M0 -78h500v-38h-500v38z" unicode="_"/>
<glyph glyph-name="grave" d="M143 595l43 25l92 -137l-30 -16z" unicode="`"/>
<glyph glyph-name="a" horiz-adv-x="516" unicode="a" d="M247 379q-30 0 -59 -11.5t-51 -33t-35.5 -53.5t-13.5 -74q0 -35 10.5 -67t31 -57.5t50 -40.5t68.5 -15q38 0 67.5 15t49.5 40t30.5 57.5t10.5 67.5q0 45 -15 77.5t-38.5 53.5t-51.5 31t-54 10zM404 408h40v-408h-40v73q-31 -47 -75 -65.5t-84 -18.5t-76 14.5t-63.5 42.5 t-43.5 68t-16 90q0 47 14.5 86.5t40.5 67.5t62.5 43.5t81.5 15.5q48 0 89 -19t70 -61v71z"/>
<glyph glyph-name="b" horiz-adv-x="516" unicode="b" d="M269 27q39 0 68.5 14t49.5 38.5t30.5 57t10.5 70.5q0 42 -13 74t-34.5 54t-50.5 33t-60 11q-30 0 -59 -10.5t-51.5 -32t-36 -53.5t-13.5 -74q0 -38 10.5 -71.5t30.5 -58t49.5 -38.5t68.5 -14zM112 729v-392q29 40 70 60t90 20q46 0 83 -16t62.5 -44.5t39 -67t13.5 -82.5 q0 -45 -14 -84.5t-39.5 -69.5t-63 -47t-83.5 -17q-38 0 -65.5 10.5t-46.5 24t-30.5 27.5t-15.5 22v-73h-40v729h40z"/>
<glyph glyph-name="c" horiz-adv-x="442" unicode="c" d="M399 312q-10 12 -24 23.5t-31.5 21.5t-39 16t-46.5 6q-38 0 -69 -13.5t-53.5 -37.5t-35 -56.5t-12.5 -69.5q0 -44 15 -77t39 -54.5t54 -32.5t60 -11q24 0 46 6.5t40.5 17t34 23.5t27.5 26v-54q-20 -18 -57.5 -37.5t-91.5 -19.5q-46 0 -84.5 16t-66 44.5t-43 67.5 t-15.5 84t14.5 84.5t42 69t67 46t88.5 16.5q22 0 60.5 -8.5t80.5 -43.5v-53z"/>
<glyph glyph-name="d" horiz-adv-x="516" unicode="d" d="M246 379q-32 0 -60.5 -11t-50 -32.5t-34.5 -53.5t-13 -75q0 -45 13.5 -78.5t36 -56t51 -34t59.5 -11.5q30 0 58.5 11.5t50.5 34t35.5 56t13.5 78.5q0 36 -11 67t-31.5 54.5t-50 37t-67.5 13.5zM404 729h40v-729h-40v73q-15 -24 -34.5 -40t-40.5 -25.5t-42.5 -14 t-40.5 -4.5q-39 0 -75 14t-63.5 41t-44.5 67.5t-17 94.5q0 56 17.5 96t45.5 65.5t64 37.5t73 12q56 0 95 -22.5t63 -57.5v392z"/>
<glyph glyph-name="e" horiz-adv-x="483" unicode="e" d="M395 237q-4 30 -16.5 56t-32.5 45t-46 30t-56 11q-31 0 -57.5 -11t-46 -30.5t-32.5 -45t-17 -55.5h304zM88 199v-10q0 -33 11 -61q13 -32 36 -54.5t53 -34.5t62 -12q50 0 86 26t56 67l34 -20q-9 -17 -24 -36.5t-36.5 -36t-51 -27.5t-67.5 -11q-48 0 -85 16.5t-63 45.5 t-39.5 67.5t-13.5 83.5q0 53 17 93.5t44.5 67.5t63 40.5t73.5 13.5q41 0 77 -16t62 -45q27 -28 41 -68q14 -37 13 -83v-6h-349z"/>
<glyph glyph-name="f" horiz-adv-x="214" unicode="f" d="M112 370v-370h-40v370h-46v38h46v194q0 43 10 70t25.5 42.5t34.5 21t37 5.5q13 0 21.5 -2t13.5 -4v-37q-13 5 -31 5q-13 0 -26 -4t-23 -15.5t-16 -33t-6 -56.5v-186h102v-38h-102z"/>
<glyph glyph-name="g" horiz-adv-x="520" unicode="g" d="M248 379q-38 0 -67.5 -14.5t-50 -39t-31.5 -56.5t-11 -67q0 -37 11 -69t32 -55.5t50 -37t65 -13.5q38 0 68.5 14t51.5 38t32.5 56.5t11.5 70.5q0 36 -11.5 67.5t-32.5 55t-51 37t-67 13.5zM448 408v-396q0 -116 -54 -179t-151 -63q-40 0 -75.5 11.5t-62.5 33.5t-43.5 55 t-18.5 75h42q5 -64 49 -100.5t109 -36.5q60 0 93.5 26t49.5 60.5t19 68t3 49.5v58q-31 -43 -74 -62t-87 -19q-38 0 -74 13.5t-64 40.5t-45.5 67.5t-17.5 93.5q0 44 14 83t41 68t65 45.5t86 16.5q51 0 90.5 -21t65.5 -59v71h40z"/>
<glyph glyph-name="h" horiz-adv-x="442" unicode="h" d="M72 729h40v-385q7 13 18 26t26 23.5t35 17t46 6.5q27 0 47 -7t33.5 -16.5t21.5 -19t11 -14.5q14 -22 17 -49t3 -54v-257h-40v257q0 21 -2.5 43t-13.5 39q-7 11 -25 25.5t-55 14.5q-42 0 -65.5 -18.5t-34.5 -38.5q-14 -24 -18 -52t-4 -58v-212h-40v729z"/>
<glyph glyph-name="i" horiz-adv-x="184" unicode="i" d="M92 507q-15 0 -25.5 10t-10.5 27t10.5 27t25.5 10t25.5 -10t10.5 -27t-10.5 -27t-25.5 -10zM112 408v-408h-40v408h40z"/>
<glyph glyph-name="j" horiz-adv-x="184" unicode="j" d="M92 507q-15 0 -25.5 10t-10.5 27t10.5 27t25.5 10t25.5 -10t10.5 -27t-10.5 -27t-25.5 -10zM112 408v-638h-40v638h40z"/>
<glyph glyph-name="k" horiz-adv-x="396" unicode="k" d="M112 729v-496l168 175h52l-172 -177l228 -231h-54l-201 202l-21 -21v-181h-40v729h40z"/>
<glyph glyph-name="l" horiz-adv-x="184" unicode="l" d="M112 729v-729h-40v729h40z"/>
<glyph glyph-name="m" horiz-adv-x="652" unicode="m" d="M72 408h40v-51q12 20 26 32t28 18t27.5 8t24.5 2q30 0 50.5 -8.5t33.5 -20.5t20 -24.5t10 -20.5q17 37 48.5 55.5t72.5 18.5q34 0 56 -10t36 -24q25 -25 30 -55.5t5 -55.5v-272h-40v272q0 20 -3.5 43.5t-20.5 40.5q-14 14 -30.5 18.5t-30.5 4.5q-41 0 -63 -17.5t-32 -40 t-12 -44.5t-2 -31v-246h-40v262q0 10 -1.5 29.5t-10.5 39t-27 34t-51 14.5q-53 0 -78.5 -41t-25.5 -102v-236h-40v408z"/>
<glyph glyph-name="n" horiz-adv-x="442" unicode="n" d="M72 408h40v-64q7 13 18 26t26 23.5t35 17t46 6.5q27 0 47 -7t33.5 -16.5t21.5 -19t11 -14.5q14 -22 17 -49t3 -54v-257h-40v257q0 21 -2.5 43t-13.5 39q-7 11 -25 25.5t-55 14.5q-42 0 -65.5 -18.5t-34.5 -38.5q-14 -24 -18 -52t-4 -58v-212h-40v408z"/>
<glyph glyph-name="o" horiz-adv-x="520" unicode="o" d="M260 27q37 0 68.5 13.5t54.5 37.5t36 56t13 69t-13 69t-36 56t-54.5 37.5t-68.5 13.5t-68.5 -13.5t-54.5 -37.5t-36 -56t-13 -69t13 -69t36 -56t54.5 -37.5t68.5 -13.5zM260 417q45 0 84.5 -16.5t68 -45t45 -68t16.5 -84.5t-16.5 -84.5t-45 -68t-68 -45t-84.5 -16.5 t-84.5 16.5t-68 45t-45 68t-16.5 84.5t16.5 84.5t45 68t68 45t84.5 16.5z"/>
<glyph glyph-name="p" horiz-adv-x="516" unicode="p" d="M269 27q39 0 68.5 14t49.5 38.5t30.5 57t10.5 70.5q0 42 -13 74t-34.5 54t-50.5 33t-60 11q-30 0 -59 -10.5t-51.5 -32t-36 -53.5t-13.5 -74q0 -38 10.5 -71.5t30.5 -58t49.5 -38.5t68.5 -14zM112 -230h-40v638h40v-71q29 40 70 60t90 20q46 0 83 -16t62.5 -44.5t39 -67 t13.5 -82.5q0 -45 -14 -84.5t-39.5 -69.5t-63 -47t-83.5 -17q-38 0 -65.5 10.5t-46.5 24t-30.5 27.5t-15.5 22v-303z"/>
<glyph glyph-name="q" horiz-adv-x="516" unicode="q" d="M246 379q-32 0 -60.5 -11t-50 -32.5t-34.5 -53.5t-13 -75q0 -45 13.5 -78.5t36 -56t51 -34t59.5 -11.5q30 0 58.5 11.5t50.5 34t35.5 56t13.5 78.5q0 36 -11 67t-31.5 54.5t-50 37t-67.5 13.5zM404 -230v303q-15 -24 -34.5 -40t-40.5 -25.5t-42.5 -14t-40.5 -4.5 q-39 0 -75 14t-63.5 41t-44.5 67.5t-17 94.5q0 56 17.5 96t45.5 65.5t64 37.5t73 12q56 0 95 -22.5t63 -57.5v71h40v-638h-40z"/>
<glyph glyph-name="r" horiz-adv-x="260" unicode="r" d="M72 408h40v-53q11 26 34 44t56 18q8 0 20 -2t23 -8l-20 -36q-3 2 -9.5 5t-20.5 3q-31 0 -47.5 -18t-24.5 -43t-9.5 -52.5t-1.5 -46.5v-219h-40v408z"/>
<glyph glyph-name="s" horiz-adv-x="334" unicode="s" d="M246 333q-11 24 -30 35t-41 11q-17 0 -30 -6t-21.5 -15.5t-13 -21t-4.5 -22.5q0 -30 21 -43.5t51 -25.5q31 -12 58 -23.5t47 -36.5q13 -16 17 -32.5t4 -33.5q0 -35 -12 -59.5t-31 -40.5t-42.5 -23t-47.5 -7q-51 0 -89.5 28.5t-51.5 79.5l39 12q11 -41 39.5 -61.5 t62.5 -20.5q39 0 65 25t26 65q0 17 -5.5 29.5t-17 22.5t-28.5 18.5t-40 17.5q-31 13 -53 24.5t-36 29.5q-7 9 -12.5 22t-5.5 31q0 47 31 76t78 29q36 0 64.5 -16.5t42.5 -49.5z"/>
<glyph glyph-name="t" horiz-adv-x="194" unicode="t" d="M115 370v-370h-40v370h-45v38h45v146h40v-146h71v-38h-71z"/>
<glyph glyph-name="u" horiz-adv-x="438" unicode="u" d="M112 408v-246q0 -22 3.5 -50.5t22.5 -51.5t43 -28t38 -5t38 5t43 28t22.5 51.5t3.5 50.5v246h40v-257q0 -25 -5 -55t-26 -57q-23 -30 -56 -40t-60 -10t-60 10t-56 40q-21 27 -26 57t-5 55v257h40z"/>
<glyph glyph-name="v" horiz-adv-x="390" unicode="v" d="M52 408l144 -339l142 339h44l-186 -433l-188 433h44z"/>
<glyph glyph-name="w" horiz-adv-x="672" unicode="w" d="M52 408l141 -337l141 362l141 -362l145 337h44l-189 -433l-141 362l-141 -362l-185 433h44z"/>
<glyph glyph-name="x" horiz-adv-x="400" unicode="x" d="M173 214l-151 194h49l129 -168l127 168h49l-148 -194l164 -214h-49l-143 188l-143 -188h-49z"/>
<glyph glyph-name="y" horiz-adv-x="428" unicode="y" d="M202 -7l-194 415h46l171 -363l149 363h46l-268 -638h-47z"/>
<glyph glyph-name="z" horiz-adv-x="452" unicode="z" d="M104 38h328v-38h-414l334 370h-282v38h364z"/>
<glyph glyph-name="braceleft" horiz-adv-x="278" unicode="{" d="M40 299q21 6 32.5 16t17.5 23.5t7.5 29t1.5 31.5v194q0 10 0.5 23t3.5 27t9 28t18 26t26.5 18.5t29 9.5t26 3.5t16.5 0.5h12v-40q-5 1 -11 1q-16 0 -35.5 -5.5t-31.5 -19.5q-14 -16 -16.5 -37t-2.5 -38v-194q0 -46 -13 -72t-51 -40q19 -7 31.5 -19t20 -27.5t10 -33.5 t2.5 -36v-182q0 -9 0.5 -20.5t2.5 -23t6 -22t10 -17.5q12 -14 31 -19t33 -5q7 0 14 1v-40h-9q-23 0 -52 5.5t-50 28.5q-11 12 -17 27t-9 31t-3.5 32t-0.5 30v176q0 13 -1 28.5t-7 29.5t-18 25.5t-33 16.5v29z"/>
<glyph glyph-name="bar" d="M230 750h40v-1000h-40v1000z" unicode="|"/>
<glyph glyph-name="braceright" horiz-adv-x="278" unicode="}" d="M238 270q-21 -5 -33 -16.5t-18 -25.5t-7 -29.5t-1 -28.5v-176q0 -14 -1 -30t-4 -32t-9 -31t-16 -27q-21 -23 -50 -28.5t-52 -5.5h-9v40q7 -1 14 -1q14 0 33 5t31 19q6 7 10 17.5t6 22t2.5 23t0.5 20.5v182q0 18 2.5 36t10 33.5t19.5 27.5t32 19q-38 14 -51 40t-13 72v194 q0 17 -2.5 38t-16.5 37q-12 14 -31.5 19.5t-35.5 5.5q-5 0 -11 -1v40h12q5 0 16.5 -0.5t25.5 -3.5t29 -9.5t27 -18.5t18 -26t9 -28t3.5 -27t0.5 -23v-194q0 -16 1.5 -31.5t7.5 -29t17.5 -23.5t32.5 -16v-29z"/>
<glyph glyph-name="asciitilde" d="M12 211q9 19 21.5 36.5t25.5 30.5q14 13 34.5 24t50.5 11q28 0 56 -12.5t57 -27.5q22 -11 37.5 -18.5t27 -11.5t20.5 -5.5t18 -1.5q38 0 65 27q11 11 20.5 25.5t15.5 25.5l27 -16q-3 -6 -13 -23.5t-26 -34.5q-17 -18 -40 -30t-55 -12q-26 0 -57.5 12.5t-80.5 39.5 q-17 9 -34.5 17t-40.5 8q-37 0 -64 -26q-12 -11 -21.5 -25.5t-16.5 -28.5z" unicode="~"/>
<glyph glyph-name="uni00A0" horiz-adv-x="233" unicode=" "/>
<glyph glyph-name="exclamdown" horiz-adv-x="260" unicode="¡" d="M167 407q0 -16 -10.5 -26.5t-26.5 -10.5t-26.5 10.5t-10.5 26.5t10.5 26.5t26.5 10.5t26.5 -10.5t10.5 -26.5zM152 318v-548h-44v548h44z"/>
<glyph glyph-name="cent" horiz-adv-x="548" unicode="¢" d="M281 514q-38 -7 -65.5 -25t-45 -42t-25.5 -52.5t-8 -55.5t8.5 -55.5t26.5 -53t45 -42t64 -23.5v349zM319 553q8 0 21 -1.5t30 -6.5t37 -15t41 -28v-53q-21 23 -53.5 43.5t-75.5 22.5v-350q9 0 23.5 2.5t32 9.5t37.5 21.5t41 38.5v-54q-25 -22 -58.5 -38t-75.5 -18v-114 h-38v114q-42 6 -76 24t-58.5 45.5t-38 63.5t-13.5 78q0 43 13.5 80t38 65t59 46t75.5 23v103h38v-102z"/>
<glyph glyph-name="sterling" horiz-adv-x="548" unicode="£" d="M97 313h98l-21 35q-17 28 -25.5 43.5t-14.5 26.5q-10 20 -16.5 40.5t-6.5 43.5q0 31 12.5 63.5t38.5 58.5q20 20 51.5 35t76.5 15q32 0 61 -10t55 -35q17 -17 35 -51t18 -89h-44q0 37 -12 66.5t-30 46.5q-16 14 -38 23t-46 9q-21 0 -47 -7.5t-49 -31.5q-18 -19 -27 -42 t-9 -46q0 -26 9 -49t18 -40q12 -23 24 -42t22 -35l17 -28h121v-40h-108q11 -21 16.5 -44.5t5.5 -43.5q0 -21 -9 -50t-37 -65l65 -22q16 -5 34 -11t38 -6q18 0 33 6.5t27 16.5t20.5 22.5t13.5 23.5l36 -22q-8 -16 -20.5 -32t-28.5 -29t-35 -21.5t-41 -8.5q-26 0 -57 10.5 t-63 21.5q-25 8 -41.5 12.5t-32.5 4.5q-26 0 -48 -13t-43 -33l-24 32q18 20 36 31.5t34 17t28.5 7t20.5 1.5q20 21 35 50t15 56q0 22 -8 46.5t-19 41.5h-114v40z"/>
<glyph glyph-name="currency" horiz-adv-x="548" unicode="¤" d="M461 350q0 39 -14.5 73t-40 59.5t-59.5 40.5t-73 15t-72.5 -15t-59 -40.5t-40 -59.5t-14.5 -73t14.5 -73t40 -59.5t59 -40t72.5 -14.5t73 14.5t59.5 40t40 59.5t14.5 73zM16 115l90 89q-17 19 -28 39t-17 39t-8.5 36.5t-2.5 31.5q0 39 13 75.5t40 67.5l-90 90l24 24 l90 -89q38 35 78 45.5t69 10.5t69 -10.5t78 -45.5l90 89l24 -24l-90 -90q33 -36 43.5 -74t10.5 -70q0 -28 -9.5 -64t-45.5 -79l91 -91l-24 -24l-91 91q-21 -19 -41.5 -30t-39.5 -16.5t-35 -7t-28 -1.5q-54 0 -89.5 17.5t-56.5 35.5l-90 -90z"/>
<glyph glyph-name="yen" horiz-adv-x="548" unicode="¥" d="M355 391l-61 -103h206v-40h-207v-248h-44v248h-200v40h198l-59 103h-139v40h116l-134 236h51l190 -335l194 335h51l-139 -236h122v-40h-145z"/>
<glyph glyph-name="brokenbar" d="M230 110h40v-360h-40v360zM230 750h40v-360h-40v360z" unicode="¦"/>
<glyph glyph-name="section" horiz-adv-x="548" unicode="§" d="M274 421q-27 0 -50.5 -9t-43.5 -29q-18 -19 -26 -42t-8 -50q0 -37 11.5 -59t22.5 -32q19 -18 45.5 -27.5t48.5 -9.5q29 0 53 11t41 28q12 13 23 34.5t11 55.5q0 39 -13 61.5t-22 31.5q-14 15 -37 25.5t-56 10.5zM160 13q0 -32 5.5 -58t22.5 -43q10 -10 30.5 -21t57.5 -11 q20 0 42 5.5t42 25.5q17 17 24 36.5t7 42.5q0 29 -9.5 49t-23.5 34q-17 16 -43 26.5t-61 20.5q-27 8 -54 17.5t-52 32.5q-20 19 -34 47t-14 69q0 34 9.5 60.5t23.5 44.5q11 14 23.5 24.5t24 17.5t20.5 11t12 5q-17 8 -35.5 20.5t-31.5 28.5q-10 12 -19.5 33.5t-9.5 53.5 q0 35 12 64t32 49q19 18 49 30t69 12q32 0 66 -10t56 -33q25 -26 33 -63t8 -66h-44v9q0 29 -8.5 54.5t-24.5 40.5q-11 11 -31 19.5t-52 8.5q-16 0 -41 -5t-47 -25q-8 -7 -19.5 -26t-11.5 -52q0 -20 7 -39.5t24 -36.5q7 -6 21 -14t30 -15.5t30.5 -13.5t22.5 -8q29 -8 58 -22 t50 -35q27 -27 34.5 -58t7.5 -58q0 -25 -5.5 -50t-24.5 -49q-11 -15 -29.5 -29.5t-44.5 -24.5q19 -9 37.5 -23.5t31.5 -33.5q14 -20 19 -42t5 -45q0 -26 -6.5 -55t-33.5 -56q-27 -28 -59 -36t-64 -8q-29 0 -59.5 6.5t-54.5 29.5q-14 13 -23 30.5t-13.5 36.5t-6 37t-1.5 33 h44z"/>
<glyph glyph-name="dieresis" d="M297 526q0 15 10.5 25.5t25.5 10.5t25.5 -10.5t10.5 -25.5t-10.5 -25.5t-25.5 -10.5t-25.5 10.5t-10.5 25.5zM131 526q0 15 10.5 25.5t25.5 10.5t25.5 -10.5t10.5 -25.5t-10.5 -25.5t-25.5 -10.5t-25.5 10.5t-10.5 25.5z" unicode="¨"/>
<glyph glyph-name="copyright" horiz-adv-x="740" unicode="©" d="M513 421q-8 11 -20 23t-28.5 22t-36.5 16.5t-45 6.5q-35 0 -64 -12t-50 -33.5t-32.5 -51t-11.5 -64.5q0 -34 12 -63t33.5 -50t50.5 -33t63 -12q35 0 69 16t60 49v-52q-40 -32 -73.5 -40.5t-55.5 -8.5q-42 0 -78 14.5t-62.5 40.5t-41.5 62t-15 78q0 43 15 79t41.5 62 t62.5 40.5t78 14.5q10 0 24.5 -1.5t31.5 -7t35.5 -15.5t37.5 -27v-53zM679 333q0 64 -24.5 121.5t-66.5 100t-98 67.5t-120 25t-120 -25t-98 -67.5t-66.5 -100t-24.5 -121.5q0 -65 24.5 -121.5t66.5 -99.5t98.5 -67.5t119.5 -24.5t119.5 24.5t98.5 67.5t66.5 99.5 t24.5 121.5zM27 333q0 71 27 134t73.5 109.5t109 73.5t133.5 27t133.5 -27t109 -73.5t73.5 -109.5t27 -134t-27 -133.5t-73.5 -109t-109 -73.5t-133.5 -27t-133.5 27t-109 73.5t-73.5 109t-27 133.5z"/>
<glyph glyph-name="ordfeminine" horiz-adv-x="338" unicode="ª" d="M292 325v-34h-255v34h255zM163 643q-22 0 -42 -8t-34 -22t-21.5 -36.5t-7.5 -48.5t8.5 -50t25.5 -40q13 -12 31 -19.5t40 -7.5q25 0 42.5 8.5t28.5 19.5q21 22 27 46t6 44t-6 42.5t-25 42.5q-10 10 -28 19.5t-45 9.5zM265 661h27v-268h-27v48q-16 -24 -40 -38 q-28 -16 -62 -16q-35 0 -57.5 11t-36.5 25t-26.5 39t-12.5 65q0 30 9.5 57.5t29.5 47.5q14 14 37 24.5t59 10.5q16 0 30 -3t30 -12q24 -13 40 -37v46z"/>
<glyph glyph-name="guillemotleft" horiz-adv-x="348" unicode="«" d="M294 81l-26 -24l-130 150l130 150l26 -24l-108 -126zM188 81l-26 -24l-130 150l130 150l26 -24l-108 -126z"/>
<glyph glyph-name="logicalnot" d="M427 0v229h-394v38h434v-267h-40z" unicode="¬"/>
<glyph glyph-name="uni00AD" horiz-adv-x="300" unicode="­" d="M50 230h200v-46h-200v46z"/>
<glyph glyph-name="registered" horiz-adv-x="740" unicode="®" d="M331 337h34q7 0 20 1.5t25.5 8t22 20t9.5 38.5q0 27 -8.5 41t-21.5 20t-27 7t-25 1h-29v-137zM455 135l-117 171h-7v-171h-34v370h62q60 0 89 -22.5t29 -78.5q0 -23 -7 -39t-16.5 -26.5t-20.5 -16.5t-20 -9t-12.5 -4t-6 -1t-6 -0.5t-11.5 -2.5l118 -170h-40zM679 333 q0 64 -24.5 121.5t-66.5 100t-98 67.5t-120 25t-120 -25t-98 -67.5t-66.5 -100t-24.5 -121.5q0 -65 24.5 -121.5t66.5 -99.5t98.5 -67.5t119.5 -24.5t119.5 24.5t98.5 67.5t66.5 99.5t24.5 121.5zM27 333q0 71 27 134t73.5 109.5t109 73.5t133.5 27t133.5 -27t109 -73.5 t73.5 -109.5t27 -134t-27 -133.5t-73.5 -109t-109 -73.5t-133.5 -27t-133.5 27t-109 73.5t-73.5 109t-27 133.5z"/>
<glyph glyph-name="macron" d="M115 532h270v-39h-270v39z" unicode="¯"/>
<glyph glyph-name="degree" d="M250 639q-48 0 -75.5 -29.5t-27.5 -73.5t27.5 -73.5t75.5 -29.5t75.5 29.5t27.5 73.5t-27.5 73.5t-75.5 29.5zM250 667q30 0 55 -10t42.5 -27t27.5 -41.5t10 -52.5q0 -29 -10 -53t-27.5 -41t-42.5 -27t-55 -10t-55 10t-42.5 27t-27.5 41t-10 53q0 28 10 52.5t27.5 41.5 t42.5 27t55 10z" unicode="°"/>
<glyph glyph-name="plusminus" d="M33 114h434v-38h-434v38zM33 377h197v181h40v-181h197v-38h-197v-181h-40v181h-197v38z" unicode="±"/>
<glyph glyph-name="twosuperior" horiz-adv-x="330" unicode="²" d="M37 267l146 169q19 22 28 34t13 19q9 14 15 31.5t6 38.5q0 33 -21 55t-59 22q-13 0 -30 -4t-32 -21q-8 -9 -15 -23t-6 -34h-36q0 27 9 48.5t23 35.5q13 14 34.5 24t53.5 10q53 0 86 -32t33 -81q0 -42 -26 -83q-5 -6 -15.5 -21t-16.5 -22l-110 -130h166v-36h-246z"/>
<glyph glyph-name="threesuperior" horiz-adv-x="330" unicode="³" d="M84 365q2 -22 12 -37q10 -14 27.5 -22t34.5 -8q32 0 55 24t23 60q0 15 -7.5 34t-32.5 31q-13 6 -28.5 8.5t-27.5 1.5v36q14 0 29.5 4t28.5 13q14 10 23.5 25.5t9.5 35.5q0 26 -16.5 45.5t-48.5 19.5q-11 0 -24.5 -3.5t-24.5 -15.5q-7 -7 -12.5 -18.5t-5.5 -26.5h-36 q1 19 8 38.5t21 33.5q8 8 25.5 18t48.5 10q50 0 77.5 -29.5t27.5 -70.5q0 -27 -14 -54.5t-49 -41.5q33 -10 50.5 -36.5t17.5 -60.5q0 -26 -9 -47.5t-25 -37t-37.5 -24t-46.5 -8.5q-38 0 -61.5 17.5t-34.5 34.5q-14 23 -14 51h36z"/>
<glyph glyph-name="acute" d="M348 595l-105 -128l-30 16l92 137z" unicode="´"/>
<glyph glyph-name="mu" d="M72 -230v638h40v-207q0 -37 6 -71.5t33 -62.5q20 -21 45 -30.5t48 -9.5q28 0 54 12t46 35.5t32 58.5t12 80v195h40v-408h-40v90q-7 -17 -17 -33t-26 -31q-17 -16 -41 -26.5t-62 -10.5q-12 0 -28 2.5t-34 10.5t-35.5 24.5t-32.5 43.5v-300h-40z" unicode="µ"/>
<glyph glyph-name="mu" d="M72 -230v638h40v-207q0 -37 6 -71.5t33 -62.5q20 -21 45 -30.5t48 -9.5q28 0 54 12t46 35.5t32 58.5t12 80v195h40v-408h-40v90q-7 -17 -17 -33t-26 -31q-17 -16 -41 -26.5t-62 -10.5q-12 0 -28 2.5t-34 10.5t-35.5 24.5t-32.5 43.5v-300h-40z" unicode="μ"/>
<glyph glyph-name="paragraph" horiz-adv-x="531" unicode="¶" d="M221 -95v406h-9q-14 0 -32 1.5t-38.5 6.5t-41 16t-38.5 30q-16 17 -30 46.5t-14 75.5q0 51 17.5 83t37.5 49q35 31 78.5 39.5t80.5 8.5h231v-33h-53v-729h-36v729h-117v-729h-36z"/>
<glyph glyph-name="periodcentered" horiz-adv-x="200" unicode="·" d="M52 340q0 20 14 34t34 14t34 -14t14 -34t-14 -34t-34 -14t-34 14t-14 34z"/>
<glyph glyph-name="cedilla" d="M314 -70l-100 -124l-28 16l82 128z" unicode="¸"/>
<glyph glyph-name="onesuperior" horiz-adv-x="330" unicode="¹" d="M152 631h-62l12 36h88v-400h-38v364z"/>
<glyph glyph-name="ordmasculine" horiz-adv-x="342" unicode="º" d="M170 643q-28 0 -47.5 -10.5t-31.5 -22.5q-33 -33 -33 -83q0 -28 9.5 -48.5t25.5 -36.5q20 -19 40 -25t36 -6q29 0 48.5 10t30.5 20q14 13 25 33.5t11 52.5q0 29 -10.5 50.5t-24.5 35.5q-14 13 -33.5 21.5t-45.5 8.5zM304 325v-34h-267v34h267zM174 667q26 0 51.5 -8.5 t48.5 -33.5q20 -22 29 -46.5t9 -50.5q0 -32 -10.5 -57t-26.5 -42q-17 -19 -44 -30.5t-61 -11.5q-38 0 -62 12.5t-38 26.5q-17 17 -28.5 42t-11.5 58q0 31 10 56t28 44q17 17 42.5 29t63.5 12z"/>
<glyph glyph-name="guillemotright" horiz-adv-x="348" unicode="»" d="M160 333l26 24l130 -150l-130 -150l-26 24l108 126zM54 333l26 24l130 -150l-130 -150l-26 24l108 126z"/>
<glyph glyph-name="onequarter" horiz-adv-x="760" unicode="¼" d="M152 631h-62l12 36h88v-400h-38v364zM582 682l30 -16l-394 -681l-30 16zM642 112v190l-134 -190h134zM680 112h56v-36h-56v-76h-38v76h-204l242 337v-301z"/>
<glyph glyph-name="onehalf" horiz-adv-x="760" unicode="½" d="M152 631h-62l12 36h88v-400h-38v364zM552 682l30 -16l-394 -681l-30 16zM467 0l146 169q19 22 28 34t13 19q9 14 15 31.5t6 38.5q0 33 -21 55t-59 22q-13 0 -30 -4t-32 -21q-8 -9 -15 -23t-6 -34h-36q0 27 9 48.5t23 35.5q13 14 34.5 24t53.5 10q53 0 86 -32t33 -81 q0 -42 -26 -83q-5 -6 -15.5 -21t-16.5 -22l-110 -130h166v-36h-246z"/>
<glyph glyph-name="threequarters" horiz-adv-x="760" unicode="¾" d="M84 365q2 -22 12 -37q10 -14 27.5 -22t34.5 -8q32 0 55 24t23 60q0 15 -7.5 34t-32.5 31q-13 6 -28.5 8.5t-27.5 1.5v36q14 0 29.5 4t28.5 13q14 10 23.5 25.5t9.5 35.5q0 26 -16.5 45.5t-48.5 19.5q-11 0 -24.5 -3.5t-24.5 -15.5q-7 -7 -12.5 -18.5t-5.5 -26.5h-36 q1 19 8 38.5t21 33.5q8 8 25.5 18t48.5 10q50 0 77.5 -29.5t27.5 -70.5q0 -27 -14 -54.5t-49 -41.5q33 -10 50.5 -36.5t17.5 -60.5q0 -26 -9 -47.5t-25 -37t-37.5 -24t-46.5 -8.5q-38 0 -61.5 17.5t-34.5 34.5q-14 23 -14 51h36zM602 682l30 -16l-394 -681l-30 16zM642 112 v190l-134 -190h134zM680 112h56v-36h-56v-76h-38v76h-204l242 337v-301z"/>
<glyph glyph-name="questiondown" horiz-adv-x="466" unicode="¿" d="M269 407q0 -16 -10.5 -26.5t-26.5 -10.5t-26.5 10.5t-10.5 26.5t10.5 26.5t26.5 10.5t26.5 -10.5t10.5 -26.5zM96 174q0 17 4.5 42.5t16.5 45.5q14 24 42.5 41t71.5 17q30 0 57 -10t44 -26q18 -17 29 -44t11 -57q0 -32 -12 -57t-32 -42q-14 -11 -35.5 -20.5t-56.5 -17.5 q-26 -6 -50 -14.5t-41 -27.5q-16 -18 -20.5 -40.5t-4.5 -41.5q0 -26 6.5 -48.5t23.5 -41.5q14 -15 34.5 -24.5t50.5 -9.5q28 0 49.5 9.5t35.5 24.5q9 10 18.5 31t9.5 59q0 20 -7 40h44q7 -22 7 -46q0 -32 -8.5 -61t-35.5 -55q-20 -18 -49 -30t-67 -12q-40 0 -69.5 13 t-47.5 32q-26 27 -33.5 58t-7.5 59q0 29 7.5 55.5t28.5 50.5q20 22 42 33t47 18q26 8 51.5 14t43.5 20q11 9 22.5 27t11.5 47q0 20 -7 38t-18 30q-10 11 -27 20t-44 9q-32 0 -51 -11.5t-28 -24.5q-11 -15 -14 -36.5t-3 -35.5h-40z"/>
<glyph glyph-name="Agrave" horiz-adv-x="586" unicode="À" d="M419 259l-125 316l-127 -316h252zM435 219h-284l-89 -219h-48l281 687l277 -687h-48zM177 829l50 25l116 -133l-32 -18z"/>
<glyph glyph-name="Aacute" horiz-adv-x="586" unicode="Á" d="M419 259l-125 316l-127 -316h252zM435 219h-284l-89 -219h-48l281 687l277 -687h-48zM409 829l-134 -126l-32 18l116 133z"/>
<glyph glyph-name="Acircumflex" horiz-adv-x="586" unicode="Â" d="M419 259l-125 316l-127 -316h252zM435 219h-284l-89 -219h-48l281 687l277 -687h-48zM197 722l-34 27l130 90l130 -90l-34 -27l-96 64z"/>
<glyph glyph-name="Atilde" horiz-adv-x="586" unicode="Ã" d="M419 259l-125 316l-127 -316h252zM435 219h-284l-89 -219h-48l281 687l277 -687h-48zM163 739q4 8 10 19t13 19q9 10 20.5 16t24.5 6q14 0 29 -4.5t35 -12.5l32.5 -13t26.5 -5q9 0 14 3t11 9q11 13 15 26l29 -22q-4 -11 -11 -23t-17 -20q-12 -11 -24.5 -14t-21.5 -3 q-12 0 -25 4.5t-33 12.5q-14 6 -29 12t-29 6q-17 0 -28 -14q-3 -4 -7 -11.5t-6 -12.5z"/>
<glyph glyph-name="Adieresis" horiz-adv-x="586" unicode="Ä" d="M419 259l-125 316l-127 -316h252zM435 219h-284l-89 -219h-48l281 687l277 -687h-48zM348 780q0 16 11 27t27 11t27 -11t11 -27t-11 -27t-27 -11t-27 11t-11 27zM162 780q0 16 11 27t27 11t27 -11t11 -27t-11 -27t-27 -11t-27 11t-11 27z"/>
<glyph glyph-name="Aring" horiz-adv-x="586" unicode="Å" d="M419 259l-125 316l-127 -316h252zM435 219h-284l-89 -219h-48l281 687l277 -687h-48zM252 787q0 -18 11.5 -29.5t29.5 -11.5t29.5 11.5t11.5 29.5t-11.5 29.5t-29.5 11.5t-29.5 -11.5t-11.5 -29.5zM213 787q0 33 23.5 56.5t56.5 23.5t56.5 -23.5t23.5 -56.5t-23.5 -56.5 t-56.5 -23.5t-56.5 23.5t-23.5 56.5z"/>
<glyph glyph-name="AE" horiz-adv-x="852" unicode="Æ" d="M417 259l-127 314l-125 -314h252zM434 219h-285l-87 -219h-48l269 667h289l17 -40h-275l99 -242h268l17 -40h-268l124 -305h273l18 -40h-279h-43z"/>
<glyph glyph-name="Ccedilla" horiz-adv-x="678" unicode="Ç" d="M624 531q-43 51 -101.5 78t-123.5 27q-64 0 -119 -24t-95 -65.5t-62.5 -97.5t-22.5 -119q0 -74 28 -130.5t71.5 -94.5t96.5 -57t104 -19q25 0 53.5 5.5t58 17.5t58 31t54.5 47v-58q-51 -45 -109.5 -64t-112.5 -19q-75 0 -139 27.5t-110.5 74.5t-72.5 109t-26 132 q0 72 27 134.5t74 109t110 73.5t135 27q48 0 86 -11t66 -25.5t46 -29t26 -21.5v-58zM436 -76l-108 -126l-30 18l92 134z"/>
<glyph glyph-name="Egrave" horiz-adv-x="464" unicode="È" d="M410 627h-276v-242h270v-40h-270v-305h276v-40h-320v667h320v-40zM144 829l50 25l116 -133l-32 -18z"/>
<glyph glyph-name="Eacute" horiz-adv-x="464" unicode="É" d="M410 627h-276v-242h270v-40h-270v-305h276v-40h-320v667h320v-40zM366 829l-134 -126l-32 18l116 133z"/>
<glyph glyph-name="Ecircumflex" horiz-adv-x="464" unicode="Ê" d="M410 627h-276v-242h270v-40h-270v-305h276v-40h-320v667h320v-40zM154 722l-34 27l130 90l130 -90l-34 -27l-96 64z"/>
<glyph glyph-name="Edieresis" horiz-adv-x="464" unicode="Ë" d="M410 627h-276v-242h270v-40h-270v-305h276v-40h-320v667h320v-40zM305 780q0 16 11 27t27 11t27 -11t11 -27t-11 -27t-27 -11t-27 11t-11 27zM119 780q0 16 11 27t27 11t27 -11t11 -27t-11 -27t-27 -11t-27 11t-11 27z"/>
<glyph glyph-name="Igrave" horiz-adv-x="224" unicode="Ì" d="M5 837l56 17l90 -136l-41 -15zM134 667v-667h-44v667h44z"/>
<glyph glyph-name="Iacute" horiz-adv-x="224" unicode="Í" d="M219 837l-106 -134l-40 15l89 136zM134 667v-667h-44v667h44z"/>
<glyph glyph-name="Icircumflex" horiz-adv-x="224" unicode="Î" d="M32 722l-35 28l115 89l115 -89l-35 -27l-80 59zM134 667v-667h-44v667h44z"/>
<glyph glyph-name="Idieresis" horiz-adv-x="224" unicode="Ï" d="M138 780q0 16 11 27t27 11t27 -11t11 -27t-11 -27t-27 -11t-27 11t-11 27zM10 780q0 16 11 27t27 11t27 -11t11 -27t-11 -27t-27 -11t-27 11t-11 27zM134 667v-667h-44v667h44z"/>
<glyph glyph-name="Eth" horiz-adv-x="618" unicode="Ð" d="M134 385h136v-40h-136v-305h87q66 0 120.5 21.5t94 60t61 92.5t21.5 119q0 64 -22 118t-61 93t-93.5 61t-120.5 22h-87v-242zM90 0v345h-90v40h90v282h132q22 0 51.5 -2.5t62 -12.5t66.5 -28.5t66 -49.5q27 -27 45 -57.5t29.5 -62t16.5 -63t5 -58.5t-5 -58t-16.5 -62.5 t-29.5 -62t-45 -57.5q-32 -32 -66 -50t-66.5 -28t-62 -12.5t-51.5 -2.5h-132z"/>
<glyph glyph-name="Ntilde" horiz-adv-x="784" unicode="Ñ" d="M90 0v674l560 -586v579h44v-684l-560 586v-569h-44zM262 739q4 8 10 19t13 19q9 10 20.5 16t24.5 6q14 0 29 -4.5t35 -12.5l32.5 -13t26.5 -5q9 0 14 3t11 9q11 13 15 26l29 -22q-4 -11 -11 -23t-17 -20q-12 -11 -24.5 -14t-21.5 -3q-12 0 -25 4.5t-33 12.5q-14 6 -29 12 t-29 6q-17 0 -28 -14q-3 -4 -7 -11.5t-6 -12.5z"/>
<glyph glyph-name="Ograve" horiz-adv-x="800" unicode="Ò" d="M400 29q64 0 119 23.5t95.5 64.5t63 96t22.5 119t-22.5 119.5t-63 96.5t-95.5 64.5t-119 23.5q-65 0 -119.5 -23.5t-95 -64.5t-63 -96.5t-22.5 -119.5t22.5 -119t63 -96t95 -64.5t119.5 -23.5zM400 676q73 0 136.5 -27t110 -73.5t73 -109t26.5 -134.5t-26.5 -134.5 t-73 -109t-110 -73t-136.5 -26.5q-74 0 -137 26.5t-109.5 73t-73 109t-26.5 134.5t26.5 134.5t73 109t110 73.5t136.5 27zM284 829l50 25l116 -133l-32 -18z"/>
<glyph glyph-name="Oacute" horiz-adv-x="800" unicode="Ó" d="M400 29q64 0 119 23.5t95.5 64.5t63 96t22.5 119t-22.5 119.5t-63 96.5t-95.5 64.5t-119 23.5q-65 0 -119.5 -23.5t-95 -64.5t-63 -96.5t-22.5 -119.5t22.5 -119t63 -96t95 -64.5t119.5 -23.5zM400 676q73 0 136.5 -27t110 -73.5t73 -109t26.5 -134.5t-26.5 -134.5 t-73 -109t-110 -73t-136.5 -26.5q-74 0 -137 26.5t-109.5 73t-73 109t-26.5 134.5t26.5 134.5t73 109t110 73.5t136.5 27zM516 829l-134 -126l-32 18l116 133z"/>
<glyph glyph-name="Ocircumflex" horiz-adv-x="800" unicode="Ô" d="M400 29q64 0 119 23.5t95.5 64.5t63 96t22.5 119t-22.5 119.5t-63 96.5t-95.5 64.5t-119 23.5q-65 0 -119.5 -23.5t-95 -64.5t-63 -96.5t-22.5 -119.5t22.5 -119t63 -96t95 -64.5t119.5 -23.5zM400 676q73 0 136.5 -27t110 -73.5t73 -109t26.5 -134.5t-26.5 -134.5 t-73 -109t-110 -73t-136.5 -26.5q-74 0 -137 26.5t-109.5 73t-73 109t-26.5 134.5t26.5 134.5t73 109t110 73.5t136.5 27zM304 722l-34 27l130 90l130 -90l-34 -27l-96 64z"/>
<glyph glyph-name="Otilde" horiz-adv-x="800" unicode="Õ" d="M400 29q64 0 119 23.5t95.5 64.5t63 96t22.5 119t-22.5 119.5t-63 96.5t-95.5 64.5t-119 23.5q-65 0 -119.5 -23.5t-95 -64.5t-63 -96.5t-22.5 -119.5t22.5 -119t63 -96t95 -64.5t119.5 -23.5zM400 676q73 0 136.5 -27t110 -73.5t73 -109t26.5 -134.5t-26.5 -134.5 t-73 -109t-110 -73t-136.5 -26.5q-74 0 -137 26.5t-109.5 73t-73 109t-26.5 134.5t26.5 134.5t73 109t110 73.5t136.5 27zM270 739q4 8 10 19t13 19q9 10 20.5 16t24.5 6q14 0 29 -4.5t35 -12.5l32.5 -13t26.5 -5q9 0 14 3t11 9q11 13 15 26l29 -22q-4 -11 -11 -23t-17 -20 q-12 -11 -24.5 -14t-21.5 -3q-12 0 -25 4.5t-33 12.5q-14 6 -29 12t-29 6q-17 0 -28 -14q-3 -4 -7 -11.5t-6 -12.5z"/>
<glyph glyph-name="Odieresis" horiz-adv-x="800" unicode="Ö" d="M400 29q64 0 119 23.5t95.5 64.5t63 96t22.5 119t-22.5 119.5t-63 96.5t-95.5 64.5t-119 23.5q-65 0 -119.5 -23.5t-95 -64.5t-63 -96.5t-22.5 -119.5t22.5 -119t63 -96t95 -64.5t119.5 -23.5zM400 676q73 0 136.5 -27t110 -73.5t73 -109t26.5 -134.5t-26.5 -134.5 t-73 -109t-110 -73t-136.5 -26.5q-74 0 -137 26.5t-109.5 73t-73 109t-26.5 134.5t26.5 134.5t73 109t110 73.5t136.5 27zM455 780q0 16 11 27t27 11t27 -11t11 -27t-11 -27t-27 -11t-27 11t-11 27zM269 780q0 16 11 27t27 11t27 -11t11 -27t-11 -27t-27 -11t-27 11t-11 27z "/>
<glyph glyph-name="multiply" d="M223 329l-156 156l27 27l156 -156l156 156l27 -27l-156 -156l156 -156l-27 -27l-156 156l-156 -156l-27 27z" unicode="×"/>
<glyph glyph-name="Oslash" horiz-adv-x="800" unicode="Ø" d="M601 561q-11 10 -28.5 23t-42 24.5t-57 19.5t-73.5 8q-65 0 -119.5 -23.5t-95 -64.5t-63 -96.5t-22.5 -119.5q0 -41 8 -73t19 -57t24 -43t22 -29zM199 103q10 -9 28 -21.5t42.5 -24.5t57 -20t73.5 -8q64 0 119 23.5t95 64.5t63 96t23 119q0 36 -6.5 66t-16.5 55t-23 45 t-26 35zM143 100q-13 14 -28.5 35.5t-29 50t-22.5 65t-9 81.5q0 72 27 134.5t73.5 109t109.5 73.5t136 27q46 0 83 -9t65.5 -22.5t49 -28t33.5 -26.5l78 79l27 -27l-78 -78q49 -55 68.5 -115t19.5 -117q0 -72 -27 -134.5t-73.5 -109t-109.5 -73t-136 -26.5q-46 0 -83 9 t-65.5 22t-49 28t-33.5 26l-78 -79l-27 26z"/>
<glyph glyph-name="Ugrave" horiz-adv-x="634" unicode="Ù" d="M134 667v-417q0 -48 4.5 -81t23.5 -63q15 -24 35 -39t41 -23.5t42 -11.5t37 -3t37 3t42 11.5t41 23.5t35 39q19 30 23.5 63t4.5 81v417h44v-417q0 -27 -1 -50.5t-5 -44t-11.5 -39t-20.5 -37.5q-19 -27 -42.5 -44.5t-48.5 -27.5t-50.5 -14t-47.5 -4q-23 0 -48 4t-50 14 t-48.5 27.5t-42.5 44.5q-26 37 -32 76.5t-6 94.5v417h44zM201 829l50 25l116 -133l-32 -18z"/>
<glyph glyph-name="Uacute" horiz-adv-x="634" unicode="Ú" d="M134 667v-417q0 -48 4.5 -81t23.5 -63q15 -24 35 -39t41 -23.5t42 -11.5t37 -3t37 3t42 11.5t41 23.5t35 39q19 30 23.5 63t4.5 81v417h44v-417q0 -27 -1 -50.5t-5 -44t-11.5 -39t-20.5 -37.5q-19 -27 -42.5 -44.5t-48.5 -27.5t-50.5 -14t-47.5 -4q-23 0 -48 4t-50 14 t-48.5 27.5t-42.5 44.5q-26 37 -32 76.5t-6 94.5v417h44zM433 829l-134 -126l-32 18l116 133z"/>
<glyph glyph-name="Ucircumflex" horiz-adv-x="634" unicode="Û" d="M134 667v-417q0 -48 4.5 -81t23.5 -63q15 -24 35 -39t41 -23.5t42 -11.5t37 -3t37 3t42 11.5t41 23.5t35 39q19 30 23.5 63t4.5 81v417h44v-417q0 -27 -1 -50.5t-5 -44t-11.5 -39t-20.5 -37.5q-19 -27 -42.5 -44.5t-48.5 -27.5t-50.5 -14t-47.5 -4q-23 0 -48 4t-50 14 t-48.5 27.5t-42.5 44.5q-26 37 -32 76.5t-6 94.5v417h44zM221 722l-34 27l130 90l130 -90l-34 -27l-96 64z"/>
<glyph glyph-name="Udieresis" horiz-adv-x="634" unicode="Ü" d="M134 667v-417q0 -48 4.5 -81t23.5 -63q15 -24 35 -39t41 -23.5t42 -11.5t37 -3t37 3t42 11.5t41 23.5t35 39q19 30 23.5 63t4.5 81v417h44v-417q0 -27 -1 -50.5t-5 -44t-11.5 -39t-20.5 -37.5q-19 -27 -42.5 -44.5t-48.5 -27.5t-50.5 -14t-47.5 -4q-23 0 -48 4t-50 14 t-48.5 27.5t-42.5 44.5q-26 37 -32 76.5t-6 94.5v417h44zM372 780q0 16 11 27t27 11t27 -11t11 -27t-11 -27t-27 -11t-27 11t-11 27zM186 780q0 16 11 27t27 11t27 -11t11 -27t-11 -27t-27 -11t-27 11t-11 27z"/>
<glyph glyph-name="Yacute" horiz-adv-x="516" unicode="Ý" d="M233 285l-219 382h50l192 -337l196 337h50l-225 -382v-285h-44v285zM374 829l-134 -126l-32 18l116 133z"/>
<glyph glyph-name="Thorn" horiz-adv-x="446" unicode="Þ" d="M134 237h88q66 0 106 36t40 99t-40 99t-113 36h-81v-270zM90 667h44v-120h85q41 0 76.5 -11t62 -33t41.5 -54.5t15 -75.5q0 -42 -14 -74.5t-39.5 -55t-61.5 -34.5t-79 -12h-86v-197h-44v667z"/>
<glyph glyph-name="germandbls" horiz-adv-x="481" unicode="ß" d="M73 0v370h-69v38h69v164q0 32 6.5 67.5t34.5 63.5q17 17 43.5 27.5t61.5 10.5q37 0 60 -10.5t35 -21.5q16 -14 25.5 -30.5t14.5 -33.5t6.5 -33t1.5 -28q0 -26 -4.5 -48t-18.5 -43q-8 -11 -21 -24t-34 -23q14 -5 41 -18.5t56 -39.5q24 -23 43 -58t19 -94q0 -46 -14.5 -87 t-50.5 -78q-34 -35 -77.5 -53.5t-90.5 -22.5v40q43 4 80.5 22t63.5 46q47 52 47 126q0 49 -16 81.5t-34 51.5q-26 27 -63 43.5t-78 19.5v35q18 1 31.5 5t23.5 9.5t15.5 10t6.5 5.5q20 19 26.5 43t6.5 46q0 34 -8 56.5t-19 36.5q-18 20 -38.5 25.5t-37.5 5.5q-16 0 -36.5 -5 t-37.5 -22q-10 -10 -16 -22.5t-9 -26t-4 -26.5t-1 -23v-578h-40z"/>
<glyph glyph-name="agrave" horiz-adv-x="516" unicode="à" d="M247 379q-30 0 -59 -11.5t-51 -33t-35.5 -53.5t-13.5 -74q0 -35 10.5 -67t31 -57.5t50 -40.5t68.5 -15q38 0 67.5 15t49.5 40t30.5 57.5t10.5 67.5q0 45 -15 77.5t-38.5 53.5t-51.5 31t-54 10zM404 408h40v-408h-40v73q-31 -47 -75 -65.5t-84 -18.5t-76 14.5t-63.5 42.5 t-43.5 68t-16 90q0 47 14.5 86.5t40.5 67.5t62.5 43.5t81.5 15.5q48 0 89 -19t70 -61v71zM163 595l43 25l92 -137l-30 -16z"/>
<glyph glyph-name="aacute" horiz-adv-x="516" unicode="á" d="M247 379q-30 0 -59 -11.5t-51 -33t-35.5 -53.5t-13.5 -74q0 -35 10.5 -67t31 -57.5t50 -40.5t68.5 -15q38 0 67.5 15t49.5 40t30.5 57.5t10.5 67.5q0 45 -15 77.5t-38.5 53.5t-51.5 31t-54 10zM404 408h40v-408h-40v73q-31 -47 -75 -65.5t-84 -18.5t-76 14.5t-63.5 42.5 t-43.5 68t-16 90q0 47 14.5 86.5t40.5 67.5t62.5 43.5t81.5 15.5q48 0 89 -19t70 -61v71zM356 595l-105 -128l-30 16l92 137z"/>
<glyph glyph-name="acircumflex" horiz-adv-x="516" unicode="â" d="M247 379q-30 0 -59 -11.5t-51 -33t-35.5 -53.5t-13.5 -74q0 -35 10.5 -67t31 -57.5t50 -40.5t68.5 -15q38 0 67.5 15t49.5 40t30.5 57.5t10.5 67.5q0 45 -15 77.5t-38.5 53.5t-51.5 31t-54 10zM404 408h40v-408h-40v73q-31 -47 -75 -65.5t-84 -18.5t-76 14.5t-63.5 42.5 t-43.5 68t-16 90q0 47 14.5 86.5t40.5 67.5t62.5 43.5t81.5 15.5q48 0 89 -19t70 -61v71zM169 467l-32 25l122 94l122 -94l-32 -25l-90 68z"/>
<glyph glyph-name="atilde" horiz-adv-x="516" unicode="ã" d="M247 379q-30 0 -59 -11.5t-51 -33t-35.5 -53.5t-13.5 -74q0 -35 10.5 -67t31 -57.5t50 -40.5t68.5 -15q38 0 67.5 15t49.5 40t30.5 57.5t10.5 67.5q0 45 -15 77.5t-38.5 53.5t-51.5 31t-54 10zM404 408h40v-408h-40v73q-31 -47 -75 -65.5t-84 -18.5t-76 14.5t-63.5 42.5 t-43.5 68t-16 90q0 47 14.5 86.5t40.5 67.5t62.5 43.5t81.5 15.5q48 0 89 -19t70 -61v71zM142 506q4 11 9.5 21t13.5 17q10 10 22 14.5t24 4.5q20 0 40 -8.5t32 -13.5q14 -6 25 -9.5t22 -3.5q16 0 27 12q6 8 10 16t4 9l25 -20q-4 -11 -10.5 -21.5t-15.5 -18.5 q-11 -9 -22.5 -13t-22.5 -4t-24.5 4.5t-33.5 12.5q-18 8 -31.5 13t-27.5 5q-17 0 -28 -12q-9 -10 -12 -24z"/>
<glyph glyph-name="adieresis" horiz-adv-x="516" unicode="ä" d="M247 379q-30 0 -59 -11.5t-51 -33t-35.5 -53.5t-13.5 -74q0 -35 10.5 -67t31 -57.5t50 -40.5t68.5 -15q38 0 67.5 15t49.5 40t30.5 57.5t10.5 67.5q0 45 -15 77.5t-38.5 53.5t-51.5 31t-54 10zM404 408h40v-408h-40v73q-31 -47 -75 -65.5t-84 -18.5t-76 14.5t-63.5 42.5 t-43.5 68t-16 90q0 47 14.5 86.5t40.5 67.5t62.5 43.5t81.5 15.5q48 0 89 -19t70 -61v71zM316 526q0 15 10.5 25.5t25.5 10.5t25.5 -10.5t10.5 -25.5t-10.5 -25.5t-25.5 -10.5t-25.5 10.5t-10.5 25.5zM150 526q0 15 10.5 25.5t25.5 10.5t25.5 -10.5t10.5 -25.5t-10.5 -25.5 t-25.5 -10.5t-25.5 10.5t-10.5 25.5z"/>
<glyph glyph-name="aring" horiz-adv-x="516" unicode="å" d="M247 379q-30 0 -59 -11.5t-51 -33t-35.5 -53.5t-13.5 -74q0 -35 10.5 -67t31 -57.5t50 -40.5t68.5 -15q38 0 67.5 15t49.5 40t30.5 57.5t10.5 67.5q0 45 -15 77.5t-38.5 53.5t-51.5 31t-54 10zM404 408h40v-408h-40v73q-31 -47 -75 -65.5t-84 -18.5t-76 14.5t-63.5 42.5 t-43.5 68t-16 90q0 47 14.5 86.5t40.5 67.5t62.5 43.5t81.5 15.5q48 0 89 -19t70 -61v71zM223 549q0 -18 11.5 -29.5t29.5 -11.5t29.5 11.5t11.5 29.5t-11.5 29.5t-29.5 11.5t-29.5 -11.5t-11.5 -29.5zM187 549q0 33 22 55t55 22t55 -22t22 -55t-22 -55t-55 -22t-55 22 t-22 55z"/>
<glyph glyph-name="ae" horiz-adv-x="792" unicode="æ" d="M223 207q-69 0 -102.5 -27t-33.5 -64q0 -35 32 -62t98 -27q38 0 64 9t41.5 22.5t22.5 30t7 31.5q0 14 -6.5 29.5t-21.5 28t-39.5 21t-61.5 8.5zM705 236q-5 30 -18 56.5t-33 45.5t-46 30t-56 11t-55.5 -11t-45 -30.5t-32.5 -45.5t-17 -56h303zM397 198q1 -39 13 -70.5 t33 -54t50 -34.5t62 -12q28 0 51.5 8.5t41.5 22t31.5 29.5t22.5 32l34 -24q-28 -44 -73.5 -75t-108.5 -31q-60 0 -102.5 28t-65.5 74q-17 -52 -62 -77t-107 -25q-43 0 -75.5 11t-54 28.5t-32 40.5t-10.5 47q0 19 8 42t28.5 42t55 32t87.5 13q34 0 67 -7.5t64 -34.5 q1 10 1 19q0 24 -6 47q-8 32 -25.5 56.5t-45.5 39t-66 14.5t-75.5 -11.5t-63.5 -25.5v41q29 14 64.5 24t76.5 10q57 0 100 -28.5t63 -85.5q26 52 71.5 83t103.5 31q36 0 70.5 -13.5t61.5 -40.5t44 -68.5t18 -96.5h-350z"/>
<glyph glyph-name="ccedilla" horiz-adv-x="442" unicode="ç" d="M399 312q-10 12 -24 23.5t-31.5 21.5t-39 16t-46.5 6q-38 0 -69 -13.5t-53.5 -37.5t-35 -56.5t-12.5 -69.5q0 -44 15 -77t39 -54.5t54 -32.5t60 -11q24 0 46 6.5t40.5 17t34 23.5t27.5 26v-54q-20 -18 -57.5 -37.5t-91.5 -19.5q-46 0 -84.5 16t-66 44.5t-43 67.5 t-15.5 84t14.5 84.5t42 69t67 46t88.5 16.5q22 0 60.5 -8.5t80.5 -43.5v-53zM286 -70l-100 -124l-28 16l82 128z"/>
<glyph glyph-name="egrave" horiz-adv-x="483" unicode="è" d="M395 237q-4 30 -16.5 56t-32.5 45t-46 30t-56 11q-31 0 -57.5 -11t-46 -30.5t-32.5 -45t-17 -55.5h304zM88 199v-10q0 -33 11 -61q13 -32 36 -54.5t53 -34.5t62 -12q50 0 86 26t56 67l34 -20q-9 -17 -24 -36.5t-36.5 -36t-51 -27.5t-67.5 -11q-48 0 -85 16.5t-63 45.5 t-39.5 67.5t-13.5 83.5q0 53 17 93.5t44.5 67.5t63 40.5t73.5 13.5q41 0 77 -16t62 -45q27 -28 41 -68q14 -37 13 -83v-6h-349zM143 595l43 25l92 -137l-30 -16z"/>
<glyph glyph-name="eacute" horiz-adv-x="483" unicode="é" d="M395 237q-4 30 -16.5 56t-32.5 45t-46 30t-56 11q-31 0 -57.5 -11t-46 -30.5t-32.5 -45t-17 -55.5h304zM88 199v-10q0 -33 11 -61q13 -32 36 -54.5t53 -34.5t62 -12q50 0 86 26t56 67l34 -20q-9 -17 -24 -36.5t-36.5 -36t-51 -27.5t-67.5 -11q-48 0 -85 16.5t-63 45.5 t-39.5 67.5t-13.5 83.5q0 53 17 93.5t44.5 67.5t63 40.5t73.5 13.5q41 0 77 -16t62 -45q27 -28 41 -68q14 -37 13 -83v-6h-349zM342 595l-105 -128l-30 16l92 137z"/>
<glyph glyph-name="ecircumflex" horiz-adv-x="483" unicode="ê" d="M395 237q-4 30 -16.5 56t-32.5 45t-46 30t-56 11q-31 0 -57.5 -11t-46 -30.5t-32.5 -45t-17 -55.5h304zM88 199v-10q0 -33 11 -61q13 -32 36 -54.5t53 -34.5t62 -12q50 0 86 26t56 67l34 -20q-9 -17 -24 -36.5t-36.5 -36t-51 -27.5t-67.5 -11q-48 0 -85 16.5t-63 45.5 t-39.5 67.5t-13.5 83.5q0 53 17 93.5t44.5 67.5t63 40.5t73.5 13.5q41 0 77 -16t62 -45q27 -28 41 -68q14 -37 13 -83v-6h-349zM160 467l-32 25l122 94l122 -94l-32 -25l-90 68z"/>
<glyph glyph-name="edieresis" horiz-adv-x="483" unicode="ë" d="M395 237q-4 30 -16.5 56t-32.5 45t-46 30t-56 11q-31 0 -57.5 -11t-46 -30.5t-32.5 -45t-17 -55.5h304zM88 199v-10q0 -33 11 -61q13 -32 36 -54.5t53 -34.5t62 -12q50 0 86 26t56 67l34 -20q-9 -17 -24 -36.5t-36.5 -36t-51 -27.5t-67.5 -11q-48 0 -85 16.5t-63 45.5 t-39.5 67.5t-13.5 83.5q0 53 17 93.5t44.5 67.5t63 40.5t73.5 13.5q41 0 77 -16t62 -45q27 -28 41 -68q14 -37 13 -83v-6h-349zM291 526q0 15 10.5 25.5t25.5 10.5t25.5 -10.5t10.5 -25.5t-10.5 -25.5t-25.5 -10.5t-25.5 10.5t-10.5 25.5zM125 526q0 15 10.5 25.5t25.5 10.5 t25.5 -10.5t10.5 -25.5t-10.5 -25.5t-25.5 -10.5t-25.5 10.5t-10.5 25.5z"/>
<glyph glyph-name="igrave" horiz-adv-x="184" unicode="ì" d="M112 408v-408h-40v408h40zM-14 595l43 25l92 -137l-30 -16z"/>
<glyph glyph-name="iacute" horiz-adv-x="184" unicode="í" d="M112 408v-408h-40v408h40zM191 595l-105 -128l-30 16l92 137z"/>
<glyph glyph-name="icircumflex" horiz-adv-x="184" unicode="î" d="M22 471l-30 26l100 86l100 -86l-30 -26l-70 60zM112 408v-408h-40v408h40z"/>
<glyph glyph-name="idieresis" horiz-adv-x="184" unicode="ï" d="M112 408v-408h-40v408h40zM140 526q0 15 10.5 25.5t25.5 10.5t25.5 -10.5t10.5 -25.5t-10.5 -25.5t-25.5 -10.5t-25.5 10.5t-10.5 25.5zM-26 526q0 15 10.5 25.5t25.5 10.5t25.5 -10.5t10.5 -25.5t-10.5 -25.5t-25.5 -10.5t-25.5 10.5t-10.5 25.5z"/>
<glyph glyph-name="eth" horiz-adv-x="516" unicode="ð" d="M428 218q0 54 -17 86.5t-36 50.5q-14 14 -42 29t-71 15q-38 0 -68 -13t-53 -37q-29 -29 -41 -63.5t-12 -75.5q0 -50 16 -81.5t33 -49.5q22 -23 53 -37.5t69 -14.5q35 0 62.5 12t49.5 33q57 55 57 146zM110 673q29 -3 60 -10.5t55 -18.5q22 -9 44.5 -23t42.5 -29l146 49 l12 -35l-127 -42q20 -19 39 -43t33 -50q15 -27 25.5 -57t17 -61t9.5 -60.5t3 -54.5q0 -55 -14 -104t-51 -86q-26 -26 -63.5 -42.5t-82.5 -16.5q-47 0 -84.5 16.5t-63.5 42.5q-29 29 -47 71t-18 93t17 92.5t47 71.5q23 23 60.5 42t91.5 19q29 0 52.5 -7.5t41.5 -18.5t31 -25 t22 -27h2q-5 25 -13.5 50.5t-25.5 53.5t-35 49t-38 37l-162 -53l-12 34l140 46q-20 14 -59 32.5t-101 27.5z"/>
<glyph glyph-name="ntilde" horiz-adv-x="442" unicode="ñ" d="M72 408h40v-64q7 13 18 26t26 23.5t35 17t46 6.5q27 0 47 -7t33.5 -16.5t21.5 -19t11 -14.5q14 -22 17 -49t3 -54v-257h-40v257q0 21 -2.5 43t-13.5 39q-7 11 -25 25.5t-55 14.5q-42 0 -65.5 -18.5t-34.5 -38.5q-14 -24 -18 -52t-4 -58v-212h-40v408zM95 506q4 11 9.5 21 t13.5 17q10 10 22 14.5t24 4.5q20 0 40 -8.5t32 -13.5q14 -6 25 -9.5t22 -3.5q16 0 27 12q6 8 10 16t4 9l25 -20q-4 -11 -10.5 -21.5t-15.5 -18.5q-11 -9 -22.5 -13t-22.5 -4t-24.5 4.5t-33.5 12.5q-18 8 -31.5 13t-27.5 5q-17 0 -28 -12q-9 -10 -12 -24z"/>
<glyph glyph-name="ograve" horiz-adv-x="520" unicode="ò" d="M260 27q37 0 68.5 13.5t54.5 37.5t36 56t13 69t-13 69t-36 56t-54.5 37.5t-68.5 13.5t-68.5 -13.5t-54.5 -37.5t-36 -56t-13 -69t13 -69t36 -56t54.5 -37.5t68.5 -13.5zM260 417q45 0 84.5 -16.5t68 -45t45 -68t16.5 -84.5t-16.5 -84.5t-45 -68t-68 -45t-84.5 -16.5 t-84.5 16.5t-68 45t-45 68t-16.5 84.5t16.5 84.5t45 68t68 45t84.5 16.5zM173 595l43 25l92 -137l-30 -16z"/>
<glyph glyph-name="oacute" horiz-adv-x="520" unicode="ó" d="M260 27q37 0 68.5 13.5t54.5 37.5t36 56t13 69t-13 69t-36 56t-54.5 37.5t-68.5 13.5t-68.5 -13.5t-54.5 -37.5t-36 -56t-13 -69t13 -69t36 -56t54.5 -37.5t68.5 -13.5zM260 417q45 0 84.5 -16.5t68 -45t45 -68t16.5 -84.5t-16.5 -84.5t-45 -68t-68 -45t-84.5 -16.5 t-84.5 16.5t-68 45t-45 68t-16.5 84.5t16.5 84.5t45 68t68 45t84.5 16.5zM348 595l-105 -128l-30 16l92 137z"/>
<glyph glyph-name="ocircumflex" horiz-adv-x="520" unicode="ô" d="M260 27q37 0 68.5 13.5t54.5 37.5t36 56t13 69t-13 69t-36 56t-54.5 37.5t-68.5 13.5t-68.5 -13.5t-54.5 -37.5t-36 -56t-13 -69t13 -69t36 -56t54.5 -37.5t68.5 -13.5zM260 417q45 0 84.5 -16.5t68 -45t45 -68t16.5 -84.5t-16.5 -84.5t-45 -68t-68 -45t-84.5 -16.5 t-84.5 16.5t-68 45t-45 68t-16.5 84.5t16.5 84.5t45 68t68 45t84.5 16.5zM170 467l-32 25l122 94l122 -94l-32 -25l-90 68z"/>
<glyph glyph-name="otilde" horiz-adv-x="520" unicode="õ" d="M260 27q37 0 68.5 13.5t54.5 37.5t36 56t13 69t-13 69t-36 56t-54.5 37.5t-68.5 13.5t-68.5 -13.5t-54.5 -37.5t-36 -56t-13 -69t13 -69t36 -56t54.5 -37.5t68.5 -13.5zM260 417q45 0 84.5 -16.5t68 -45t45 -68t16.5 -84.5t-16.5 -84.5t-45 -68t-68 -45t-84.5 -16.5 t-84.5 16.5t-68 45t-45 68t-16.5 84.5t16.5 84.5t45 68t68 45t84.5 16.5zM133 506q4 11 9.5 21t13.5 17q10 10 22 14.5t24 4.5q20 0 40 -8.5t32 -13.5q14 -6 25 -9.5t22 -3.5q16 0 27 12q6 8 10 16t4 9l25 -20q-4 -11 -10.5 -21.5t-15.5 -18.5q-11 -9 -22.5 -13t-22.5 -4 t-24.5 4.5t-33.5 12.5q-18 8 -31.5 13t-27.5 5q-17 0 -28 -12q-9 -10 -12 -24z"/>
<glyph glyph-name="odieresis" horiz-adv-x="520" unicode="ö" d="M260 27q37 0 68.5 13.5t54.5 37.5t36 56t13 69t-13 69t-36 56t-54.5 37.5t-68.5 13.5t-68.5 -13.5t-54.5 -37.5t-36 -56t-13 -69t13 -69t36 -56t54.5 -37.5t68.5 -13.5zM260 417q45 0 84.5 -16.5t68 -45t45 -68t16.5 -84.5t-16.5 -84.5t-45 -68t-68 -45t-84.5 -16.5 t-84.5 16.5t-68 45t-45 68t-16.5 84.5t16.5 84.5t45 68t68 45t84.5 16.5zM307 526q0 15 10.5 25.5t25.5 10.5t25.5 -10.5t10.5 -25.5t-10.5 -25.5t-25.5 -10.5t-25.5 10.5t-10.5 25.5zM141 526q0 15 10.5 25.5t25.5 10.5t25.5 -10.5t10.5 -25.5t-10.5 -25.5t-25.5 -10.5 t-25.5 10.5t-10.5 25.5z"/>
<glyph glyph-name="divide" d="M33 348h434v-38h-434v38zM215 140q0 14 10.5 24.5t24.5 10.5t24.5 -10.5t10.5 -24.5t-10.5 -24.5t-24.5 -10.5t-24.5 10.5t-10.5 24.5zM215 518q0 14 10.5 24.5t24.5 10.5t24.5 -10.5t10.5 -24.5t-10.5 -24.5t-24.5 -10.5t-24.5 10.5t-10.5 24.5z" unicode="÷"/>
<glyph glyph-name="oslash" horiz-adv-x="521" unicode="ø" d="M369 342q-26 20 -54 28.5t-54 8.5q-37 0 -68.5 -13.5t-54.5 -37.5t-36 -56t-13 -69q0 -43 13 -70t21 -38zM146 71q31 -29 63 -36.5t52 -7.5q37 0 68.5 13.5t54.5 37.5t36 56t13 69q0 46 -14.5 74t-24.5 40zM94 66q-5 7 -13 19t-15.5 29t-13 39.5t-5.5 49.5 q0 45 16.5 84.5t45 68t68 45t84.5 16.5q27 0 49.5 -5t39.5 -12.5t28.5 -15.5t18.5 -14l53 53l25 -25l-53 -52q31 -35 42 -72.5t11 -70.5q0 -45 -16.5 -84.5t-45 -68t-68 -45t-84.5 -16.5q-32 0 -70.5 11t-73.5 42l-52 -53l-25 24z"/>
<glyph glyph-name="ugrave" horiz-adv-x="438" unicode="ù" d="M112 408v-246q0 -22 3.5 -50.5t22.5 -51.5t43 -28t38 -5t38 5t43 28t22.5 51.5t3.5 50.5v246h40v-257q0 -25 -5 -55t-26 -57q-23 -30 -56 -40t-60 -10t-60 10t-56 40q-21 27 -26 57t-5 55v257h40zM124 595l43 25l92 -137l-30 -16z"/>
<glyph glyph-name="uacute" horiz-adv-x="438" unicode="ú" d="M112 408v-246q0 -22 3.5 -50.5t22.5 -51.5t43 -28t38 -5t38 5t43 28t22.5 51.5t3.5 50.5v246h40v-257q0 -25 -5 -55t-26 -57q-23 -30 -56 -40t-60 -10t-60 10t-56 40q-21 27 -26 57t-5 55v257h40zM318 595l-105 -128l-30 16l92 137z"/>
<glyph glyph-name="ucircumflex" horiz-adv-x="438" unicode="û" d="M112 408v-246q0 -22 3.5 -50.5t22.5 -51.5t43 -28t38 -5t38 5t43 28t22.5 51.5t3.5 50.5v246h40v-257q0 -25 -5 -55t-26 -57q-23 -30 -56 -40t-60 -10t-60 10t-56 40q-21 27 -26 57t-5 55v257h40zM130 467l-32 25l122 94l122 -94l-32 -25l-90 68z"/>
<glyph glyph-name="udieresis" horiz-adv-x="438" unicode="ü" d="M112 408v-246q0 -22 3.5 -50.5t22.5 -51.5t43 -28t38 -5t38 5t43 28t22.5 51.5t3.5 50.5v246h40v-257q0 -25 -5 -55t-26 -57q-23 -30 -56 -40t-60 -10t-60 10t-56 40q-21 27 -26 57t-5 55v257h40zM267 526q0 15 10.5 25.5t25.5 10.5t25.5 -10.5t10.5 -25.5t-10.5 -25.5 t-25.5 -10.5t-25.5 10.5t-10.5 25.5zM101 526q0 15 10.5 25.5t25.5 10.5t25.5 -10.5t10.5 -25.5t-10.5 -25.5t-25.5 -10.5t-25.5 10.5t-10.5 25.5z"/>
<glyph glyph-name="yacute" horiz-adv-x="428" unicode="ý" d="M202 -7l-194 415h46l171 -363l149 363h46l-268 -638h-47zM313 595l-105 -128l-30 16l92 137z"/>
<glyph glyph-name="thorn" horiz-adv-x="516" unicode="þ" d="M269 27q39 0 68.5 14t49.5 38.5t30.5 57t10.5 70.5q0 42 -13 74t-34.5 54t-50.5 33t-60 11q-30 0 -59 -10.5t-51.5 -32t-36 -53.5t-13.5 -74q0 -38 10.5 -71.5t30.5 -58t49.5 -38.5t68.5 -14zM112 -230h-40v959h40v-392q29 40 70 60t90 20q46 0 83 -16t62.5 -44.5t39 -67 t13.5 -82.5q0 -45 -14 -84.5t-39.5 -69.5t-63 -47t-83.5 -17q-38 0 -65.5 10.5t-46.5 24t-30.5 27.5t-15.5 22v-303z"/>
<glyph glyph-name="ydieresis" horiz-adv-x="428" unicode="ÿ" d="M202 -7l-194 415h46l171 -363l149 363h46l-268 -638h-47zM262 526q0 15 10.5 25.5t25.5 10.5t25.5 -10.5t10.5 -25.5t-10.5 -25.5t-25.5 -10.5t-25.5 10.5t-10.5 25.5zM96 526q0 15 10.5 25.5t25.5 10.5t25.5 -10.5t10.5 -25.5t-10.5 -25.5t-25.5 -10.5t-25.5 10.5 t-10.5 25.5z"/>
<glyph glyph-name="Amacron" horiz-adv-x="586" unicode="Ā" d="M419 259l-125 316l-127 -316h252zM435 219h-284l-89 -219h-48l281 687l277 -687h-48zM158 794h270v-44h-270v44z"/>
<glyph glyph-name="amacron" horiz-adv-x="516" unicode="ā" d="M247 379q-30 0 -59 -11.5t-51 -33t-35.5 -53.5t-13.5 -74q0 -35 10.5 -67t31 -57.5t50 -40.5t68.5 -15q38 0 67.5 15t49.5 40t30.5 57.5t10.5 67.5q0 45 -15 77.5t-38.5 53.5t-51.5 31t-54 10zM404 408h40v-408h-40v73q-31 -47 -75 -65.5t-84 -18.5t-76 14.5t-63.5 42.5 t-43.5 68t-16 90q0 47 14.5 86.5t40.5 67.5t62.5 43.5t81.5 15.5q48 0 89 -19t70 -61v71zM121 532h270v-39h-270v39z"/>
<glyph glyph-name="Abreve" horiz-adv-x="586" unicode="Ă" d="M419 259l-125 316l-127 -316h252zM435 219h-284l-89 -219h-48l281 687l277 -687h-48zM206 826q4 -14 11 -21.5t13 -12.5q13 -10 31 -14t32 -4t32 4t31 14q6 5 13 12.5t11 21.5h40q-2 -11 -7.5 -26.5t-21.5 -31.5q-15 -15 -40 -25.5t-58 -10.5t-58 10.5t-40 25.5 q-16 16 -21.5 31.5t-7.5 26.5h40z"/>
<glyph glyph-name="abreve" horiz-adv-x="516" unicode="ă" d="M247 379q-30 0 -59 -11.5t-51 -33t-35.5 -53.5t-13.5 -74q0 -35 10.5 -67t31 -57.5t50 -40.5t68.5 -15q38 0 67.5 15t49.5 40t30.5 57.5t10.5 67.5q0 45 -15 77.5t-38.5 53.5t-51.5 31t-54 10zM404 408h40v-408h-40v73q-31 -47 -75 -65.5t-84 -18.5t-76 14.5t-63.5 42.5 t-43.5 68t-16 90q0 47 14.5 86.5t40.5 67.5t62.5 43.5t81.5 15.5q48 0 89 -19t70 -61v71zM170 573q2 -10 8 -19.5t17 -17.5q14 -11 29.5 -15t32.5 -4t32.5 4t29.5 15q11 8 17 17.5t8 19.5h38q-2 -12 -7.5 -27t-21.5 -31q-14 -14 -37 -25t-59 -11t-59 11t-37 25 q-16 16 -21.5 31t-7.5 27h38z"/>
<glyph glyph-name="Aogonek" horiz-adv-x="586" unicode="Ą" d="M419 259l-125 316l-127 -316h252zM435 219h-284l-89 -219h-48l281 687l277 -687q-14 -9 -26 -20t-20 -22q-10 -13 -16 -27t-6 -28q0 -20 14 -34.5t46 -14.5q8 0 20 1.5t32 7.5l-9 -37q-8 -3 -19 -5.5t-26 -2.5q-45 0 -72.5 23.5t-27.5 59.5q0 33 23 62q8 11 19.5 20 t23.5 17h-4z"/>
<glyph glyph-name="aogonek" horiz-adv-x="516" unicode="ą" d="M247 379q-30 0 -59 -11.5t-51 -33t-35.5 -53.5t-13.5 -74q0 -35 10.5 -67t31 -57.5t50 -40.5t68.5 -15q38 0 67.5 15t49.5 40t30.5 57.5t10.5 67.5q0 45 -15 77.5t-38.5 53.5t-51.5 31t-54 10zM404 408h40v-408q-14 -9 -26 -20t-20 -22q-10 -13 -16 -27t-6 -28 q0 -20 14 -34.5t46 -14.5q8 0 20 1.5t32 7.5l-9 -36q-8 -3 -19 -5.5t-26 -2.5q-26 0 -44 7.5t-29.5 19.5t-17 26.5t-5.5 28.5q0 33 23 62q8 11 19.5 20t23.5 17v73q-31 -47 -75 -65.5t-84 -18.5t-76 14.5t-63.5 42.5t-43.5 68t-16 90q0 47 14.5 86.5t40.5 67.5t62.5 43.5 t81.5 15.5q48 0 89 -19t70 -61v71z"/>
<glyph glyph-name="Cacute" horiz-adv-x="678" unicode="Ć" d="M624 531q-43 51 -101.5 78t-123.5 27q-64 0 -119 -24t-95 -65.5t-62.5 -97.5t-22.5 -119q0 -74 28 -130.5t71.5 -94.5t96.5 -57t104 -19q25 0 53.5 5.5t58 17.5t58 31t54.5 47v-58q-51 -45 -109.5 -64t-112.5 -19q-75 0 -139 27.5t-110.5 74.5t-72.5 109t-26 132 q0 72 27 134.5t74 109t110 73.5t135 27q48 0 86 -11t66 -25.5t46 -29t26 -21.5v-58zM496 829l-134 -126l-32 18l116 133z"/>
<glyph glyph-name="cacute" horiz-adv-x="442" unicode="ć" d="M399 312q-10 12 -24 23.5t-31.5 21.5t-39 16t-46.5 6q-38 0 -69 -13.5t-53.5 -37.5t-35 -56.5t-12.5 -69.5q0 -44 15 -77t39 -54.5t54 -32.5t60 -11q24 0 46 6.5t40.5 17t34 23.5t27.5 26v-54q-20 -18 -57.5 -37.5t-91.5 -19.5q-46 0 -84.5 16t-66 44.5t-43 67.5 t-15.5 84t14.5 84.5t42 69t67 46t88.5 16.5q22 0 60.5 -8.5t80.5 -43.5v-53zM348 595l-105 -128l-30 16l92 137z"/>
<glyph glyph-name="Ccircumflex" horiz-adv-x="678" unicode="Ĉ" d="M624 531q-43 51 -101.5 78t-123.5 27q-64 0 -119 -24t-95 -65.5t-62.5 -97.5t-22.5 -119q0 -74 28 -130.5t71.5 -94.5t96.5 -57t104 -19q25 0 53.5 5.5t58 17.5t58 31t54.5 47v-58q-51 -45 -109.5 -64t-112.5 -19q-75 0 -139 27.5t-110.5 74.5t-72.5 109t-26 132 q0 72 27 134.5t74 109t110 73.5t135 27q48 0 86 -11t66 -25.5t46 -29t26 -21.5v-58zM304 722l-34 27l130 90l130 -90l-34 -27l-96 64z"/>
<glyph glyph-name="ccircumflex" horiz-adv-x="442" unicode="ĉ" d="M399 312q-10 12 -24 23.5t-31.5 21.5t-39 16t-46.5 6q-38 0 -69 -13.5t-53.5 -37.5t-35 -56.5t-12.5 -69.5q0 -44 15 -77t39 -54.5t54 -32.5t60 -11q24 0 46 6.5t40.5 17t34 23.5t27.5 26v-54q-20 -18 -57.5 -37.5t-91.5 -19.5q-46 0 -84.5 16t-66 44.5t-43 67.5 t-15.5 84t14.5 84.5t42 69t67 46t88.5 16.5q22 0 60.5 -8.5t80.5 -43.5v-53zM170 467l-32 25l122 94l122 -94l-32 -25l-90 68z"/>
<glyph glyph-name="Cdotaccent" horiz-adv-x="678" unicode="Ċ" d="M624 531q-43 51 -101.5 78t-123.5 27q-64 0 -119 -24t-95 -65.5t-62.5 -97.5t-22.5 -119q0 -74 28 -130.5t71.5 -94.5t96.5 -57t104 -19q25 0 53.5 5.5t58 17.5t58 31t54.5 47v-58q-51 -45 -109.5 -64t-112.5 -19q-75 0 -139 27.5t-110.5 74.5t-72.5 109t-26 132 q0 72 27 134.5t74 109t110 73.5t135 27q48 0 86 -11t66 -25.5t46 -29t26 -21.5v-58zM361 781q0 18 11.5 29.5t29.5 11.5t29.5 -11.5t11.5 -29.5t-11.5 -29.5t-29.5 -11.5t-29.5 11.5t-11.5 29.5z"/>
<glyph glyph-name="cdotaccent" horiz-adv-x="442" unicode="ċ" d="M399 312q-10 12 -24 23.5t-31.5 21.5t-39 16t-46.5 6q-38 0 -69 -13.5t-53.5 -37.5t-35 -56.5t-12.5 -69.5q0 -44 15 -77t39 -54.5t54 -32.5t60 -11q24 0 46 6.5t40.5 17t34 23.5t27.5 26v-54q-20 -18 -57.5 -37.5t-91.5 -19.5q-46 0 -84.5 16t-66 44.5t-43 67.5 t-15.5 84t14.5 84.5t42 69t67 46t88.5 16.5q22 0 60.5 -8.5t80.5 -43.5v-53zM222 527q0 17 11 28t28 11t28 -11t11 -28t-11 -28t-28 -11t-28 11t-11 28z"/>
<glyph glyph-name="Ccaron" horiz-adv-x="678" unicode="Č" d="M624 531q-43 51 -101.5 78t-123.5 27q-64 0 -119 -24t-95 -65.5t-62.5 -97.5t-22.5 -119q0 -74 28 -130.5t71.5 -94.5t96.5 -57t104 -19q25 0 53.5 5.5t58 17.5t58 31t54.5 47v-58q-51 -45 -109.5 -64t-112.5 -19q-75 0 -139 27.5t-110.5 74.5t-72.5 109t-26 132 q0 72 27 134.5t74 109t110 73.5t135 27q48 0 86 -11t66 -25.5t46 -29t26 -21.5v-58zM496 839l34 -27l-130 -90l-130 90l34 27l96 -64z"/>
<glyph glyph-name="ccaron" horiz-adv-x="442" unicode="č" d="M399 312q-10 12 -24 23.5t-31.5 21.5t-39 16t-46.5 6q-38 0 -69 -13.5t-53.5 -37.5t-35 -56.5t-12.5 -69.5q0 -44 15 -77t39 -54.5t54 -32.5t60 -11q24 0 46 6.5t40.5 17t34 23.5t27.5 26v-54q-20 -18 -57.5 -37.5t-91.5 -19.5q-46 0 -84.5 16t-66 44.5t-43 67.5 t-15.5 84t14.5 84.5t42 69t67 46t88.5 16.5q22 0 60.5 -8.5t80.5 -43.5v-53zM350 585l32 -26l-122 -94l-122 94l32 26l90 -68z"/>
<glyph glyph-name="Dcaron" horiz-adv-x="618" unicode="Ď" d="M134 40h87q66 0 120.5 21.5t94 60t61 92.5t21.5 119q0 64 -22 118t-61 93t-93.5 61t-120.5 22h-87v-587zM90 0v667h132q22 0 51.5 -2.5t62 -12.5t66.5 -28.5t66 -49.5q27 -27 45 -57.5t29.5 -62t16.5 -63t5 -58.5t-5 -58t-16.5 -62.5t-29.5 -62t-45 -57.5 q-32 -32 -66 -50t-66.5 -28t-62 -12.5t-51.5 -2.5h-132zM327 839l34 -27l-130 -90l-130 90l34 27l96 -64z"/>
<glyph glyph-name="dcaron" horiz-adv-x="542" unicode="ď" d="M246 379q-32 0 -60.5 -11t-50 -32.5t-34.5 -53.5t-13 -75q0 -45 13.5 -78.5t36 -56t51 -34t59.5 -11.5q30 0 58.5 11.5t50.5 34t35.5 56t13.5 78.5q0 36 -11 67t-31.5 54.5t-50 37t-67.5 13.5zM404 729h40v-729h-40v73q-15 -24 -34.5 -40t-40.5 -25.5t-42.5 -14 t-40.5 -4.5q-39 0 -75 14t-63.5 41t-44.5 67.5t-17 94.5q0 56 17.5 96t45.5 65.5t64 37.5t73 12q56 0 95 -22.5t63 -57.5v392zM528 680l44 -14l-62 -156l-28 10z"/>
<glyph glyph-name="Dcroat" horiz-adv-x="618" unicode="Đ" d="M134 385h136v-40h-136v-305h87q66 0 120.5 21.5t94 60t61 92.5t21.5 119q0 64 -22 118t-61 93t-93.5 61t-120.5 22h-87v-242zM90 0v345h-90v40h90v282h132q22 0 51.5 -2.5t62 -12.5t66.5 -28.5t66 -49.5q27 -27 45 -57.5t29.5 -62t16.5 -63t5 -58.5t-5 -58t-16.5 -62.5 t-29.5 -62t-45 -57.5q-32 -32 -66 -50t-66.5 -28t-62 -12.5t-51.5 -2.5h-132z"/>
<glyph glyph-name="dcroat" horiz-adv-x="516" unicode="đ" d="M246 379q-32 0 -60.5 -11t-50 -32.5t-34.5 -53.5t-13 -75q0 -45 13.5 -78.5t36 -56t51 -34t59.5 -11.5q30 0 58.5 11.5t50.5 34t35.5 56t13.5 78.5q0 36 -11 67t-31.5 54.5t-50 37t-67.5 13.5zM404 562h-180v38h180v129h40v-129h72v-38h-72v-562h-40v73 q-15 -24 -34.5 -40t-40.5 -25.5t-42.5 -14t-40.5 -4.5q-39 0 -75 14t-63.5 41t-44.5 67.5t-17 94.5q0 56 17.5 96t45.5 65.5t64 37.5t73 12q56 0 95 -22.5t63 -57.5v225z"/>
<glyph glyph-name="Emacron" horiz-adv-x="464" unicode="Ē" d="M410 627h-276v-242h270v-40h-270v-305h276v-40h-320v667h320v-40zM115 794h270v-44h-270v44z"/>
<glyph glyph-name="emacron" horiz-adv-x="483" unicode="ē" d="M395 237q-4 30 -16.5 56t-32.5 45t-46 30t-56 11q-31 0 -57.5 -11t-46 -30.5t-32.5 -45t-17 -55.5h304zM88 199v-10q0 -33 11 -61q13 -32 36 -54.5t53 -34.5t62 -12q50 0 86 26t56 67l34 -20q-9 -17 -24 -36.5t-36.5 -36t-51 -27.5t-67.5 -11q-48 0 -85 16.5t-63 45.5 t-39.5 67.5t-13.5 83.5q0 53 17 93.5t44.5 67.5t63 40.5t73.5 13.5q41 0 77 -16t62 -45q27 -28 41 -68q14 -37 13 -83v-6h-349zM109 532h270v-39h-270v39z"/>
<glyph glyph-name="Edotaccent" horiz-adv-x="464" unicode="Ė" d="M410 627h-276v-242h270v-40h-270v-305h276v-40h-320v667h320v-40zM209 781q0 18 11.5 29.5t29.5 11.5t29.5 -11.5t11.5 -29.5t-11.5 -29.5t-29.5 -11.5t-29.5 11.5t-11.5 29.5z"/>
<glyph glyph-name="edotaccent" horiz-adv-x="483" unicode="ė" d="M395 237q-4 30 -16.5 56t-32.5 45t-46 30t-56 11q-31 0 -57.5 -11t-46 -30.5t-32.5 -45t-17 -55.5h304zM88 199v-10q0 -33 11 -61q13 -32 36 -54.5t53 -34.5t62 -12q50 0 86 26t56 67l34 -20q-9 -17 -24 -36.5t-36.5 -36t-51 -27.5t-67.5 -11q-48 0 -85 16.5t-63 45.5 t-39.5 67.5t-13.5 83.5q0 53 17 93.5t44.5 67.5t63 40.5t73.5 13.5q41 0 77 -16t62 -45q27 -28 41 -68q14 -37 13 -83v-6h-349zM205 527q0 17 11 28t28 11t28 -11t11 -28t-11 -28t-28 -11t-28 11t-11 28z"/>
<glyph glyph-name="Eogonek" horiz-adv-x="464" unicode="Ę" d="M410 627h-276v-242h270v-40h-270v-305h276v-40h-40q-11 -8 -23 -18t-22 -22t-16.5 -26t-6.5 -30q0 -11 3.5 -20.5t10.5 -15.5q11 -10 27 -12t22 -2q12 0 24 2t25 7l-9 -37q-12 -5 -23 -6.5t-22 -1.5q-19 0 -40 5t-38 23q-14 14 -18 29t-4 26q0 33 23 62q8 11 19.5 20 t23.5 17h-236v667h320v-40z"/>
<glyph glyph-name="eogonek" horiz-adv-x="485" unicode="ę" d="M393 237q-4 26 -16 54.5t-33 48.5q-20 20 -47 29.5t-53 9.5q-27 0 -54.5 -9.5t-50.5 -32.5q-17 -17 -30 -42.5t-18 -57.5h302zM88 199q0 -42 14.5 -74t32.5 -51q20 -21 50.5 -34t64.5 -13q23 0 46 7t42 20q17 12 31 30t23 36l34 -20q-19 -35 -47.5 -60t-61.5 -42 q-17 -8 -31.5 -18t-27.5 -25q-20 -23 -20 -52q0 -24 17 -37q11 -8 22 -10t21 -2q14 0 24 2t28 7l-9 -36q-8 -3 -19 -5.5t-26 -2.5q-29 0 -46.5 8.5t-26.5 17.5t-16 23.5t-7 32.5q0 15 4 27t12 24t16 20.5t18 16.5q-93 0 -147 56q-35 36 -46 77.5t-11 79.5q0 60 18.5 98 t41.5 61q25 24 61 40t77 16q37 0 72 -13t61 -38q3 -3 13 -14t21 -31.5t19.5 -50.5t8.5 -71h-351z"/>
<glyph glyph-name="Ecaron" horiz-adv-x="464" unicode="Ě" d="M410 627h-276v-242h270v-40h-270v-305h276v-40h-320v667h320v-40zM346 839l34 -27l-130 -90l-130 90l34 27l96 -64z"/>
<glyph glyph-name="ecaron" horiz-adv-x="483" unicode="ě" d="M395 237q-4 30 -16.5 56t-32.5 45t-46 30t-56 11q-31 0 -57.5 -11t-46 -30.5t-32.5 -45t-17 -55.5h304zM88 199v-10q0 -33 11 -61q13 -32 36 -54.5t53 -34.5t62 -12q50 0 86 26t56 67l34 -20q-9 -17 -24 -36.5t-36.5 -36t-51 -27.5t-67.5 -11q-48 0 -85 16.5t-63 45.5 t-39.5 67.5t-13.5 83.5q0 53 17 93.5t44.5 67.5t63 40.5t73.5 13.5q41 0 77 -16t62 -45q27 -28 41 -68q14 -37 13 -83v-6h-349zM334 585l32 -26l-122 -94l-122 94l32 26l90 -68z"/>
<glyph glyph-name="Gcircumflex" horiz-adv-x="772" unicode="Ĝ" d="M438 320h280q0 -23 -3 -50t-10.5 -56t-20.5 -58t-34 -55q-45 -57 -109.5 -84.5t-141.5 -27.5q-74 0 -137 25.5t-109 71.5t-72.5 108.5t-26.5 137.5q0 74 27 137t74 109t110.5 72t136.5 26q71 0 120.5 -21t88.5 -51q21 -17 40.5 -36t39.5 -48l-35 -28q-14 24 -32 43.5 t-32 30.5q-32 26 -80 48t-111 22q-64 0 -119 -24t-95.5 -65.5t-63.5 -97t-23 -119.5q0 -63 22.5 -117.5t62 -95.5t94 -64.5t119.5 -23.5q43 0 79.5 10t66 26t51 36t35.5 41q20 30 31 68t13 70h-236v40zM304 722l-34 27l130 90l130 -90l-34 -27l-96 64z"/>
<glyph glyph-name="gcircumflex" horiz-adv-x="520" unicode="ĝ" d="M248 379q-38 0 -67.5 -14.5t-50 -39t-31.5 -56.5t-11 -67q0 -37 11 -69t32 -55.5t50 -37t65 -13.5q38 0 68.5 14t51.5 38t32.5 56.5t11.5 70.5q0 36 -11.5 67.5t-32.5 55t-51 37t-67 13.5zM448 408v-396q0 -116 -54 -179t-151 -63q-40 0 -75.5 11.5t-62.5 33.5t-43.5 55 t-18.5 75h42q5 -64 49 -100.5t109 -36.5q60 0 93.5 26t49.5 60.5t19 68t3 49.5v58q-31 -43 -74 -62t-87 -19q-38 0 -74 13.5t-64 40.5t-45.5 67.5t-17.5 93.5q0 44 14 83t41 68t65 45.5t86 16.5q51 0 90.5 -21t65.5 -59v71h40zM160 467l-32 25l122 94l122 -94l-32 -25 l-90 68z"/>
<glyph glyph-name="Gbreve" horiz-adv-x="772" unicode="Ğ" d="M438 320h280q0 -23 -3 -50t-10.5 -56t-20.5 -58t-34 -55q-45 -57 -109.5 -84.5t-141.5 -27.5q-74 0 -137 25.5t-109 71.5t-72.5 108.5t-26.5 137.5q0 74 27 137t74 109t110.5 72t136.5 26q71 0 120.5 -21t88.5 -51q21 -17 40.5 -36t39.5 -48l-35 -28q-14 24 -32 43.5 t-32 30.5q-32 26 -80 48t-111 22q-64 0 -119 -24t-95.5 -65.5t-63.5 -97t-23 -119.5q0 -63 22.5 -117.5t62 -95.5t94 -64.5t119.5 -23.5q43 0 79.5 10t66 26t51 36t35.5 41q20 30 31 68t13 70h-236v40zM313 826q4 -14 11 -21.5t13 -12.5q13 -10 31 -14t32 -4t32 4t31 14 q6 5 13 12.5t11 21.5h40q-2 -11 -7.5 -26.5t-21.5 -31.5q-15 -15 -40 -25.5t-58 -10.5t-58 10.5t-40 25.5q-16 16 -21.5 31.5t-7.5 26.5h40z"/>
<glyph glyph-name="gbreve" horiz-adv-x="520" unicode="ğ" d="M248 379q-38 0 -67.5 -14.5t-50 -39t-31.5 -56.5t-11 -67q0 -37 11 -69t32 -55.5t50 -37t65 -13.5q38 0 68.5 14t51.5 38t32.5 56.5t11.5 70.5q0 36 -11.5 67.5t-32.5 55t-51 37t-67 13.5zM448 408v-396q0 -116 -54 -179t-151 -63q-40 0 -75.5 11.5t-62.5 33.5t-43.5 55 t-18.5 75h42q5 -64 49 -100.5t109 -36.5q60 0 93.5 26t49.5 60.5t19 68t3 49.5v58q-31 -43 -74 -62t-87 -19q-38 0 -74 13.5t-64 40.5t-45.5 67.5t-17.5 93.5q0 44 14 83t41 68t65 45.5t86 16.5q51 0 90.5 -21t65.5 -59v71h40zM163 573q2 -10 8 -19.5t17 -17.5 q14 -11 29.5 -15t32.5 -4t32.5 4t29.5 15q11 8 17 17.5t8 19.5h38q-2 -12 -7.5 -27t-21.5 -31q-14 -14 -37 -25t-59 -11t-59 11t-37 25q-16 16 -21.5 31t-7.5 27h38z"/>
<glyph glyph-name="Gdotaccent" horiz-adv-x="772" unicode="Ġ" d="M438 320h280q0 -23 -3 -50t-10.5 -56t-20.5 -58t-34 -55q-45 -57 -109.5 -84.5t-141.5 -27.5q-74 0 -137 25.5t-109 71.5t-72.5 108.5t-26.5 137.5q0 74 27 137t74 109t110.5 72t136.5 26q71 0 120.5 -21t88.5 -51q21 -17 40.5 -36t39.5 -48l-35 -28q-14 24 -32 43.5 t-32 30.5q-32 26 -80 48t-111 22q-64 0 -119 -24t-95.5 -65.5t-63.5 -97t-23 -119.5q0 -63 22.5 -117.5t62 -95.5t94 -64.5t119.5 -23.5q43 0 79.5 10t66 26t51 36t35.5 41q20 30 31 68t13 70h-236v40zM362 781q0 18 11.5 29.5t29.5 11.5t29.5 -11.5t11.5 -29.5t-11.5 -29.5 t-29.5 -11.5t-29.5 11.5t-11.5 29.5z"/>
<glyph glyph-name="gdotaccent" horiz-adv-x="520" unicode="ġ" d="M248 379q-38 0 -67.5 -14.5t-50 -39t-31.5 -56.5t-11 -67q0 -37 11 -69t32 -55.5t50 -37t65 -13.5q38 0 68.5 14t51.5 38t32.5 56.5t11.5 70.5q0 36 -11.5 67.5t-32.5 55t-51 37t-67 13.5zM448 408v-396q0 -116 -54 -179t-151 -63q-40 0 -75.5 11.5t-62.5 33.5t-43.5 55 t-18.5 75h42q5 -64 49 -100.5t109 -36.5q60 0 93.5 26t49.5 60.5t19 68t3 49.5v58q-31 -43 -74 -62t-87 -19q-38 0 -74 13.5t-64 40.5t-45.5 67.5t-17.5 93.5q0 44 14 83t41 68t65 45.5t86 16.5q51 0 90.5 -21t65.5 -59v71h40zM213 527q0 17 11 28t28 11t28 -11t11 -28 t-11 -28t-28 -11t-28 11t-11 28z"/>
<glyph glyph-name="Gcommaaccent" horiz-adv-x="772" unicode="Ģ" d="M438 320h280q0 -23 -3 -50t-10.5 -56t-20.5 -58t-34 -55q-45 -57 -109.5 -84.5t-141.5 -27.5q-74 0 -137 25.5t-109 71.5t-72.5 108.5t-26.5 137.5q0 74 27 137t74 109t110.5 72t136.5 26q71 0 120.5 -21t88.5 -51q21 -17 40.5 -36t39.5 -48l-35 -28q-14 24 -32 43.5 t-32 30.5q-32 26 -80 48t-111 22q-64 0 -119 -24t-95.5 -65.5t-63.5 -97t-23 -119.5q0 -63 22.5 -117.5t62 -95.5t94 -64.5t119.5 -23.5q43 0 79.5 10t66 26t51 36t35.5 41q20 30 31 68t13 70h-236v40zM375 -50l44 -14l-62 -136l-28 10z"/>
<glyph glyph-name="gcommaaccent" horiz-adv-x="520" unicode="ģ" d="M248 379q-38 0 -67.5 -14.5t-50 -39t-31.5 -56.5t-11 -67q0 -37 11 -69t32 -55.5t50 -37t65 -13.5q38 0 68.5 14t51.5 38t32.5 56.5t11.5 70.5q0 36 -11.5 67.5t-32.5 55t-51 37t-67 13.5zM448 408v-396q0 -116 -54 -179t-151 -63q-40 0 -75.5 11.5t-62.5 33.5t-43.5 55 t-18.5 75h42q5 -64 49 -100.5t109 -36.5q60 0 93.5 26t49.5 60.5t19 68t3 49.5v58q-31 -43 -74 -62t-87 -19q-38 0 -74 13.5t-64 40.5t-45.5 67.5t-17.5 93.5q0 44 14 83t41 68t65 45.5t86 16.5q51 0 90.5 -21t65.5 -59v71h40zM278.015 492.997l-43.9971 13.999 l61.9961 135.992l27.998 -10z"/>
<glyph glyph-name="Hcircumflex" horiz-adv-x="672" unicode="Ĥ" d="M134 384h404v283h44v-667h-44v344h-404v-344h-44v667h44v-283zM240 722l-34 27l130 90l130 -90l-34 -27l-96 64z"/>
<glyph glyph-name="hcircumflex" horiz-adv-x="442" unicode="ĥ" d="M72 729h40v-385q7 13 18 26t26 23.5t35 17t46 6.5q27 0 47 -7t33.5 -16.5t21.5 -19t11 -14.5q14 -22 17 -49t3 -54v-257h-40v257q0 21 -2.5 43t-13.5 39q-7 11 -25 25.5t-55 14.5q-42 0 -65.5 -18.5t-34.5 -38.5q-14 -24 -18 -52t-4 -58v-212h-40v729zM1 707l-32 25 l122 94l122 -94l-32 -25l-90 68z"/>
<glyph glyph-name="Hbar" horiz-adv-x="672" unicode="Ħ" d="M134 579v-195h404v195h-404zM134 613h404v54h44v-54h54v-34h-54v-579h-44v344h-404v-344h-44v579h-54v34h54v54h44v-54z"/>
<glyph glyph-name="hbar" horiz-adv-x="442" unicode="ħ" d="M72 562h-72v38h72v129h40v-129h180v-38h-180v-218q7 13 18 26t26 23.5t35 17t46 6.5q27 0 47 -7t33.5 -16.5t21.5 -19t11 -14.5q14 -22 17 -49t3 -54v-257h-40v257q0 21 -2.5 43t-13.5 39q-7 11 -25 25.5t-55 14.5q-42 0 -65.5 -18.5t-34.5 -38.5q-14 -24 -18 -52t-4 -58 v-212h-40v562z"/>
<glyph glyph-name="Imacron" horiz-adv-x="224" unicode="Ī" d="M10 794h204v-44h-204v44zM134 667v-667h-44v667h44z"/>
<glyph glyph-name="imacron" horiz-adv-x="184" unicode="ī" d="M12 532h160v-39h-160v39zM112 408v-408h-40v408h40z"/>
<glyph glyph-name="Iogonek" horiz-adv-x="224" unicode="Į" d="M134 667v-667q-14 -9 -26 -20t-20 -22q-10 -13 -16 -27t-6 -28q0 -20 14 -34.5t46 -14.5q8 0 20 1.5t32 7.5l-9 -37q-8 -3 -19 -5.5t-26 -2.5q-45 0 -72.5 23.5t-27.5 59.5q0 33 23 62q8 11 19.5 20t23.5 17v667h44z"/>
<glyph glyph-name="iogonek" horiz-adv-x="184" unicode="į" d="M92 507q-15 0 -25.5 10t-10.5 27t10.5 27t25.5 10t25.5 -10t10.5 -27t-10.5 -27t-25.5 -10zM112 408v-408q-14 -9 -26 -20t-20 -22q-10 -13 -16 -27t-6 -28q0 -20 14 -34.5t46 -14.5q8 0 20 1.5t32 7.5l-9 -36q-8 -3 -19 -5.5t-26 -2.5q-26 0 -44 7.5t-29.5 19.5 t-17 26.5t-5.5 28.5q0 33 23 62q8 11 19.5 20t23.5 17v408h40z"/>
<glyph glyph-name="Idotaccent" horiz-adv-x="224" unicode="İ" d="M134 667v-667h-44v667h44zM72 781q0 18 11.5 29.5t29.5 11.5t29.5 -11.5t11.5 -29.5t-11.5 -29.5t-29.5 -11.5t-29.5 11.5t-11.5 29.5z"/>
<glyph glyph-name="dotlessi" horiz-adv-x="184" unicode="ı" d="M112 408v-408h-40v408h40z"/>
<glyph glyph-name="Jcircumflex" horiz-adv-x="263" unicode="Ĵ" d="M173 667v-537q0 -12 -0.5 -26t-4 -28.5t-10 -29t-18.5 -26.5q-14 -14 -34.5 -22.5t-48.5 -8.5q-23 0 -40 6t-33 19t-25.5 26t-13.5 19l31 26q13 -25 31 -38q24 -18 52 -18q29 0 48 19q16 16 19 36t3 39v544h44zM55 722l-34 27l130 90l130 -90l-34 -27l-96 64z"/>
<glyph glyph-name="jcircumflex" horiz-adv-x="184" unicode="ĵ" d="M22 471l-30 26l100 86l100 -86l-30 -26l-70 60zM112 408v-638h-40v638h40z"/>
<glyph glyph-name="Kcommaaccent" horiz-adv-x="540" unicode="Ķ" d="M134 353l315 314h58l-323 -319l342 -348h-60l-314 318l-18 -17v-301h-44v667h44v-314zM259 -50l44 -14l-62 -136l-28 10z"/>
<glyph glyph-name="kcommaaccent" horiz-adv-x="396" unicode="ķ" d="M112 729v-496l168 175h52l-172 -177l228 -231h-54l-201 202l-21 -21v-181h-40v729h40zM187 -50l44 -14l-62 -136l-28 10z"/>
<glyph glyph-name="Lacute" horiz-adv-x="334" unicode="Ĺ" d="M134 667v-627h186v-40h-230v667h44zM284 829l-134 -126l-32 18l116 133z"/>
<glyph glyph-name="lacute" horiz-adv-x="184" unicode="ĺ" d="M112 729v-729h-40v729h40zM191 875l-105 -128l-30 16l92 137z"/>
<glyph glyph-name="Lcommaaccent" horiz-adv-x="334" unicode="Ļ" d="M134 667v-627h186v-40h-230v667h44zM200 -50l44 -14l-62 -136l-28 10z"/>
<glyph glyph-name="lcommaaccent" horiz-adv-x="184" unicode="ļ" d="M112 729v-729h-40v729h40zM81 -50l44 -14l-62 -136l-28 10z"/>
<glyph glyph-name="Lcaron" horiz-adv-x="334" unicode="Ľ" d="M134 667v-627h186v-40h-230v667h44zM278 680l44 -14l-62 -156l-28 10z"/>
<glyph glyph-name="lcaron" horiz-adv-x="210" unicode="ľ" d="M112 729v-729h-40v729h40zM197 680l44 -14l-62 -156l-28 10z"/>
<glyph glyph-name="Ldot" horiz-adv-x="334" unicode="Ŀ" d="M134 667v-627h186v-40h-230v667h44zM238 335q0 17 11 28t28 11t28 -11t11 -28t-11 -28t-28 -11t-28 11t-11 28z"/>
<glyph glyph-name="ldot" horiz-adv-x="272" unicode="ŀ" d="M112 729v-729h-40v729h40zM190 366q0 17 11 28t28 11t28 -11t11 -28t-11 -28t-28 -11t-28 11t-11 28z"/>
<glyph glyph-name="Lslash" horiz-adv-x="334" unicode="Ł" d="M134 667v-281l100 64v-44l-100 -64v-302h186v-40h-230v318l-90 -58v44l90 58v305h44z"/>
<glyph glyph-name="lslash" horiz-adv-x="184" unicode="ł" d="M112 729v-249l72 56v-44l-72 -56v-436h-40v412l-72 -56v44l72 56v273h40z"/>
<glyph glyph-name="Nacute" horiz-adv-x="784" unicode="Ń" d="M90 0v674l560 -586v579h44v-684l-560 586v-569h-44zM508 829l-134 -126l-32 18l116 133z"/>
<glyph glyph-name="nacute" horiz-adv-x="442" unicode="ń" d="M72 408h40v-64q7 13 18 26t26 23.5t35 17t46 6.5q27 0 47 -7t33.5 -16.5t21.5 -19t11 -14.5q14 -22 17 -49t3 -54v-257h-40v257q0 21 -2.5 43t-13.5 39q-7 11 -25 25.5t-55 14.5q-42 0 -65.5 -18.5t-34.5 -38.5q-14 -24 -18 -52t-4 -58v-212h-40v408zM320 595l-105 -128 l-30 16l92 137z"/>
<glyph glyph-name="Ncommaaccent" horiz-adv-x="784" unicode="Ņ" d="M90 0v674l560 -586v579h44v-684l-560 586v-569h-44zM381 -50l44 -14l-62 -136l-28 10z"/>
<glyph glyph-name="ncommaaccent" horiz-adv-x="442" unicode="ņ" d="M72 408h40v-64q7 13 18 26t26 23.5t35 17t46 6.5q27 0 47 -7t33.5 -16.5t21.5 -19t11 -14.5q14 -22 17 -49t3 -54v-257h-40v257q0 21 -2.5 43t-13.5 39q-7 11 -25 25.5t-55 14.5q-42 0 -65.5 -18.5t-34.5 -38.5q-14 -24 -18 -52t-4 -58v-212h-40v408zM210 -50l44 -14 l-62 -136l-28 10z"/>
<glyph glyph-name="Ncaron" horiz-adv-x="784" unicode="Ň" d="M90 0v674l560 -586v579h44v-684l-560 586v-569h-44zM488 839l34 -27l-130 -90l-130 90l34 27l96 -64z"/>
<glyph glyph-name="ncaron" horiz-adv-x="442" unicode="ň" d="M72 408h40v-64q7 13 18 26t26 23.5t35 17t46 6.5q27 0 47 -7t33.5 -16.5t21.5 -19t11 -14.5q14 -22 17 -49t3 -54v-257h-40v257q0 21 -2.5 43t-13.5 39q-7 11 -25 25.5t-55 14.5q-42 0 -65.5 -18.5t-34.5 -38.5q-14 -24 -18 -52t-4 -58v-212h-40v408zM331 585l32 -26 l-122 -94l-122 94l32 26l90 -68z"/>
<glyph glyph-name="Omacron" horiz-adv-x="800" unicode="Ō" d="M400 29q64 0 119 23.5t95.5 64.5t63 96t22.5 119t-22.5 119.5t-63 96.5t-95.5 64.5t-119 23.5q-65 0 -119.5 -23.5t-95 -64.5t-63 -96.5t-22.5 -119.5t22.5 -119t63 -96t95 -64.5t119.5 -23.5zM400 676q73 0 136.5 -27t110 -73.5t73 -109t26.5 -134.5t-26.5 -134.5 t-73 -109t-110 -73t-136.5 -26.5q-74 0 -137 26.5t-109.5 73t-73 109t-26.5 134.5t26.5 134.5t73 109t110 73.5t136.5 27zM265 794h270v-44h-270v44z"/>
<glyph glyph-name="omacron" horiz-adv-x="520" unicode="ō" d="M260 27q37 0 68.5 13.5t54.5 37.5t36 56t13 69t-13 69t-36 56t-54.5 37.5t-68.5 13.5t-68.5 -13.5t-54.5 -37.5t-36 -56t-13 -69t13 -69t36 -56t54.5 -37.5t68.5 -13.5zM260 417q45 0 84.5 -16.5t68 -45t45 -68t16.5 -84.5t-16.5 -84.5t-45 -68t-68 -45t-84.5 -16.5 t-84.5 16.5t-68 45t-45 68t-16.5 84.5t16.5 84.5t45 68t68 45t84.5 16.5zM125 532h270v-39h-270v39z"/>
<glyph glyph-name="Obreve" horiz-adv-x="800" unicode="Ŏ" d="M400 29q64 0 119 23.5t95.5 64.5t63 96t22.5 119t-22.5 119.5t-63 96.5t-95.5 64.5t-119 23.5q-65 0 -119.5 -23.5t-95 -64.5t-63 -96.5t-22.5 -119.5t22.5 -119t63 -96t95 -64.5t119.5 -23.5zM400 676q73 0 136.5 -27t110 -73.5t73 -109t26.5 -134.5t-26.5 -134.5 t-73 -109t-110 -73t-136.5 -26.5q-74 0 -137 26.5t-109.5 73t-73 109t-26.5 134.5t26.5 134.5t73 109t110 73.5t136.5 27zM313 826q4 -14 11 -21.5t13 -12.5q13 -10 31 -14t32 -4t32 4t31 14q6 5 13 12.5t11 21.5h40q-2 -11 -7.5 -26.5t-21.5 -31.5q-15 -15 -40 -25.5 t-58 -10.5t-58 10.5t-40 25.5q-16 16 -21.5 31.5t-7.5 26.5h40z"/>
<glyph glyph-name="obreve" horiz-adv-x="520" unicode="ŏ" d="M260 27q37 0 68.5 13.5t54.5 37.5t36 56t13 69t-13 69t-36 56t-54.5 37.5t-68.5 13.5t-68.5 -13.5t-54.5 -37.5t-36 -56t-13 -69t13 -69t36 -56t54.5 -37.5t68.5 -13.5zM260 417q45 0 84.5 -16.5t68 -45t45 -68t16.5 -84.5t-16.5 -84.5t-45 -68t-68 -45t-84.5 -16.5 t-84.5 16.5t-68 45t-45 68t-16.5 84.5t16.5 84.5t45 68t68 45t84.5 16.5zM173 573q2 -10 8 -19.5t17 -17.5q14 -11 29.5 -15t32.5 -4t32.5 4t29.5 15q11 8 17 17.5t8 19.5h38q-2 -12 -7.5 -27t-21.5 -31q-14 -14 -37 -25t-59 -11t-59 11t-37 25q-16 16 -21.5 31t-7.5 27h38z "/>
<glyph glyph-name="Ohungarumlaut" horiz-adv-x="800" unicode="Ő" d="M400 29q64 0 119 23.5t95.5 64.5t63 96t22.5 119t-22.5 119.5t-63 96.5t-95.5 64.5t-119 23.5q-65 0 -119.5 -23.5t-95 -64.5t-63 -96.5t-22.5 -119.5t22.5 -119t63 -96t95 -64.5t119.5 -23.5zM400 676q73 0 136.5 -27t110 -73.5t73 -109t26.5 -134.5t-26.5 -134.5 t-73 -109t-110 -73t-136.5 -26.5q-74 0 -137 26.5t-109.5 73t-73 109t-26.5 134.5t26.5 134.5t73 109t110 73.5t136.5 27zM563 828l-100 -125l-36 15l84 136zM442 828l-100 -125l-36 15l84 136z"/>
<glyph glyph-name="ohungarumlaut" horiz-adv-x="520" unicode="ő" d="M260 27q37 0 68.5 13.5t54.5 37.5t36 56t13 69t-13 69t-36 56t-54.5 37.5t-68.5 13.5t-68.5 -13.5t-54.5 -37.5t-36 -56t-13 -69t13 -69t36 -56t54.5 -37.5t68.5 -13.5zM260 417q45 0 84.5 -16.5t68 -45t45 -68t16.5 -84.5t-16.5 -84.5t-45 -68t-68 -45t-84.5 -16.5 t-84.5 16.5t-68 45t-45 68t-16.5 84.5t16.5 84.5t45 68t68 45t84.5 16.5zM412 595l-99 -128l-27 16l84 137zM301 595l-99 -128l-27 16l84 137z"/>
<glyph glyph-name="OE" horiz-adv-x="1072" unicode="Œ" d="M401 636q-63 0 -118 -24t-96 -65t-64.5 -96.5t-23.5 -118.5q0 -62 23.5 -117t64.5 -96.5t95.5 -65.5t116.5 -24q61 0 116 24t95.5 65.5t64.5 96.5t24 117q0 49 -19 102.5t-56.5 98.5t-93 74t-129.5 29zM1018 627h-275v-242h268v-40h-268v-305h275v-40h-319v171 q-45 -85 -123.5 -133.5t-174.5 -48.5q-71 0 -134.5 27t-111 74t-75 109t-27.5 133q0 72 27.5 134.5t74.5 109t110 73.5t135 27q97 0 175 -48t124 -135v174h319v-40z"/>
<glyph glyph-name="oe" horiz-adv-x="869" unicode="œ" d="M259 379q-36 0 -67.5 -13.5t-54.5 -37.5t-36 -56t-13 -69t13 -69t35.5 -56t54 -37.5t67.5 -13.5q37 0 68.5 13.5t55 36.5t37 55t13.5 68q0 38 -13.5 70.5t-36.5 56.5t-54.5 38t-68.5 14zM781 239q-9 66 -52 103t-100 37t-99.5 -36.5t-52.5 -103.5h304zM474 201 q0 -39 12.5 -71.5t34 -55t51 -35t63.5 -12.5q53 0 88.5 27.5t53.5 66.5l33 -20q-5 -10 -17 -28.5t-33.5 -37t-53 -32.5t-75.5 -14q-9 0 -31.5 2.5t-49.5 14t-54 36t-45 68.5q-21 -40 -43 -60q-23 -23 -61.5 -42t-87.5 -19q-44 0 -82.5 17t-67.5 46t-46 67.5t-17 82.5 q0 45 17 84t46 68t68 46t83 17q27 0 49.5 -5.5t40.5 -14t32 -18.5t24 -19q14 -12 24 -26t21 -37q22 57 69.5 88.5t107.5 31.5q42 0 78 -15.5t62.5 -44t40.5 -67t14 -83.5v-6h-349z"/>
<glyph glyph-name="Racute" horiz-adv-x="468" unicode="Ŕ" d="M134 355h64q72 0 112 35.5t40 100.5q0 25 -5.5 44.5t-14 33.5t-19 23.5t-20.5 14.5q-11 6 -24.5 10t-27.5 6t-27 3t-23 1h-55v-272zM370 0l-216 315h-20v-315h-44v667h96q38 0 73 -5.5t68 -28.5q39 -27 54 -65.5t15 -77.5q0 -25 -6 -49.5t-19 -46t-34.5 -39t-52.5 -27.5 q-26 -9 -48.5 -11t-33.5 -2l218 -315h-50zM351 829l-134 -126l-32 18l116 133z"/>
<glyph glyph-name="racute" horiz-adv-x="260" unicode="ŕ" d="M72 408h40v-53q11 26 34 44t56 18q8 0 20 -2t23 -8l-20 -36q-3 2 -9.5 5t-20.5 3q-31 0 -47.5 -18t-24.5 -43t-9.5 -52.5t-1.5 -46.5v-219h-40v408zM249 595l-105 -128l-30 16l92 137z"/>
<glyph glyph-name="Rcommaaccent" horiz-adv-x="468" unicode="Ŗ" d="M134 355h64q72 0 112 35.5t40 100.5q0 25 -5.5 44.5t-14 33.5t-19 23.5t-20.5 14.5q-11 6 -24.5 10t-27.5 6t-27 3t-23 1h-55v-272zM370 0l-216 315h-20v-315h-44v667h96q38 0 73 -5.5t68 -28.5q39 -27 54 -65.5t15 -77.5q0 -25 -6 -49.5t-19 -46t-34.5 -39t-52.5 -27.5 q-26 -9 -48.5 -11t-33.5 -2l218 -315h-50zM224 -50l44 -14l-62 -136l-28 10z"/>
<glyph glyph-name="rcommaaccent" horiz-adv-x="260" unicode="ŗ" d="M72 408h40v-53q11 26 34 44t56 18q8 0 20 -2t23 -8l-20 -36q-3 2 -9.5 5t-20.5 3q-31 0 -47.5 -18t-24.5 -43t-9.5 -52.5t-1.5 -46.5v-219h-40v408zM119 -50l44 -14l-62 -136l-28 10z"/>
<glyph glyph-name="Rcaron" horiz-adv-x="468" unicode="Ř" d="M134 355h64q72 0 112 35.5t40 100.5q0 25 -5.5 44.5t-14 33.5t-19 23.5t-20.5 14.5q-11 6 -24.5 10t-27.5 6t-27 3t-23 1h-55v-272zM370 0l-216 315h-20v-315h-44v667h96q38 0 73 -5.5t68 -28.5q39 -27 54 -65.5t15 -77.5q0 -25 -6 -49.5t-19 -46t-34.5 -39t-52.5 -27.5 q-26 -9 -48.5 -11t-33.5 -2l218 -315h-50zM307 839l34 -27l-130 -90l-130 90l34 27l96 -64z"/>
<glyph glyph-name="rcaron" horiz-adv-x="260" unicode="ř" d="M72 408h40v-53q11 26 34 44t56 18q8 0 20 -2t23 -8l-20 -36q-3 2 -9.5 5t-20.5 3q-31 0 -47.5 -18t-24.5 -43t-9.5 -52.5t-1.5 -46.5v-219h-40v408zM241 585l32 -26l-122 -94l-122 94l32 26l90 -68z"/>
<glyph glyph-name="Sacute" horiz-adv-x="514" unicode="Ś" d="M394 554q-15 30 -35 46.5t-39 24.5t-34.5 9.5t-22.5 1.5q-30 0 -53 -10t-38.5 -27t-24 -39.5t-8.5 -47.5q0 -27 9 -46t24.5 -33t37 -26t46.5 -24t44 -21t34.5 -17t28.5 -15.5t26 -16.5q11 -8 23.5 -18.5t23 -26t17.5 -36t7 -48.5q0 -42 -16.5 -77.5t-45 -62t-66 -41 t-80.5 -14.5q-32 0 -57 7t-43.5 17.5t-32 22.5t-22.5 23q-20 23 -29 41.5t-14 31.5l38 18q7 -20 17.5 -37.5t18.5 -26.5q23 -29 56.5 -43t68.5 -14q34 0 63 11.5t51 32.5t34.5 49t12.5 61q0 27 -13.5 54.5t-51.5 50.5q-29 17 -113 58q-25 12 -44 22t-33.5 20t-25 21 t-19.5 25q-11 19 -16 37.5t-5 38.5q0 29 10 58.5t31 53.5t53 39t77 15q51 0 93.5 -23.5t68.5 -71.5zM386 829l-134 -126l-32 18l116 133z"/>
<glyph glyph-name="sacute" horiz-adv-x="334" unicode="ś" d="M246 333q-11 24 -30 35t-41 11q-17 0 -30 -6t-21.5 -15.5t-13 -21t-4.5 -22.5q0 -30 21 -43.5t51 -25.5q31 -12 58 -23.5t47 -36.5q13 -16 17 -32.5t4 -33.5q0 -35 -12 -59.5t-31 -40.5t-42.5 -23t-47.5 -7q-51 0 -89.5 28.5t-51.5 79.5l39 12q11 -41 39.5 -61.5 t62.5 -20.5q39 0 65 25t26 65q0 17 -5.5 29.5t-17 22.5t-28.5 18.5t-40 17.5q-31 13 -53 24.5t-36 29.5q-7 9 -12.5 22t-5.5 31q0 47 31 76t78 29q36 0 64.5 -16.5t42.5 -49.5zM281 595l-105 -128l-30 16l92 137z"/>
<glyph glyph-name="Scircumflex" horiz-adv-x="514" unicode="Ŝ" d="M394 554q-15 30 -35 46.5t-39 24.5t-34.5 9.5t-22.5 1.5q-30 0 -53 -10t-38.5 -27t-24 -39.5t-8.5 -47.5q0 -27 9 -46t24.5 -33t37 -26t46.5 -24t44 -21t34.5 -17t28.5 -15.5t26 -16.5q11 -8 23.5 -18.5t23 -26t17.5 -36t7 -48.5q0 -42 -16.5 -77.5t-45 -62t-66 -41 t-80.5 -14.5q-32 0 -57 7t-43.5 17.5t-32 22.5t-22.5 23q-20 23 -29 41.5t-14 31.5l38 18q7 -20 17.5 -37.5t18.5 -26.5q23 -29 56.5 -43t68.5 -14q34 0 63 11.5t51 32.5t34.5 49t12.5 61q0 27 -13.5 54.5t-51.5 50.5q-29 17 -113 58q-25 12 -44 22t-33.5 20t-25 21 t-19.5 25q-11 19 -16 37.5t-5 38.5q0 29 10 58.5t31 53.5t53 39t77 15q51 0 93.5 -23.5t68.5 -71.5zM174 722l-34 27l130 90l130 -90l-34 -27l-96 64z"/>
<glyph glyph-name="scircumflex" horiz-adv-x="334" unicode="ŝ" d="M246 333q-11 24 -30 35t-41 11q-17 0 -30 -6t-21.5 -15.5t-13 -21t-4.5 -22.5q0 -30 21 -43.5t51 -25.5q31 -12 58 -23.5t47 -36.5q13 -16 17 -32.5t4 -33.5q0 -35 -12 -59.5t-31 -40.5t-42.5 -23t-47.5 -7q-51 0 -89.5 28.5t-51.5 79.5l39 12q11 -41 39.5 -61.5 t62.5 -20.5q39 0 65 25t26 65q0 17 -5.5 29.5t-17 22.5t-28.5 18.5t-40 17.5q-31 13 -53 24.5t-36 29.5q-7 9 -12.5 22t-5.5 31q0 47 31 76t78 29q36 0 64.5 -16.5t42.5 -49.5zM87 467l-32 25l122 94l122 -94l-32 -25l-90 68z"/>
<glyph glyph-name="Scedilla" horiz-adv-x="514" unicode="Ş" d="M394 554q-15 30 -35 46.5t-39 24.5t-34.5 9.5t-22.5 1.5q-30 0 -53 -10t-38.5 -27t-24 -39.5t-8.5 -47.5q0 -27 9 -46t24.5 -33t37 -26t46.5 -24t44 -21t34.5 -17t28.5 -15.5t26 -16.5q11 -8 23.5 -18.5t23 -26t17.5 -36t7 -48.5q0 -42 -16.5 -77.5t-45 -62t-66 -41 t-80.5 -14.5q-32 0 -57 7t-43.5 17.5t-32 22.5t-22.5 23q-20 23 -29 41.5t-14 31.5l38 18q7 -20 17.5 -37.5t18.5 -26.5q23 -29 56.5 -43t68.5 -14q34 0 63 11.5t51 32.5t34.5 49t12.5 61q0 27 -13.5 54.5t-51.5 50.5q-29 17 -113 58q-25 12 -44 22t-33.5 20t-25 21 t-19.5 25q-11 19 -16 37.5t-5 38.5q0 29 10 58.5t31 53.5t53 39t77 15q51 0 93.5 -23.5t68.5 -71.5zM297 -76l-108 -126l-30 18l92 134z"/>
<glyph glyph-name="scedilla" horiz-adv-x="334" unicode="ş" d="M246 333q-11 24 -30 35t-41 11q-17 0 -30 -6t-21.5 -15.5t-13 -21t-4.5 -22.5q0 -30 21 -43.5t51 -25.5q31 -12 58 -23.5t47 -36.5q13 -16 17 -32.5t4 -33.5q0 -35 -12 -59.5t-31 -40.5t-42.5 -23t-47.5 -7q-51 0 -89.5 28.5t-51.5 79.5l39 12q11 -41 39.5 -61.5 t62.5 -20.5q39 0 65 25t26 65q0 17 -5.5 29.5t-17 22.5t-28.5 18.5t-40 17.5q-31 13 -53 24.5t-36 29.5q-7 9 -12.5 22t-5.5 31q0 47 31 76t78 29q36 0 64.5 -16.5t42.5 -49.5zM217 -70l-100 -124l-28 16l82 128z"/>
<glyph glyph-name="Scaron" horiz-adv-x="514" unicode="Š" d="M394 554q-15 30 -35 46.5t-39 24.5t-34.5 9.5t-22.5 1.5q-30 0 -53 -10t-38.5 -27t-24 -39.5t-8.5 -47.5q0 -27 9 -46t24.5 -33t37 -26t46.5 -24t44 -21t34.5 -17t28.5 -15.5t26 -16.5q11 -8 23.5 -18.5t23 -26t17.5 -36t7 -48.5q0 -42 -16.5 -77.5t-45 -62t-66 -41 t-80.5 -14.5q-32 0 -57 7t-43.5 17.5t-32 22.5t-22.5 23q-20 23 -29 41.5t-14 31.5l38 18q7 -20 17.5 -37.5t18.5 -26.5q23 -29 56.5 -43t68.5 -14q34 0 63 11.5t51 32.5t34.5 49t12.5 61q0 27 -13.5 54.5t-51.5 50.5q-29 17 -113 58q-25 12 -44 22t-33.5 20t-25 21 t-19.5 25q-11 19 -16 37.5t-5 38.5q0 29 10 58.5t31 53.5t53 39t77 15q51 0 93.5 -23.5t68.5 -71.5zM358 839l34 -27l-130 -90l-130 90l34 27l96 -64z"/>
<glyph glyph-name="scaron" horiz-adv-x="334" unicode="š" d="M246 333q-11 24 -30 35t-41 11q-17 0 -30 -6t-21.5 -15.5t-13 -21t-4.5 -22.5q0 -30 21 -43.5t51 -25.5q31 -12 58 -23.5t47 -36.5q13 -16 17 -32.5t4 -33.5q0 -35 -12 -59.5t-31 -40.5t-42.5 -23t-47.5 -7q-51 0 -89.5 28.5t-51.5 79.5l39 12q11 -41 39.5 -61.5 t62.5 -20.5q39 0 65 25t26 65q0 17 -5.5 29.5t-17 22.5t-28.5 18.5t-40 17.5q-31 13 -53 24.5t-36 29.5q-7 9 -12.5 22t-5.5 31q0 47 31 76t78 29q36 0 64.5 -16.5t42.5 -49.5zM265 585l32 -26l-122 -94l-122 94l32 26l90 -68z"/>
<glyph glyph-name="Tcedilla" horiz-adv-x="418" unicode="Ţ" d="M231 627v-627h-44v627h-173v40h390v-40h-173zM257 -76l-108 -126l-30 18l92 134z"/>
<glyph glyph-name="tcedilla" horiz-adv-x="194" unicode="ţ" d="M115 370v-370h-40v370h-45v38h45v146h40v-146h71v-38h-71zM135 -70l-100 -124l-28 16l82 128z"/>
<glyph glyph-name="Tcaron" horiz-adv-x="418" unicode="Ť" d="M231 627v-627h-44v627h-173v40h390v-40h-173zM306 839l34 -27l-130 -90l-130 90l34 27l96 -64z"/>
<glyph glyph-name="tcaron" horiz-adv-x="206" unicode="ť" d="M115 370v-370h-40v370h-45v38h45v146h40v-146h71v-38h-71zM193 680l44 -14l-62 -156l-28 10z"/>
<glyph glyph-name="Utilde" horiz-adv-x="634" unicode="Ũ" d="M134 667v-417q0 -48 4.5 -81t23.5 -63q15 -24 35 -39t41 -23.5t42 -11.5t37 -3t37 3t42 11.5t41 23.5t35 39q19 30 23.5 63t4.5 81v417h44v-417q0 -27 -1 -50.5t-5 -44t-11.5 -39t-20.5 -37.5q-19 -27 -42.5 -44.5t-48.5 -27.5t-50.5 -14t-47.5 -4q-23 0 -48 4t-50 14 t-48.5 27.5t-42.5 44.5q-26 37 -32 76.5t-6 94.5v417h44zM187 739q4 8 10 19t13 19q9 10 20.5 16t24.5 6q14 0 29 -4.5t35 -12.5l32.5 -13t26.5 -5q9 0 14 3t11 9q11 13 15 26l29 -22q-4 -11 -11 -23t-17 -20q-12 -11 -24.5 -14t-21.5 -3q-12 0 -25 4.5t-33 12.5 q-14 6 -29 12t-29 6q-17 0 -28 -14q-3 -4 -7 -11.5t-6 -12.5z"/>
<glyph glyph-name="utilde" horiz-adv-x="438" unicode="ũ" d="M112 408v-246q0 -22 3.5 -50.5t22.5 -51.5t43 -28t38 -5t38 5t43 28t22.5 51.5t3.5 50.5v246h40v-257q0 -25 -5 -55t-26 -57q-23 -30 -56 -40t-60 -10t-60 10t-56 40q-21 27 -26 57t-5 55v257h40zM93 506q4 11 9.5 21t13.5 17q10 10 22 14.5t24 4.5q20 0 40 -8.5 t32 -13.5q14 -6 25 -9.5t22 -3.5q16 0 27 12q6 8 10 16t4 9l25 -20q-4 -11 -10.5 -21.5t-15.5 -18.5q-11 -9 -22.5 -13t-22.5 -4t-24.5 4.5t-33.5 12.5q-18 8 -31.5 13t-27.5 5q-17 0 -28 -12q-9 -10 -12 -24z"/>
<glyph glyph-name="Umacron" horiz-adv-x="634" unicode="Ū" d="M134 667v-417q0 -48 4.5 -81t23.5 -63q15 -24 35 -39t41 -23.5t42 -11.5t37 -3t37 3t42 11.5t41 23.5t35 39q19 30 23.5 63t4.5 81v417h44v-417q0 -27 -1 -50.5t-5 -44t-11.5 -39t-20.5 -37.5q-19 -27 -42.5 -44.5t-48.5 -27.5t-50.5 -14t-47.5 -4q-23 0 -48 4t-50 14 t-48.5 27.5t-42.5 44.5q-26 37 -32 76.5t-6 94.5v417h44zM182 794h270v-44h-270v44z"/>
<glyph glyph-name="umacron" horiz-adv-x="438" unicode="ū" d="M112 408v-246q0 -22 3.5 -50.5t22.5 -51.5t43 -28t38 -5t38 5t43 28t22.5 51.5t3.5 50.5v246h40v-257q0 -25 -5 -55t-26 -57q-23 -30 -56 -40t-60 -10t-60 10t-56 40q-21 27 -26 57t-5 55v257h40zM85 532h270v-39h-270v39z"/>
<glyph glyph-name="Ubreve" horiz-adv-x="634" unicode="Ŭ" d="M134 667v-417q0 -48 4.5 -81t23.5 -63q15 -24 35 -39t41 -23.5t42 -11.5t37 -3t37 3t42 11.5t41 23.5t35 39q19 30 23.5 63t4.5 81v417h44v-417q0 -27 -1 -50.5t-5 -44t-11.5 -39t-20.5 -37.5q-19 -27 -42.5 -44.5t-48.5 -27.5t-50.5 -14t-47.5 -4q-23 0 -48 4t-50 14 t-48.5 27.5t-42.5 44.5q-26 37 -32 76.5t-6 94.5v417h44zM230 826q4 -14 11 -21.5t13 -12.5q13 -10 31 -14t32 -4t32 4t31 14q6 5 13 12.5t11 21.5h40q-2 -11 -7.5 -26.5t-21.5 -31.5q-15 -15 -40 -25.5t-58 -10.5t-58 10.5t-40 25.5q-16 16 -21.5 31.5t-7.5 26.5h40z"/>
<glyph glyph-name="ubreve" horiz-adv-x="438" unicode="ŭ" d="M112 408v-246q0 -22 3.5 -50.5t22.5 -51.5t43 -28t38 -5t38 5t43 28t22.5 51.5t3.5 50.5v246h40v-257q0 -25 -5 -55t-26 -57q-23 -30 -56 -40t-60 -10t-60 10t-56 40q-21 27 -26 57t-5 55v257h40zM133 573q2 -10 8 -19.5t17 -17.5q14 -11 29.5 -15t32.5 -4t32.5 4 t29.5 15q11 8 17 17.5t8 19.5h38q-2 -12 -7.5 -27t-21.5 -31q-14 -14 -37 -25t-59 -11t-59 11t-37 25q-16 16 -21.5 31t-7.5 27h38z"/>
<glyph glyph-name="Uring" horiz-adv-x="634" unicode="Ů" d="M134 667v-417q0 -48 4.5 -81t23.5 -63q15 -24 35 -39t41 -23.5t42 -11.5t37 -3t37 3t42 11.5t41 23.5t35 39q19 30 23.5 63t4.5 81v417h44v-417q0 -27 -1 -50.5t-5 -44t-11.5 -39t-20.5 -37.5q-19 -27 -42.5 -44.5t-48.5 -27.5t-50.5 -14t-47.5 -4q-23 0 -48 4t-50 14 t-48.5 27.5t-42.5 44.5q-26 37 -32 76.5t-6 94.5v417h44zM276 787q0 -18 11.5 -29.5t29.5 -11.5t29.5 11.5t11.5 29.5t-11.5 29.5t-29.5 11.5t-29.5 -11.5t-11.5 -29.5zM237 787q0 33 23.5 56.5t56.5 23.5t56.5 -23.5t23.5 -56.5t-23.5 -56.5t-56.5 -23.5t-56.5 23.5 t-23.5 56.5z"/>
<glyph glyph-name="uring" horiz-adv-x="438" unicode="ů" d="M112 408v-246q0 -22 3.5 -50.5t22.5 -51.5t43 -28t38 -5t38 5t43 28t22.5 51.5t3.5 50.5v246h40v-257q0 -25 -5 -55t-26 -57q-23 -30 -56 -40t-60 -10t-60 10t-56 40q-21 27 -26 57t-5 55v257h40zM179 549q0 -18 11.5 -29.5t29.5 -11.5t29.5 11.5t11.5 29.5t-11.5 29.5 t-29.5 11.5t-29.5 -11.5t-11.5 -29.5zM143 549q0 33 22 55t55 22t55 -22t22 -55t-22 -55t-55 -22t-55 22t-22 55z"/>
<glyph glyph-name="Uhungarumlaut" horiz-adv-x="634" unicode="Ű" d="M134 667v-417q0 -48 4.5 -81t23.5 -63q15 -24 35 -39t41 -23.5t42 -11.5t37 -3t37 3t42 11.5t41 23.5t35 39q19 30 23.5 63t4.5 81v417h44v-417q0 -27 -1 -50.5t-5 -44t-11.5 -39t-20.5 -37.5q-19 -27 -42.5 -44.5t-48.5 -27.5t-50.5 -14t-47.5 -4q-23 0 -48 4t-50 14 t-48.5 27.5t-42.5 44.5q-26 37 -32 76.5t-6 94.5v417h44zM480 828l-100 -125l-36 15l84 136zM359 828l-100 -125l-36 15l84 136z"/>
<glyph glyph-name="uhungarumlaut" horiz-adv-x="438" unicode="ű" d="M112 408v-246q0 -22 3.5 -50.5t22.5 -51.5t43 -28t38 -5t38 5t43 28t22.5 51.5t3.5 50.5v246h40v-257q0 -25 -5 -55t-26 -57q-23 -30 -56 -40t-60 -10t-60 10t-56 40q-21 27 -26 57t-5 55v257h40zM372 595l-99 -128l-27 16l84 137zM261 595l-99 -128l-27 16l84 137z"/>
<glyph glyph-name="Uogonek" horiz-adv-x="634" unicode="Ų" d="M134 667v-427q0 -45 8 -87t42 -75q24 -23 59 -36t74 -13q44 0 78 14t57 37q18 18 27.5 39t14 43t5.5 44.5t1 43.5v417h44v-417q0 -27 -1 -50.5t-5 -44t-11.5 -39t-20.5 -37.5q-20 -29 -41.5 -44t-49.5 -31q-17 -9 -34 -19.5t-30 -25.5q-11 -12 -17 -27t-6 -29q0 -8 3 -17 t9 -16q5 -5 16 -10.5t32 -5.5q13 0 26 2t26 7l-9 -37q-11 -4 -21 -6t-24 -2q-18 0 -38.5 5t-38.5 22q-13 12 -18 26t-5 30q0 15 4.5 28t12.5 25q9 14 19 23t15 13q-57 0 -102.5 11.5t-83.5 49.5q-20 20 -32 41t-18.5 44.5t-8.5 49t-2 54.5v427h44z"/>
<glyph glyph-name="uogonek" horiz-adv-x="438" unicode="ų" d="M112 408v-246q0 -22 3.5 -50.5t22.5 -51.5t43 -28t38 -5t38 5t43 28t22.5 51.5t3.5 50.5v246h40v-257q0 -36 -6 -62.5t-25 -49.5q-14 -17 -26.5 -25t-27.5 -17q-14 -9 -27.5 -20t-23.5 -24q-19 -25 -19 -50q0 -9 2.5 -17.5t9.5 -15.5q11 -11 24.5 -13.5t23.5 -2.5 q26 0 52 9l-9 -36q-11 -4 -22 -6t-23 -2q-19 0 -38 5t-35 21q-11 11 -17 26t-6 30q0 17 5.5 31t13.5 25q13 19 31 32q-12 0 -27 1.5t-31.5 6.5t-32.5 15t-29 27q-20 26 -25.5 56t-5.5 56v257h40z"/>
<glyph glyph-name="Ydieresis" horiz-adv-x="516" unicode="Ÿ" d="M233 285l-219 382h50l192 -337l196 337h50l-225 -382v-285h-44v285zM313 780q0 16 11 27t27 11t27 -11t11 -27t-11 -27t-27 -11t-27 11t-11 27zM127 780q0 16 11 27t27 11t27 -11t11 -27t-11 -27t-27 -11t-27 11t-11 27z"/>
<glyph glyph-name="Zacute" horiz-adv-x="554" unicode="Ź" d="M111 40h395v-40h-469l406 627h-367v40h441zM406 829l-134 -126l-32 18l116 133z"/>
<glyph glyph-name="zacute" horiz-adv-x="452" unicode="ź" d="M104 38h328v-38h-414l334 370h-282v38h364zM339 595l-105 -128l-30 16l92 137z"/>
<glyph glyph-name="Zdotaccent" horiz-adv-x="554" unicode="Ż" d="M111 40h395v-40h-469l406 627h-367v40h441zM249 781q0 18 11.5 29.5t29.5 11.5t29.5 -11.5t11.5 -29.5t-11.5 -29.5t-29.5 -11.5t-29.5 11.5t-11.5 29.5z"/>
<glyph glyph-name="zdotaccent" horiz-adv-x="452" unicode="ż" d="M104 38h328v-38h-414l334 370h-282v38h364zM202 527q0 17 11 28t28 11t28 -11t11 -28t-11 -28t-28 -11t-28 11t-11 28z"/>
<glyph glyph-name="Zcaron" horiz-adv-x="554" unicode="Ž" d="M111 40h395v-40h-469l406 627h-367v40h441zM386 839l34 -27l-130 -90l-130 90l34 27l96 -64z"/>
<glyph glyph-name="zcaron" horiz-adv-x="452" unicode="ž" d="M104 38h328v-38h-414l334 370h-282v38h364zM331 585l32 -26l-122 -94l-122 94l32 26l90 -68z"/>
<glyph glyph-name="uni018F" horiz-adv-x="773" unicode="Ə" d="M100 280q2 -31 13 -70t30 -68q13 -21 35.5 -41t52 -36t66 -26t78.5 -10q60 0 110.5 20t88.5 54.5t62.5 80t32.5 96.5h-569zM673 320v10q-1 64 -23.5 119.5t-62.5 97t-95 65.5t-120 24q-63 0 -111.5 -22t-79.5 -48q-14 -11 -32 -30.5t-32 -43.5l-35 28q20 29 39.5 48 t40.5 36q39 30 88.5 51t120.5 21q73 0 136.5 -26t110.5 -72t74 -109t27 -137q0 -75 -26.5 -137.5t-72.5 -108.5t-109.5 -71.5t-136.5 -25.5q-23 0 -54 3.5t-65 15.5t-68.5 34t-63.5 59q-9 11 -20.5 29.5t-22.5 45.5t-18.5 62.5t-7.5 81.5h619z"/>
<glyph glyph-name="florin" horiz-adv-x="548" unicode="ƒ" d="M191 408h62l45 235q3 14 10 35t23 37q8 8 25 16.5t44 8.5q19 0 33 -4.5t25 -9.5l-8 -36q-13 7 -24 9.5t-22 2.5t-23 -2.5t-23 -12.5q-11 -11 -15.5 -25t-5.5 -19l-44 -235h101l-7 -38h-101l-72 -385q-9 -51 -20 -77.5t-25 -40.5q-11 -11 -29.5 -19t-44.5 -8 q-23 0 -40.5 4.5t-27.5 9.5l8 37q29 -13 56 -13q17 0 29 4.5t20 12.5q7 7 15 24t16 60l75 391h-62z"/>
<glyph glyph-name="uni01CF" horiz-adv-x="224" unicode="Ǐ" d="M192 839l35 -28l-115 -89l-115 89l35 28l80 -60zM134 667v-667h-44v667h44z"/>
<glyph glyph-name="uni01D0" horiz-adv-x="184" unicode="ǐ" d="M162 583l30 -26l-100 -86l-100 86l30 26l70 -60zM112 408v-408h-40v408h40z"/>
<glyph glyph-name="uni01DD" horiz-adv-x="483" unicode="ǝ" d="M88 169q4 -30 16.5 -56t32.5 -45t46 -30t56 -11q31 0 57.5 11t46 30.5t32.5 45t17 55.5h-304zM395 207q0 42 -13 74t-35.5 54t-52 33t-61.5 11q-50 0 -86 -26t-56 -67l-34 20q9 17 24 36.5t36.5 36t51 27.5t67.5 11q48 0 85 -16.5t63 -45.5t39.5 -67.5t13.5 -83.5 q0 -53 -17 -93.5t-44.5 -67.5t-63.5 -40.5t-73 -13.5q-41 0 -76.5 15t-61.5 43.5t-40.5 68.5t-14.5 91h349z"/>
<glyph glyph-name="Gcaron" horiz-adv-x="772" unicode="Ǧ" d="M438 320h280q0 -23 -3 -50t-10.5 -56t-20.5 -58t-34 -55q-45 -57 -109.5 -84.5t-141.5 -27.5q-74 0 -137 25.5t-109 71.5t-72.5 108.5t-26.5 137.5q0 74 27 137t74 109t110.5 72t136.5 26q71 0 120.5 -21t88.5 -51q21 -17 40.5 -36t39.5 -48l-35 -28q-14 24 -32 43.5 t-32 30.5q-32 26 -80 48t-111 22q-64 0 -119 -24t-95.5 -65.5t-63.5 -97t-23 -119.5q0 -63 22.5 -117.5t62 -95.5t94 -64.5t119.5 -23.5q43 0 79.5 10t66 26t51 36t35.5 41q20 30 31 68t13 70h-236v40zM482 839l34 -27l-130 -90l-130 90l34 27l96 -64z"/>
<glyph glyph-name="gcaron" horiz-adv-x="520" unicode="ǧ" d="M248 379q-38 0 -67.5 -14.5t-50 -39t-31.5 -56.5t-11 -67q0 -37 11 -69t32 -55.5t50 -37t65 -13.5q38 0 68.5 14t51.5 38t32.5 56.5t11.5 70.5q0 36 -11.5 67.5t-32.5 55t-51 37t-67 13.5zM448 408v-396q0 -116 -54 -179t-151 -63q-40 0 -75.5 11.5t-62.5 33.5t-43.5 55 t-18.5 75h42q5 -64 49 -100.5t109 -36.5q60 0 93.5 26t49.5 60.5t19 68t3 49.5v58q-31 -43 -74 -62t-87 -19q-38 0 -74 13.5t-64 40.5t-45.5 67.5t-17.5 93.5q0 44 14 83t41 68t65 45.5t86 16.5q51 0 90.5 -21t65.5 -59v71h40zM350 585l32 -26l-122 -94l-122 94l32 26 l90 -68z"/>
<glyph glyph-name="AEacute" horiz-adv-x="852" unicode="Ǽ" d="M417 259l-127 314l-125 -314h252zM434 219h-285l-87 -219h-48l269 667h289l17 -40h-275l99 -242h268l17 -40h-268l124 -305h273l18 -40h-279h-43zM542 829l-134 -126l-32 18l116 133z"/>
<glyph glyph-name="aeacute" horiz-adv-x="792" unicode="ǽ" d="M223 207q-69 0 -102.5 -27t-33.5 -64q0 -35 32 -62t98 -27q38 0 64 9t41.5 22.5t22.5 30t7 31.5q0 14 -6.5 29.5t-21.5 28t-39.5 21t-61.5 8.5zM705 236q-5 30 -18 56.5t-33 45.5t-46 30t-56 11t-55.5 -11t-45 -30.5t-32.5 -45.5t-17 -56h303zM397 198q1 -39 13 -70.5 t33 -54t50 -34.5t62 -12q28 0 51.5 8.5t41.5 22t31.5 29.5t22.5 32l34 -24q-28 -44 -73.5 -75t-108.5 -31q-60 0 -102.5 28t-65.5 74q-17 -52 -62 -77t-107 -25q-43 0 -75.5 11t-54 28.5t-32 40.5t-10.5 47q0 19 8 42t28.5 42t55 32t87.5 13q34 0 67 -7.5t64 -34.5 q1 10 1 19q0 24 -6 47q-8 32 -25.5 56.5t-45.5 39t-66 14.5t-75.5 -11.5t-63.5 -25.5v41q29 14 64.5 24t76.5 10q57 0 100 -28.5t63 -85.5q26 52 71.5 83t103.5 31q36 0 70.5 -13.5t61.5 -40.5t44 -68.5t18 -96.5h-350zM494 595l-105 -128l-30 16l92 137z"/>
<glyph glyph-name="Scommaaccent" horiz-adv-x="514" unicode="Ș" d="M394 554q-15 30 -35 46.5t-39 24.5t-34.5 9.5t-22.5 1.5q-30 0 -53 -10t-38.5 -27t-24 -39.5t-8.5 -47.5q0 -27 9 -46t24.5 -33t37 -26t46.5 -24t44 -21t34.5 -17t28.5 -15.5t26 -16.5q11 -8 23.5 -18.5t23 -26t17.5 -36t7 -48.5q0 -42 -16.5 -77.5t-45 -62t-66 -41 t-80.5 -14.5q-32 0 -57 7t-43.5 17.5t-32 22.5t-22.5 23q-20 23 -29 41.5t-14 31.5l38 18q7 -20 17.5 -37.5t18.5 -26.5q23 -29 56.5 -43t68.5 -14q34 0 63 11.5t51 32.5t34.5 49t12.5 61q0 27 -13.5 54.5t-51.5 50.5q-29 17 -113 58q-25 12 -44 22t-33.5 20t-25 21 t-19.5 25q-11 19 -16 37.5t-5 38.5q0 29 10 58.5t31 53.5t53 39t77 15q51 0 93.5 -23.5t68.5 -71.5zM239 -50l44 -14l-62 -136l-28 10z"/>
<glyph glyph-name="scommaaccent" horiz-adv-x="334" unicode="ș" d="M246 333q-11 24 -30 35t-41 11q-17 0 -30 -6t-21.5 -15.5t-13 -21t-4.5 -22.5q0 -30 21 -43.5t51 -25.5q31 -12 58 -23.5t47 -36.5q13 -16 17 -32.5t4 -33.5q0 -35 -12 -59.5t-31 -40.5t-42.5 -23t-47.5 -7q-51 0 -89.5 28.5t-51.5 79.5l39 12q11 -41 39.5 -61.5 t62.5 -20.5q39 0 65 25t26 65q0 17 -5.5 29.5t-17 22.5t-28.5 18.5t-40 17.5q-31 13 -53 24.5t-36 29.5q-7 9 -12.5 22t-5.5 31q0 47 31 76t78 29q36 0 64.5 -16.5t42.5 -49.5zM151 -50l44 -14l-62 -136l-28 10z"/>
<glyph glyph-name="Tcommaaccent" horiz-adv-x="418" unicode="Ț" d="M231 627v-627h-44v627h-173v40h390v-40h-173zM200 -50l44 -14l-62 -136l-28 10z"/>
<glyph glyph-name="tcommaaccent" horiz-adv-x="194" unicode="ț" d="M115 370v-370h-40v370h-45v38h45v146h40v-146h71v-38h-71zM89 -50l44 -14l-62 -136l-28 10z"/>
<glyph glyph-name="uni0228" horiz-adv-x="464" unicode="Ȩ" d="M410 627h-276v-242h270v-40h-270v-305h276v-40h-320v667h320v-40zM299 -76l-108 -126l-30 18l92 134z"/>
<glyph glyph-name="uni0229" horiz-adv-x="483" unicode="ȩ" d="M395 237q-4 30 -16.5 56t-32.5 45t-46 30t-56 11q-31 0 -57.5 -11t-46 -30.5t-32.5 -45t-17 -55.5h304zM88 199v-10q0 -33 11 -61q13 -32 36 -54.5t53 -34.5t62 -12q50 0 86 26t56 67l34 -20q-9 -17 -24 -36.5t-36.5 -36t-51 -27.5t-67.5 -11q-48 0 -85 16.5t-63 45.5 t-39.5 67.5t-13.5 83.5q0 53 17 93.5t44.5 67.5t63 40.5t73.5 13.5q41 0 77 -16t62 -45q27 -28 41 -68q14 -37 13 -83v-6h-349zM306 -70l-100 -124l-28 16l82 128z"/>
<glyph glyph-name="uni0237" horiz-adv-x="184" unicode="ȷ" d="M112 408v-638h-40v638h40z"/>
<glyph glyph-name="uni0259" horiz-adv-x="483" unicode="ə" d="M88 169q4 -30 16.5 -56t32.5 -45t46 -30t56 -11q31 0 57.5 11t46 30.5t32.5 45t17 55.5h-304zM395 207q0 42 -13 74t-35.5 54t-52 33t-61.5 11q-50 0 -86 -26t-56 -67l-34 20q9 17 24 36.5t36.5 36t51 27.5t67.5 11q48 0 85 -16.5t63 -45.5t39.5 -67.5t13.5 -83.5 q0 -53 -17 -93.5t-44.5 -67.5t-63.5 -40.5t-73 -13.5q-41 0 -76.5 15t-61.5 43.5t-40.5 68.5t-14.5 91h349z"/>
<glyph glyph-name="afii57929" d="M238 680l44 -14l-62 -156l-28 10z" unicode="ʼ"/>
<glyph glyph-name="circumflex" d="M160 467l-32 25l122 94l122 -94l-32 -25l-90 68z" unicode="ˆ"/>
<glyph glyph-name="caron" d="M340 585l32 -26l-122 -94l-122 94l32 26l90 -68z" unicode="ˇ"/>
<glyph glyph-name="uni02C9" d="M115 532h270v-39h-270v39z" unicode="ˉ"/>
<glyph glyph-name="breve" d="M163 573q2 -10 8 -19.5t17 -17.5q14 -11 29.5 -15t32.5 -4t32.5 4t29.5 15q11 8 17 17.5t8 19.5h38q-2 -12 -7.5 -27t-21.5 -31q-14 -14 -37 -25t-59 -11t-59 11t-37 25q-16 16 -21.5 31t-7.5 27h38z" unicode="˘"/>
<glyph glyph-name="dotaccent" d="M211 527q0 17 11 28t28 11t28 -11t11 -28t-11 -28t-28 -11t-28 11t-11 28z" unicode="˙"/>
<glyph glyph-name="ring" d="M209 549q0 -18 11.5 -29.5t29.5 -11.5t29.5 11.5t11.5 29.5t-11.5 29.5t-29.5 11.5t-29.5 -11.5t-11.5 -29.5zM173 549q0 33 22 55t55 22t55 -22t22 -55t-22 -55t-55 -22t-55 22t-22 55z" unicode="˚"/>
<glyph glyph-name="ogonek" d="M349 -173q-8 -3 -19 -5.5t-26 -2.5q-26 0 -44 7.5t-29.5 19.5t-17 26.5t-5.5 28.5q0 33 23 62q8 11 19.5 20t23.5 17h40q-14 -9 -26 -20t-20 -22q-10 -13 -16 -27t-6 -28q0 -20 14 -34.5t46 -14.5q8 0 20 1.5t32 7.5z" unicode="˛"/>
<glyph glyph-name="tilde" d="M123 506q4 11 9.5 21t13.5 17q10 10 22 14.5t24 4.5q20 0 40 -8.5t32 -13.5q14 -6 25 -9.5t22 -3.5q16 0 27 12q6 8 10 16t4 9l25 -20q-4 -11 -10.5 -21.5t-15.5 -18.5q-11 -9 -22.5 -13t-22.5 -4t-24.5 4.5t-33.5 12.5q-18 8 -31.5 13t-27.5 5q-17 0 -28 -12 q-9 -10 -12 -24z" unicode="˜"/>
<glyph glyph-name="hungarumlaut" d="M402 595l-99 -128l-27 16l84 137zM291 595l-99 -128l-27 16l84 137z" unicode="˝"/>
<glyph glyph-name="acutecomb" horiz-adv-x="2" unicode="́" d="M-130 595l-105 -128l-30 16l92 137z"/>
<glyph glyph-name="uni0394" horiz-adv-x="628" unicode="Δ" d="M80 40h468l-234 563zM14 0l280 667h40l280 -667h-600z"/>
<glyph glyph-name="uni0394" horiz-adv-x="628" unicode="∆" d="M80 40h468l-234 563zM14 0l280 667h40l280 -667h-600z"/>
<glyph glyph-name="uni03A9" horiz-adv-x="666" unicode="Ω" d="M232 40q-34 17 -62 40t-54 52q-88 101 -88 222q0 60 22 122t69 111q15 15 35 31t46.5 29t59.5 21t73 8q72 0 125 -25.5t89 -63.5q38 -39 64.5 -97t26.5 -133q0 -60 -20.5 -115.5t-67.5 -109.5q-26 -29 -54 -52t-62 -40h204v-40h-256v44q16 9 34.5 20.5t36.5 25.5t35.5 30 t31.5 33q33 40 52.5 90t19.5 108q0 68 -23 121t-56 87q-36 37 -83 57t-97 20q-47 0 -94.5 -18.5t-85.5 -58.5q-41 -43 -60 -99t-19 -110q0 -57 19.5 -107t52.5 -90q28 -35 67 -63.5t71 -45.5v-44h-256v40h204z"/>
<glyph glyph-name="uni03A9" horiz-adv-x="666" unicode="Ω" d="M232 40q-34 17 -62 40t-54 52q-88 101 -88 222q0 60 22 122t69 111q15 15 35 31t46.5 29t59.5 21t73 8q72 0 125 -25.5t89 -63.5q38 -39 64.5 -97t26.5 -133q0 -60 -20.5 -115.5t-67.5 -109.5q-26 -29 -54 -52t-62 -40h204v-40h-256v44q16 9 34.5 20.5t36.5 25.5t35.5 30 t31.5 33q33 40 52.5 90t19.5 108q0 68 -23 121t-56 87q-36 37 -83 57t-97 20q-47 0 -94.5 -18.5t-85.5 -58.5q-41 -43 -60 -99t-19 -110q0 -57 19.5 -107t52.5 -90q28 -35 67 -63.5t71 -45.5v-44h-256v40h204z"/>
<glyph glyph-name="pi" horiz-adv-x="492" unicode="π" d="M94 0v370h-72v38h448v-38h-72v-370h-40v370h-224v-370h-40z"/>
<glyph glyph-name="afii10023" horiz-adv-x="464" unicode="Ё" d="M410 627h-276v-242h270v-40h-270v-305h276v-40h-320v667h320v-40zM305 780q0 16 11 27t27 11t27 -11t11 -27t-11 -27t-27 -11t-27 11t-11 27zM119 780q0 16 11 27t27 11t27 -11t11 -27t-11 -27t-27 -11t-27 11t-11 27z"/>
<glyph glyph-name="afii10051" horiz-adv-x="616" unicode="Ђ" d="M224 627v-262q14 5 51.5 14t85.5 9q36 0 63 -5.5t47.5 -14.5t34 -20t22.5 -21q4 -5 11.5 -15.5t14 -27t11.5 -39t5 -51.5q0 -57 -19 -98.5t-48 -64.5q-26 -20 -60 -28.5t-67 -8.5q-16 0 -35 2t-33 4v40q17 -4 32 -5t31 -1q30 0 57 6t50 27q15 14 30.5 43t15.5 82 q0 42 -11 67.5t-22 39.5q-22 26 -54 37.5t-73 11.5q-33 0 -70.5 -6t-69.5 -17v-325h-44v627h-166v40h410v-40h-200z"/>
<glyph glyph-name="afii10052" horiz-adv-x="400" unicode="Ѓ" d="M90 667h296v-40h-252v-627h-44v667zM366 829l-134 -126l-32 18l116 133z"/>
<glyph glyph-name="afii10053" horiz-adv-x="678" unicode="Є" d="M624 531q-43 51 -101.5 78t-123.5 27q-57 0 -108.5 -20.5t-91.5 -56.5t-65.5 -86t-31.5 -109h442v-40h-444q1 -71 28.5 -125.5t70.5 -92.5t95.5 -57.5t105.5 -19.5q25 0 53.5 5.5t58 17.5t58 31t54.5 47v-58q-51 -45 -109.5 -64t-112.5 -19q-75 0 -139 27.5t-110.5 74.5 t-72.5 109t-26 132q0 72 27 134.5t74 109t110 73.5t135 27q48 0 86 -11t66 -25.5t46 -29t26 -21.5v-58z"/>
<glyph glyph-name="afii10054" horiz-adv-x="514" unicode="Ѕ" d="M394 554q-15 30 -35 46.5t-39 24.5t-34.5 9.5t-22.5 1.5q-30 0 -53 -10t-38.5 -27t-24 -39.5t-8.5 -47.5q0 -27 9 -46t24.5 -33t37 -26t46.5 -24t44 -21t34.5 -17t28.5 -15.5t26 -16.5q11 -8 23.5 -18.5t23 -26t17.5 -36t7 -48.5q0 -42 -16.5 -77.5t-45 -62t-66 -41 t-80.5 -14.5q-32 0 -57 7t-43.5 17.5t-32 22.5t-22.5 23q-20 23 -29 41.5t-14 31.5l38 18q7 -20 17.5 -37.5t18.5 -26.5q23 -29 56.5 -43t68.5 -14q34 0 63 11.5t51 32.5t34.5 49t12.5 61q0 27 -13.5 54.5t-51.5 50.5q-29 17 -113 58q-25 12 -44 22t-33.5 20t-25 21 t-19.5 25q-11 19 -16 37.5t-5 38.5q0 29 10 58.5t31 53.5t53 39t77 15q51 0 93.5 -23.5t68.5 -71.5z"/>
<glyph glyph-name="afii10055" horiz-adv-x="224" unicode="І" d="M134 667v-667h-44v667h44z"/>
<glyph glyph-name="afii10056" horiz-adv-x="224" unicode="Ї" d="M138 780q0 16 11 27t27 11t27 -11t11 -27t-11 -27t-27 -11t-27 11t-11 27zM10 780q0 16 11 27t27 11t27 -11t11 -27t-11 -27t-27 -11t-27 11t-11 27zM134 667v-667h-44v667h44z"/>
<glyph glyph-name="afii10057" horiz-adv-x="263" unicode="Ј" d="M173 667v-537q0 -12 -0.5 -26t-4 -28.5t-10 -29t-18.5 -26.5q-14 -14 -34.5 -22.5t-48.5 -8.5q-23 0 -40 6t-33 19t-25.5 26t-13.5 19l31 26q13 -25 31 -38q24 -18 52 -18q29 0 48 19q16 16 19 36t3 39v544h44z"/>
<glyph glyph-name="afii10058" horiz-adv-x="922" unicode="Љ" d="M530 40h112q15 0 33 0.5t37.5 5t39 13t36.5 25.5q17 16 29.5 43.5t12.5 69.5q0 38 -14 70t-55 53q-29 15 -61.5 17.5t-65.5 2.5h-104v-300zM530 667v-287h116q30 0 70 -5t75.5 -24t60 -55t24.5 -99q0 -38 -12 -73t-37.5 -63t-67 -44.5t-99.5 -16.5h-174v627h-288v-388 q0 -28 -0.5 -56t-5 -55t-14 -51t-27.5 -43q-15 -17 -40 -28.5t-57 -11.5q-9 0 -20 2t-20 4v40q8 -2 17 -4t20 -2q23 0 39 8t26 18q15 15 22.5 35t11 43.5t4 49t0.5 51.5v428h376z"/>
<glyph glyph-name="afii10059" horiz-adv-x="974" unicode="Њ" d="M582 40h112q15 0 33 0.5t37.5 5t39 13t36.5 25.5q17 16 29.5 43.5t12.5 69.5q0 38 -14 70t-55 53q-29 15 -61.5 17.5t-65.5 2.5h-104v-300zM134 380h404v287h44v-287h116q30 0 70 -5t75.5 -24t60 -55t24.5 -99q0 -38 -12 -73t-37.5 -63t-67 -44.5t-99.5 -16.5h-174v340 h-404v-340h-44v667h44v-287z"/>
<glyph glyph-name="afii10060" horiz-adv-x="670" unicode="Ћ" d="M224 627v-243h170q41 0 74.5 -4t61.5 -18q24 -12 37.5 -27t21 -33.5t9.5 -40.5t2 -48v-213h-44v213q0 14 -0.5 30t-5.5 32t-16 30t-32 24q-19 9 -46.5 12t-75.5 3h-156v-344h-44v627h-166v40h410v-40h-200z"/>
<glyph glyph-name="afii10061" horiz-adv-x="540" unicode="Ќ" d="M134 353l315 314h58l-323 -319l342 -348h-60l-314 318l-18 -17v-301h-44v667h44v-314zM386 829l-134 -126l-32 18l116 133z"/>
<glyph glyph-name="afii10062" horiz-adv-x="550" unicode="Ў" d="M64 667l231 -432l195 432h46l-305 -667h-46l85 186l-256 481h50zM180 822q10 -22 24.5 -35t29.5 -19.5t28.5 -8t22.5 -1.5t22.5 1.5t28.5 8t29.5 19.5t24.5 35l35 -19q-12 -26 -29 -42.5t-36.5 -26t-39 -13t-35.5 -3.5t-35.5 3.5t-39 13t-36.5 26t-29 42.5z"/>
<glyph glyph-name="afii10145" horiz-adv-x="666" unicode="Џ" d="M90 667h44v-627h398v627h44v-667h-221v-150h-44v150h-221v667z"/>
<glyph glyph-name="afii10017" horiz-adv-x="586" unicode="А" d="M419 259l-125 316l-127 -316h252zM435 219h-284l-89 -219h-48l281 687l277 -687h-48z"/>
<glyph glyph-name="afii10018" horiz-adv-x="534" unicode="Б" d="M134 40h112q15 0 33 0.5t37.5 5t39 13t36.5 25.5q17 16 29.5 43.5t12.5 69.5q0 38 -14 70t-55 53q-30 15 -63 17.5t-64 2.5h-104v-300zM90 667h321v-40h-277v-247h116q30 0 70 -5t75.5 -24t60 -55t24.5 -99q0 -38 -12 -73t-37.5 -63t-67 -44.5t-99.5 -16.5h-174v667z"/>
<glyph glyph-name="afii10019" horiz-adv-x="534" unicode="В" d="M134 40h112q34 0 72.5 5t72.5 35q27 24 35 51.5t8 50.5q0 45 -16.5 76t-54.5 48q-14 6 -41.5 12.5t-83.5 6.5h-104v-285zM134 365h106q26 0 47.5 5t43.5 23q20 17 32 42t12 60q0 40 -14 65t-31 39q-25 20 -55 24t-56 4h-85v-262zM90 667h146q88 0 136 -46t48 -121 q0 -54 -22.5 -90t-55.5 -56q66 -11 102 -56.5t36 -110.5q0 -44 -15.5 -78.5t-43 -58.5t-65.5 -37t-83 -13h-183v667z"/>
<glyph glyph-name="afii10020" horiz-adv-x="400" unicode="Г" d="M90 667h296v-40h-252v-627h-44v667z"/>
<glyph glyph-name="afii10021" horiz-adv-x="610" unicode="Д" d="M188 305q0 -69 -6 -111.5t-18 -74.5q-9 -24 -21.5 -43t-29.5 -36h363v587h-288v-322zM520 667v-627h76v-174h-42v134h-498v-134h-42v174q36 0 63.5 26t42.5 64q10 25 17 65.5t7 109.5v362h376z"/>
<glyph glyph-name="afii10022" horiz-adv-x="464" unicode="Е" d="M410 627h-276v-242h270v-40h-270v-305h276v-40h-320v667h320v-40z"/>
<glyph glyph-name="afii10024" horiz-adv-x="796" unicode="Ж" d="M420 667v-314l282 314h58l-296 -323l318 -344h-58l-291 314l-13 -13v-301h-44v301l-13 13l-291 -314h-58l318 344l-296 323h58l282 -314v314h44z"/>
<glyph glyph-name="afii10025" horiz-adv-x="554" unicode="З" d="M104 581q23 38 66.5 66.5t114.5 28.5q26 0 59 -7.5t62 -35.5q20 -19 34 -48t14 -72q0 -54 -25.5 -90t-62.5 -56q66 -17 100 -65t34 -111q0 -60 -24 -100t-52 -60q-21 -15 -44 -23.5t-44 -12.5t-36.5 -5t-20.5 -1q-45 0 -81 12t-64 31.5t-48 45t-32 52.5l42 20 q13 -32 35 -55t47.5 -37.5t52.5 -21.5t51 -7q29 0 61.5 9.5t53.5 25.5q9 6 19 16.5t18.5 26t14 36.5t5.5 48q0 70 -47 109t-131 39h-60v40h60q25 0 48.5 9t42 26t30 42t11.5 57q0 22 -6.5 44t-24.5 42q-20 21 -44.5 29t-52.5 8q-37 0 -75 -17t-69 -65z"/>
<glyph glyph-name="afii10026" horiz-adv-x="700" unicode="И" d="M566 556l-476 -573v684h44v-566l476 573v-674h-44v556z"/>
<glyph glyph-name="afii10027" horiz-adv-x="700" unicode="Й" d="M566 556l-476 -573v684h44v-566l476 573v-674h-44v556zM245 822q10 -22 24.5 -35t29.5 -19.5t28.5 -8t22.5 -1.5t22.5 1.5t28.5 8t29.5 19.5t24.5 35l35 -19q-12 -26 -29 -42.5t-36.5 -26t-39 -13t-35.5 -3.5t-35.5 3.5t-39 13t-36.5 26t-29 42.5z"/>
<glyph glyph-name="afii10028" horiz-adv-x="540" unicode="К" d="M134 353l315 314h58l-323 -319l342 -348h-60l-314 318l-18 -17v-301h-44v667h44v-314z"/>
<glyph glyph-name="afii10029" horiz-adv-x="620" unicode="Л" d="M530 667v-667h-44v627h-288v-388q0 -28 -0.5 -56t-5 -55t-14 -51t-27.5 -43q-15 -17 -40 -28.5t-57 -11.5q-9 0 -20 2t-20 4v40q8 -2 17 -4t20 -2q23 0 39 8t26 18q15 15 22.5 35t11 43.5t4 49t0.5 51.5v428h376z"/>
<glyph glyph-name="afii10030" horiz-adv-x="896" unicode="М" d="M83 0l76 690l289 -617l289 617l76 -690h-44l-59 536l-262 -560l-262 560l-59 -536h-44z"/>
<glyph glyph-name="afii10031" horiz-adv-x="672" unicode="Н" d="M134 384h404v283h44v-667h-44v344h-404v-344h-44v667h44v-283z"/>
<glyph glyph-name="afii10032" horiz-adv-x="800" unicode="О" d="M400 29q64 0 119 23.5t95.5 64.5t63 96t22.5 119t-22.5 119.5t-63 96.5t-95.5 64.5t-119 23.5q-65 0 -119.5 -23.5t-95 -64.5t-63 -96.5t-22.5 -119.5t22.5 -119t63 -96t95 -64.5t119.5 -23.5zM400 676q73 0 136.5 -27t110 -73.5t73 -109t26.5 -134.5t-26.5 -134.5 t-73 -109t-110 -73t-136.5 -26.5q-74 0 -137 26.5t-109.5 73t-73 109t-26.5 134.5t26.5 134.5t73 109t110 73.5t136.5 27z"/>
<glyph glyph-name="afii10033" horiz-adv-x="672" unicode="П" d="M582 667v-667h-44v627h-404v-627h-44v667h492z"/>
<glyph glyph-name="afii10034" horiz-adv-x="446" unicode="Р" d="M134 357h88q66 0 106 36t40 99t-40 99t-113 36h-81v-270zM134 317v-317h-44v667h129q41 0 76.5 -11t62 -33t41.5 -54.5t15 -75.5q0 -42 -14 -74.5t-39.5 -55t-61.5 -34.5t-79 -12h-86z"/>
<glyph glyph-name="afii10035" horiz-adv-x="678" unicode="С" d="M624 531q-43 51 -101.5 78t-123.5 27q-64 0 -119 -24t-95 -65.5t-62.5 -97.5t-22.5 -119q0 -74 28 -130.5t71.5 -94.5t96.5 -57t104 -19q25 0 53.5 5.5t58 17.5t58 31t54.5 47v-58q-51 -45 -109.5 -64t-112.5 -19q-75 0 -139 27.5t-110.5 74.5t-72.5 109t-26 132 q0 72 27 134.5t74 109t110 73.5t135 27q48 0 86 -11t66 -25.5t46 -29t26 -21.5v-58z"/>
<glyph glyph-name="afii10036" horiz-adv-x="418" unicode="Т" d="M231 627v-627h-44v627h-173v40h390v-40h-173z"/>
<glyph glyph-name="afii10037" horiz-adv-x="550" unicode="У" d="M64 667l231 -432l195 432h46l-305 -667h-46l85 186l-256 481h50z"/>
<glyph glyph-name="afii10038" horiz-adv-x="820" unicode="Ф" d="M432 134h30q77 0 127 21t79 53t40.5 71t11.5 75t-11.5 75t-40.5 71t-79 53t-127 21h-30v-440zM388 574h-30q-77 0 -127 -21t-79 -53t-40.5 -71t-11.5 -75t11.5 -75t40.5 -71t79 -53t127 -21h30v440zM388 94h-28q-93 0 -152.5 25.5t-93.5 64t-47 84t-13 86.5q0 40 13 86 t47 84.5t93.5 64t152.5 25.5h28v80h44v-80h28q93 0 152.5 -25.5t93.5 -64t47 -84.5t13 -86q0 -41 -13 -86.5t-47 -84t-93.5 -64t-152.5 -25.5h-28v-94h-44v94z"/>
<glyph glyph-name="afii10039" horiz-adv-x="470" unicode="Х" d="M206 340l-175 327h48l151 -285l152 285h48l-174 -327l183 -340h-48l-161 300l-159 -300h-48z"/>
<glyph glyph-name="afii10040" horiz-adv-x="666" unicode="Ц" d="M90 667h44v-627h398v627h44v-627h76v-174h-42v134h-520v667z"/>
<glyph glyph-name="afii10041" horiz-adv-x="580" unicode="Ч" d="M446 300q-18 -1 -41.5 -2.5t-47 -2.5t-45 -1.5t-36.5 -0.5q-41 0 -74.5 4t-61.5 18q-24 12 -37.5 27t-21 33.5t-9.5 40.5t-2 48v203h44v-203q0 -14 0.5 -30t5.5 -32t16 -30t32 -24q19 -9 46.5 -12t75.5 -3q40 0 74.5 1.5t81.5 5.5v327h44v-667h-44v300z"/>
<glyph glyph-name="afii10042" horiz-adv-x="920" unicode="Ш" d="M90 667h44v-627h304v627h44v-627h304v627h44v-667h-740v667z"/>
<glyph glyph-name="afii10043" horiz-adv-x="920" unicode="Щ" d="M90 667h44v-627h304v627h44v-627h304v627h44v-627h76v-174h-42v134h-774v667z"/>
<glyph glyph-name="afii10044" horiz-adv-x="610" unicode="Ъ" d="M218 40h112q15 0 33 0.5t37.5 5t39 13t36.5 25.5q17 16 29.5 43.5t12.5 69.5q0 38 -14 70t-55 53q-29 15 -61.5 17.5t-65.5 2.5h-104v-300zM174 627h-160v40h204v-287h116q30 0 70 -5t75.5 -24t60 -55t24.5 -99q0 -38 -12 -73t-37.5 -63t-67 -44.5t-99.5 -16.5h-174v627z "/>
<glyph glyph-name="afii10045" horiz-adv-x="690" unicode="Ы" d="M600 667v-667h-44v667h44zM134 40h112q15 0 33 0.5t37.5 5t39 13t36.5 25.5q17 16 29.5 43.5t12.5 69.5q0 38 -14 70t-55 53q-29 15 -61.5 17.5t-65.5 2.5h-104v-300zM90 667h44v-287h116q30 0 70 -5t75.5 -24t60 -55t24.5 -99q0 -38 -12 -73t-37.5 -63t-67 -44.5 t-99.5 -16.5h-174v667z"/>
<glyph glyph-name="afii10046" horiz-adv-x="526" unicode="Ь" d="M134 40h112q15 0 33 0.5t37.5 5t39 13t36.5 25.5q17 16 29.5 43.5t12.5 69.5q0 38 -14 70t-55 53q-29 15 -61.5 17.5t-65.5 2.5h-104v-300zM90 667h44v-287h116q30 0 70 -5t75.5 -24t60 -55t24.5 -99q0 -38 -12 -73t-37.5 -63t-67 -44.5t-99.5 -16.5h-174v667z"/>
<glyph glyph-name="afii10047" horiz-adv-x="678" unicode="Э" d="M54 130q25 -28 54 -47t58.5 -31t58 -17.5t53.5 -5.5q53 0 105.5 20t95.5 57.5t70 92.5t29 125h-444v40h442q-6 59 -31.5 109t-65.5 86t-91.5 56.5t-108.5 20.5q-65 0 -123.5 -27t-101.5 -78v58q7 7 25.5 21.5t46.5 29t66 25.5t86 11q72 0 135 -27t110 -73.5t74 -109 t27 -134.5q0 -70 -26.5 -132t-73 -109t-110 -74.5t-138.5 -27.5q-54 0 -112.5 19t-109.5 64v58z"/>
<glyph glyph-name="afii10048" horiz-adv-x="960" unicode="Ю" d="M570 29q63 0 116 23.5t91.5 64.5t60.5 96t22 119t-22 119.5t-60.5 96.5t-91.5 64.5t-116 23.5t-116 -23.5t-91.5 -64.5t-60.5 -96.5t-22 -119.5t22 -119t60.5 -96t91.5 -64.5t116 -23.5zM236 372q7 66 36.5 122t74 96.5t102 63t121.5 22.5q71 0 132.5 -27t106.5 -73.5 t71 -109t26 -134.5t-26 -134.5t-71 -109t-106.5 -73t-132.5 -26.5q-72 0 -133 27t-106 73.5t-70.5 109t-26.5 133.5h-100v-332h-44v667h44v-295h102z"/>
<glyph glyph-name="afii10049" horiz-adv-x="470" unicode="Я" d="M266 627q-23 0 -47 -3t-44 -13q-35 -17 -55 -50.5t-20 -77.5q0 -36 12 -64t32 -45q14 -12 30 -19t31.5 -10.5t29.5 -4.5t25 -1h76v288h-70zM236 299q-20 1 -39 5t-36 10q-8 3 -25.5 12.5t-35.5 29t-32 50.5t-14 77q0 33 8.5 59t21.5 45.5t28 32.5t29 21q29 17 62 21.5 t63 4.5h114v-667h-44v299h-50l-200 -299h-52z"/>
<glyph glyph-name="afii10065" horiz-adv-x="516" unicode="а" d="M247 379q-30 0 -59 -11.5t-51 -33t-35.5 -53.5t-13.5 -74q0 -35 10.5 -67t31 -57.5t50 -40.5t68.5 -15q38 0 67.5 15t49.5 40t30.5 57.5t10.5 67.5q0 45 -15 77.5t-38.5 53.5t-51.5 31t-54 10zM404 408h40v-408h-40v73q-31 -47 -75 -65.5t-84 -18.5t-76 14.5t-63.5 42.5 t-43.5 68t-16 90q0 47 14.5 86.5t40.5 67.5t62.5 43.5t81.5 15.5q48 0 89 -19t70 -61v71z"/>
<glyph glyph-name="afii10066" horiz-adv-x="520" unicode="б" d="M259 27q47 0 80 16.5t53.5 42t30 57t9.5 61.5q0 33 -10.5 64t-31.5 56t-51.5 40t-70.5 15q-44 0 -76.5 -15.5t-55 -40.5t-33.5 -56.5t-11 -62.5q0 -32 11 -63.5t28 -54.5q29 -38 64 -48.5t64 -10.5zM89 311q12 28 31.5 48t43.5 33t51 19t53 6q46 0 84 -15.5t65 -43.5 t42 -67.5t15 -86.5q0 -50 -16.5 -90t-46 -68t-68.5 -42.5t-84 -14.5q-53 0 -88 16t-55 35q-25 24 -39 53t-21 59t-8.5 57.5t-1.5 48.5q0 34 4 79t17 91.5t38.5 88.5t68.5 70q37 24 78.5 33t79.5 17q46 10 64 23t26 30h50q-11 -26 -28.5 -43t-37.5 -27.5t-41.5 -16 t-40.5 -9.5q-30 -6 -69.5 -17t-73.5 -38q-25 -20 -42.5 -48t-28.5 -58.5t-16.5 -62t-6.5 -59.5h2z"/>
<glyph glyph-name="afii10067" horiz-adv-x="414" unicode="в" d="M227 38q11 0 32 2.5t38 15.5q10 8 19.5 22t9.5 39q0 20 -7 33.5t-20 23.5q-16 12 -35.5 15t-36.5 3h-115v-154h115zM205 230q11 0 27 2.5t31 14.5q8 7 16.5 20t8.5 34q0 20 -8.5 33t-16.5 20q-14 11 -31 13.5t-27 2.5h-93v-140h93zM205 408q17 0 41 -3.5t46 -20.5 q11 -9 23.5 -27.5t12.5 -50.5q0 -27 -11 -49t-34 -36q5 -1 20 -5.5t30 -17.5q14 -12 24.5 -31.5t10.5 -50.5q0 -35 -13 -56t-28 -32q-24 -19 -52 -23.5t-48 -4.5h-155v408h133z"/>
<glyph glyph-name="afii10068" horiz-adv-x="300" unicode="г" d="M72 408h220v-38h-180v-370h-40v408z"/>
<glyph glyph-name="afii10069" horiz-adv-x="440" unicode="д" d="M328 370h-188v-180q0 -34 -4.5 -58.5t-11.5 -42.5t-16.5 -30t-19.5 -21h240v332zM368 408v-370h60v-148h-38v110h-344v-110h-38v148q29 2 47.5 18.5t27.5 35.5q11 22 14 50t3 60v206h268z"/>
<glyph glyph-name="afii10070" horiz-adv-x="483" unicode="е" d="M395 237q-4 30 -16.5 56t-32.5 45t-46 30t-56 11q-31 0 -57.5 -11t-46 -30.5t-32.5 -45t-17 -55.5h304zM88 199v-10q0 -33 11 -61q13 -32 36 -54.5t53 -34.5t62 -12q50 0 86 26t56 67l34 -20q-9 -17 -24 -36.5t-36.5 -36t-51 -27.5t-67.5 -11q-48 0 -85 16.5t-63 45.5 t-39.5 67.5t-13.5 83.5q0 53 17 93.5t44.5 67.5t63 40.5t73.5 13.5q41 0 77 -16t62 -45q27 -28 41 -68q14 -37 13 -83v-6h-349z"/>
<glyph glyph-name="afii10072" horiz-adv-x="560" unicode="ж" d="M300 408v-194l184 194h52l-190 -196l206 -212h-54l-178 186l-20 -20v-166h-40v166l-20 20l-178 -186h-54l206 212l-190 196h52l184 -194v194h40z"/>
<glyph glyph-name="afii10073" horiz-adv-x="400" unicode="з" d="M72 345q6 11 16.5 23.5t26 23.5t37 18t49.5 7q20 0 45 -5t45 -24q13 -11 23 -30.5t10 -48.5q0 -60 -47 -85q27 -6 48 -27q13 -13 21 -33.5t8 -44.5q0 -31 -12.5 -57t-35.5 -43q-20 -15 -47.5 -22.5t-56.5 -7.5q-20 0 -48.5 5t-56.5 25q-7 5 -22.5 19.5t-28.5 40.5l36 23 q9 -20 21 -32.5t22 -19.5q20 -14 39.5 -18.5t37.5 -4.5q31 0 49.5 7.5t28.5 15.5q32 26 32 70q0 20 -8 35.5t-20 24.5q-17 13 -38 15.5t-37 2.5h-42v38h31q12 0 28.5 2.5t32.5 14.5q14 11 19.5 24.5t5.5 27.5q0 21 -7 33.5t-14 19.5q-8 7 -22.5 14t-40.5 7q-37 0 -60 -17.5 t-35 -39.5z"/>
<glyph glyph-name="afii10074" horiz-adv-x="474" unicode="и" d="M112 408v-327l290 350v-431h-40v325l-290 -350v433h40z"/>
<glyph glyph-name="afii10075" horiz-adv-x="474" unicode="й" d="M112 408v-327l290 350v-431h-40v325l-290 -350v433h40zM153 590q8 -29 32.5 -51t63.5 -22t63.5 22t32.5 51l34 -17q-4 -13 -12.5 -29.5t-24 -30.5t-38 -24t-55.5 -10t-55.5 10t-38 24t-24 30.5t-12.5 29.5z"/>
<glyph glyph-name="afii10076" horiz-adv-x="396" unicode="к" d="M112 408v-194l206 194h54l-208 -194l224 -214h-58l-196 187l-22 -21v-166h-40v408h40z"/>
<glyph glyph-name="afii10077" horiz-adv-x="430" unicode="л" d="M358 0h-40v370h-188v-236q0 -20 -3.5 -48t-20.5 -51q-10 -14 -29.5 -25.5t-48.5 -11.5q-5 0 -10 0.5t-10 1.5v38q10 -2 15 -2q20 0 33 8.5t20 18.5q10 15 12 33.5t2 37.5v274h268v-408z"/>
<glyph glyph-name="afii10078" horiz-adv-x="566" unicode="м" d="M120 433l163 -368l163 368l96 -433h-42l-66 319l-151 -344l-151 344l-66 -319h-42z"/>
<glyph glyph-name="afii10079" horiz-adv-x="454" unicode="н" d="M72 408h40v-180h230v180h40v-408h-40v190h-230v-190h-40v408z"/>
<glyph glyph-name="afii10080" horiz-adv-x="520" unicode="о" d="M260 27q37 0 68.5 13.5t54.5 37.5t36 56t13 69t-13 69t-36 56t-54.5 37.5t-68.5 13.5t-68.5 -13.5t-54.5 -37.5t-36 -56t-13 -69t13 -69t36 -56t54.5 -37.5t68.5 -13.5zM260 417q45 0 84.5 -16.5t68 -45t45 -68t16.5 -84.5t-16.5 -84.5t-45 -68t-68 -45t-84.5 -16.5 t-84.5 16.5t-68 45t-45 68t-16.5 84.5t16.5 84.5t45 68t68 45t84.5 16.5z"/>
<glyph glyph-name="afii10081" horiz-adv-x="448" unicode="п" d="M72 408h304v-408h-40v370h-224v-370h-40v408z"/>
<glyph glyph-name="afii10082" horiz-adv-x="516" unicode="р" d="M269 27q39 0 68.5 14t49.5 38.5t30.5 57t10.5 70.5q0 42 -13 74t-34.5 54t-50.5 33t-60 11q-30 0 -59 -10.5t-51.5 -32t-36 -53.5t-13.5 -74q0 -38 10.5 -71.5t30.5 -58t49.5 -38.5t68.5 -14zM112 -230h-40v638h40v-71q29 40 70 60t90 20q46 0 83 -16t62.5 -44.5t39 -67 t13.5 -82.5q0 -45 -14 -84.5t-39.5 -69.5t-63 -47t-83.5 -17q-38 0 -65.5 10.5t-46.5 24t-30.5 27.5t-15.5 22v-303z"/>
<glyph glyph-name="afii10083" horiz-adv-x="442" unicode="с" d="M399 312q-10 12 -24 23.5t-31.5 21.5t-39 16t-46.5 6q-38 0 -69 -13.5t-53.5 -37.5t-35 -56.5t-12.5 -69.5q0 -44 15 -77t39 -54.5t54 -32.5t60 -11q24 0 46 6.5t40.5 17t34 23.5t27.5 26v-54q-20 -18 -57.5 -37.5t-91.5 -19.5q-46 0 -84.5 16t-66 44.5t-43 67.5 t-15.5 84t14.5 84.5t42 69t67 46t88.5 16.5q22 0 60.5 -8.5t80.5 -43.5v-53z"/>
<glyph glyph-name="afii10084" horiz-adv-x="340" unicode="т" d="M150 370h-142v38h324v-38h-142v-370h-40v370z"/>
<glyph glyph-name="afii10085" horiz-adv-x="428" unicode="у" d="M202 -7l-194 415h46l171 -363l149 363h46l-268 -638h-47z"/>
<glyph glyph-name="afii10086" horiz-adv-x="600" unicode="ф" d="M320 31q36 0 74 11.5t63 31.5q8 7 17.5 17.5t18 26.5t14 37t5.5 49q0 48 -16 79.5t-39 50.5q-26 22 -62.5 32t-74.5 10v-345zM280 376q-38 0 -74.5 -10t-62.5 -32q-23 -19 -39 -50.5t-16 -79.5q0 -28 5.5 -49t13.5 -37t18 -26.5t18 -17.5q25 -20 63 -31.5t74 -11.5v345z M280 -7q-15 0 -35 1.5t-41.5 7t-44.5 16t-44 28.5q-69 58 -69 158q0 57 20 95.5t49 63.5q26 22 66.5 36.5t98.5 14.5v253h40v-253q58 0 98.5 -14.5t66.5 -36.5q29 -25 49 -63.5t20 -95.5q0 -100 -69 -158q-21 -18 -44 -28.5t-44.5 -16t-41.5 -7t-35 -1.5v-223h-40v223z"/>
<glyph glyph-name="afii10087" horiz-adv-x="400" unicode="х" d="M173 214l-151 194h49l129 -168l127 168h49l-148 -194l164 -214h-49l-143 188l-143 -188h-49z"/>
<glyph glyph-name="afii10088" horiz-adv-x="444" unicode="ц" d="M72 408h40v-370h220v370h40v-370h60v-148h-38v110h-322v408z"/>
<glyph glyph-name="afii10089" horiz-adv-x="412" unicode="ч" d="M300 169q-25 -4 -54.5 -7t-52.5 -3q-7 0 -19 0.5t-25.5 3t-27.5 6.5t-24 12q-14 10 -21.5 23t-11 27.5t-4 28t-0.5 25.5v123h40v-123q0 -23 5 -43t22 -32q19 -13 61 -13q12 0 27.5 1t31 2.5t29.5 3t24 3.5v201h40v-408h-40v169z"/>
<glyph glyph-name="afii10090" horiz-adv-x="644" unicode="ш" d="M72 408h40v-370h190v370h40v-370h190v370h40v-408h-500v408z"/>
<glyph glyph-name="afii10091" horiz-adv-x="644" unicode="щ" d="M72 408h40v-370h190v370h40v-370h190v370h40v-370h60v-148h-38v110h-522v408z"/>
<glyph glyph-name="afii10092" horiz-adv-x="416" unicode="ъ" d="M244 38q15 0 32 3t32 16q12 10 20 26t8 36q0 21 -8 37t-21 26t-30.5 14t-34.5 4h-94v-162h96zM148 408v-170h97q24 0 52.5 -6t51.5 -32q15 -17 22 -38.5t7 -42.5q0 -25 -9 -48t-27 -40q-23 -21 -49 -26t-49 -5h-136v370h-100v38h140z"/>
<glyph glyph-name="afii10093" d="M428 408v-408h-40v408h40zM208 38q15 0 32 3t32 16q12 10 20 26t8 36q0 21 -8 37t-21 26t-30.5 14t-34.5 4h-94v-162h96zM112 408v-170h97q24 0 52.5 -6t51.5 -32q15 -17 22 -38.5t7 -42.5q0 -25 -9 -48t-27 -40q-23 -21 -49 -26t-49 -5h-136v408h40z" unicode="ы"/>
<glyph glyph-name="afii10094" horiz-adv-x="380" unicode="ь" d="M208 38q15 0 32 3t32 16q12 10 20 26t8 36q0 21 -8 37t-21 26t-30.5 14t-34.5 4h-94v-162h96zM112 408v-170h97q24 0 52.5 -6t51.5 -32q15 -17 22 -38.5t7 -42.5q0 -25 -9 -48t-27 -40q-23 -21 -49 -26t-49 -5h-136v408h40z"/>
<glyph glyph-name="afii10095" horiz-adv-x="412" unicode="э" d="M38 52q31 -17 63 -21t47 -4q48 0 80 16t52 37q16 17 29 44.5t15 65.5h-239v38h239q-3 24 -10 43t-17 33.5t-20.5 24.5t-19.5 17q-29 21 -58.5 27t-53.5 6q-38 0 -62.5 -6.5t-40.5 -14.5v40q28 11 52.5 15t50.5 4q34 0 75 -9.5t78 -41.5q27 -23 47.5 -62t20.5 -99 q0 -59 -19 -97.5t-42 -60.5q-20 -19 -58 -38.5t-99 -19.5q-8 0 -21 0.5t-28 3t-30.5 6.5t-30.5 11v42z"/>
<glyph glyph-name="afii10096" horiz-adv-x="640" unicode="ю" d="M388 27q35 0 65 13.5t52 37.5t34.5 56t12.5 69t-12.5 69t-34.5 56t-52 37.5t-65 13.5t-65 -13.5t-52 -37.5t-34.5 -56t-12.5 -69t12.5 -69t34.5 -56t52 -37.5t65 -13.5zM182 228q4 40 21.5 75t44.5 60t62.5 39.5t77.5 14.5q44 0 81.5 -16.5t65.5 -45t43.5 -68t15.5 -84.5 t-15.5 -84.5t-43.5 -68t-65.5 -45t-81.5 -16.5q-39 0 -75.5 14t-64.5 40t-46 63t-20 84h-70v-190h-40v408h40v-180h70z"/>
<glyph glyph-name="afii10097" horiz-adv-x="386" unicode="я" d="M274 370h-96q-16 0 -33.5 -3.5t-31.5 -14.5q-10 -8 -18.5 -22.5t-8.5 -39.5q0 -23 8 -36.5t18 -21.5q13 -10 31 -14t35 -4h96v156zM158 178q-47 2 -80 30q-22 20 -28 41t-6 40q0 20 6.5 45t30.5 45q23 20 48.5 24.5t48.5 4.5h136v-408h-40v176h-70l-128 -176h-48z"/>
<glyph glyph-name="afii10071" horiz-adv-x="483" unicode="ё" d="M395 237q-4 30 -16.5 56t-32.5 45t-46 30t-56 11q-31 0 -57.5 -11t-46 -30.5t-32.5 -45t-17 -55.5h304zM88 199v-10q0 -33 11 -61q13 -32 36 -54.5t53 -34.5t62 -12q50 0 86 26t56 67l34 -20q-9 -17 -24 -36.5t-36.5 -36t-51 -27.5t-67.5 -11q-48 0 -85 16.5t-63 45.5 t-39.5 67.5t-13.5 83.5q0 53 17 93.5t44.5 67.5t63 40.5t73.5 13.5q41 0 77 -16t62 -45q27 -28 41 -68q14 -37 13 -83v-6h-349zM291 526q0 15 10.5 25.5t25.5 10.5t25.5 -10.5t10.5 -25.5t-10.5 -25.5t-25.5 -10.5t-25.5 10.5t-10.5 25.5zM125 526q0 15 10.5 25.5t25.5 10.5 t25.5 -10.5t10.5 -25.5t-10.5 -25.5t-25.5 -10.5t-25.5 10.5t-10.5 25.5z"/>
<glyph glyph-name="afii10099" horiz-adv-x="442" unicode="ђ" d="M72 522h-72v38h72v169h40v-169h180v-38h-180v-218q7 13 18 26t26 23.5t35 17t46 6.5q27 0 47 -7t33.5 -16.5t21.5 -19t11 -14.5q14 -22 17 -49t3 -54v-312q0 -33 -7.5 -61.5t-27.5 -47.5q-18 -17 -37.5 -21.5t-34.5 -4.5q-17 0 -35 6v37q8 -3 14 -4t14 -1q13 0 26 3 t24 14q16 15 20 39.5t4 47.5v305q0 21 -2.5 43t-13.5 39q-7 11 -25 25.5t-55 14.5q-42 0 -65.5 -18.5t-34.5 -38.5q-14 -24 -18 -52t-4 -58v-172h-40v522z"/>
<glyph glyph-name="afii10100" horiz-adv-x="300" unicode="ѓ" d="M72 408h220v-38h-180v-370h-40v408zM279 595l-105 -128l-30 16l92 137z"/>
<glyph glyph-name="afii10101" horiz-adv-x="441" unicode="є" d="M398 312q-10 12 -24 23.5t-31.5 21.5t-39 16t-46.5 6q-34 0 -63.5 -11.5t-52 -32t-36.5 -48t-17 -59.5h238v-38h-238q1 -37 15.5 -67t37.5 -51.5t52.5 -33t61.5 -11.5q24 0 46 6.5t40.5 17t34 23.5t27.5 26v-54q-27 -24 -64 -40.5t-85 -16.5q-46 0 -84.5 16t-66 44.5 t-42.5 67.5t-15 84t14.5 84.5t42 69t66.5 46t88 16.5q22 0 60.5 -8.5t80.5 -43.5v-53z"/>
<glyph glyph-name="afii10102" horiz-adv-x="334" unicode="ѕ" d="M246 333q-11 24 -30 35t-41 11q-17 0 -30 -6t-21.5 -15.5t-13 -21t-4.5 -22.5q0 -30 21 -43.5t51 -25.5q31 -12 58 -23.5t47 -36.5q13 -16 17 -32.5t4 -33.5q0 -35 -12 -59.5t-31 -40.5t-42.5 -23t-47.5 -7q-51 0 -89.5 28.5t-51.5 79.5l39 12q11 -41 39.5 -61.5 t62.5 -20.5q39 0 65 25t26 65q0 17 -5.5 29.5t-17 22.5t-28.5 18.5t-40 17.5q-31 13 -53 24.5t-36 29.5q-7 9 -12.5 22t-5.5 31q0 47 31 76t78 29q36 0 64.5 -16.5t42.5 -49.5z"/>
<glyph glyph-name="afii10103" horiz-adv-x="184" unicode="і" d="M92 507q-15 0 -25.5 10t-10.5 27t10.5 27t25.5 10t25.5 -10t10.5 -27t-10.5 -27t-25.5 -10zM112 408v-408h-40v408h40z"/>
<glyph glyph-name="afii10104" horiz-adv-x="184" unicode="ї" d="M104 545q0 15 10.5 25.5t25.5 10.5t25.5 -10.5t10.5 -25.5t-10.5 -25.5t-25.5 -10.5t-25.5 10.5t-10.5 25.5zM8 545q0 15 10.5 25.5t25.5 10.5t25.5 -10.5t10.5 -25.5t-10.5 -25.5t-25.5 -10.5t-25.5 10.5t-10.5 25.5zM111 408v-408h-40v408h40z"/>
<glyph glyph-name="afii10105" horiz-adv-x="184" unicode="ј" d="M92 507q-15 0 -25.5 10t-10.5 27t10.5 27t25.5 10t25.5 -10t10.5 -27t-10.5 -27t-25.5 -10zM112 408v-638h-40v638h40z"/>
<glyph glyph-name="afii10106" horiz-adv-x="626" unicode="љ" d="M454 38q15 0 32 3t32 16q12 10 20 26t8 36q0 21 -8 37t-21 26t-30.5 14t-34.5 4h-94v-162h96zM358 238h97q24 0 52.5 -6t51.5 -32q15 -17 22 -38.5t7 -42.5q0 -25 -9 -48t-27 -40q-23 -21 -49 -26t-49 -5h-136v370h-188v-236q0 -20 -3.5 -48t-20.5 -51 q-10 -14 -29.5 -25.5t-48.5 -11.5q-5 0 -10 0.5t-10 1.5v38q10 -2 15 -2q20 0 33 8.5t20 18.5q10 15 12 33.5t2 37.5v274h268v-170z"/>
<glyph glyph-name="afii10107" horiz-adv-x="650" unicode="њ" d="M478 38q15 0 32 3t32 16q12 10 20 26t8 36q0 21 -8 37t-21 26t-30.5 14t-34.5 4h-94v-162h96zM72 408h40v-170h230v170h40v-170h97q24 0 52.5 -6t51.5 -32q15 -17 22 -38.5t7 -42.5q0 -25 -9 -48t-27 -40q-23 -21 -49 -26t-49 -5h-136v200h-230v-200h-40v408z"/>
<glyph glyph-name="afii10108" horiz-adv-x="442" unicode="ћ" d="M72 522h-72v38h72v169h40v-169h180v-38h-180v-218q7 13 18 26t26 23.5t35 17t46 6.5q27 0 47 -7t33.5 -16.5t21.5 -19t11 -14.5q14 -22 17 -49t3 -54v-217h-40v217q0 21 -2.5 43t-13.5 39q-7 11 -25 25.5t-55 14.5q-42 0 -65.5 -18.5t-34.5 -38.5q-14 -24 -18 -52t-4 -58 v-172h-40v522z"/>
<glyph glyph-name="afii10109" horiz-adv-x="396" unicode="ќ" d="M112 408v-194l206 194h54l-208 -194l224 -214h-58l-196 187l-22 -21v-166h-40v408h40zM297 595l-105 -128l-30 16l92 137z"/>
<glyph glyph-name="afii10110" horiz-adv-x="428" unicode="ў" d="M202 -7l-194 415h46l171 -363l149 363h46l-268 -638h-47zM125 590q8 -29 32.5 -51t63.5 -22t63.5 22t32.5 51l34 -17q-4 -13 -12.5 -29.5t-24 -30.5t-38 -24t-55.5 -10t-55.5 10t-38 24t-24 30.5t-12.5 29.5z"/>
<glyph glyph-name="afii10193" horiz-adv-x="444" unicode="џ" d="M72 408h40v-370h220v370h40v-408h-130v-120h-40v120h-130v408z"/>
<glyph glyph-name="afii10146" horiz-adv-x="610" unicode="Ѣ" d="M218 40h112q15 0 33 0.5t37.5 5t39 13t36.5 25.5q17 16 29.5 43.5t12.5 69.5q0 38 -14 70t-55 53q-29 15 -61.5 17.5t-65.5 2.5h-104v-300zM174 527h-160v40h160v127h44v-127h200v-40h-200v-147h116q30 0 70 -5t75.5 -24t60 -55t24.5 -99q0 -38 -12 -73t-37.5 -63 t-67 -44.5t-99.5 -16.5h-174v527z"/>
<glyph glyph-name="afii10194" horiz-adv-x="416" unicode="ѣ" d="M244 38q15 0 32 3t32 16q12 10 20 26t8 36q0 21 -8 37t-21 26t-30.5 14t-34.5 4h-94v-162h96zM108 408v259h40v-259h120v-38h-120v-132h97q24 0 52.5 -6t51.5 -32q15 -17 22 -38.5t7 -42.5q0 -25 -9 -48t-27 -40q-23 -21 -49 -26t-49 -5h-136v370h-100v38h100z"/>
<glyph glyph-name="afii10147" horiz-adv-x="800" unicode="Ѳ" d="M699 360q-6 63 -32 114t-66.5 87t-92 55.5t-108.5 19.5t-108.5 -19.5t-92 -55.5t-66.5 -87t-32 -114h598zM400 29q67 0 121.5 24t93.5 64t61 93t24 110h-600q2 -57 24 -110t61 -93t93.5 -64t121.5 -24zM400 676q73 0 136.5 -27t110 -73.5t73 -109t26.5 -134.5 t-26.5 -134.5t-73 -109t-110 -73t-136.5 -26.5t-136.5 26.5t-110 73t-73 109t-26.5 134.5t26.5 134.5t73 109t110 73.5t136.5 27z"/>
<glyph glyph-name="afii10195" horiz-adv-x="520" unicode="ѳ" d="M431 227q-5 38 -21.5 66.5t-40.5 47.5t-52.5 28.5t-56.5 9.5t-56.5 -9.5t-52.5 -28.5t-40.5 -47.5t-21.5 -66.5h342zM89 189q2 -36 16.5 -66t38 -51.5t53.5 -33t63 -11.5t63 11.5t53 33t38 51.5t17 66h-342zM260 417q45 0 84.5 -16.5t68 -45t45 -68t16.5 -84.5 t-16.5 -84.5t-45 -68t-68 -45t-84.5 -16.5t-84.5 16.5t-68 45t-45 68t-16.5 84.5t16.5 84.5t45 68t68 45t84.5 16.5z"/>
<glyph glyph-name="afii10148" horiz-adv-x="510" unicode="Ѵ" d="M62 667l196 -568l190 568h48l-238 -694l-244 694h48z"/>
<glyph glyph-name="afii10196" horiz-adv-x="390" unicode="ѵ" d="M52 408l144 -339l142 339h44l-186 -433l-188 433h44z"/>
<glyph glyph-name="afii10050" horiz-adv-x="400" unicode="Ґ" d="M90 667h254v133h42v-173h-252v-627h-44v667z"/>
<glyph glyph-name="afii10098" horiz-adv-x="300" unicode="ґ" d="M72 408h182v110h38v-148h-180v-370h-40v408z"/>
<glyph glyph-name="uni0492" horiz-adv-x="400" unicode="Ғ" d="M90 345h-90v40h90v282h296v-40h-252v-242h136v-40h-136v-345h-44v345z"/>
<glyph glyph-name="uni0493" horiz-adv-x="300" unicode="ғ" d="M72 200h-72v38h72v170h220v-38h-180v-132h100v-38h-100v-200h-40v200z"/>
<glyph glyph-name="uni0494" horiz-adv-x="526" unicode="Ҕ" d="M134 627v-262q14 5 51.5 14t85.5 9q36 0 63 -5.5t47.5 -14.5t34 -20t22.5 -21q4 -5 11.5 -15.5t14 -27t11.5 -39t5 -51.5q0 -57 -19 -98.5t-48 -64.5q-26 -20 -60 -28.5t-67 -8.5q-16 0 -35 2t-33 4v40q17 -4 32 -5t31 -1q30 0 57 6t50 27q15 14 30.5 43t15.5 82 q0 42 -11 67.5t-22 39.5q-22 26 -54 37.5t-73 11.5q-33 0 -70.5 -6t-69.5 -17v-325h-44v667h296v-40h-252z"/>
<glyph glyph-name="uni0495" horiz-adv-x="380" unicode="ҕ" d="M72 408h220v-38h-180v-134h30q32 0 64 -9t56 -26q29 -21 50.5 -60.5t21.5 -105.5q0 -34 -6.5 -62t-17 -50t-23 -38.5t-23.5 -27.5q-20 -20 -52 -38.5t-77 -26.5v40q21 5 48 16.5t53 39.5q19 20 30 41.5t17 41.5t7.5 37.5t1.5 28.5q0 42 -16 79t-45 57q-16 11 -38 18 t-51 7h-30v-198h-40v408z"/>
<glyph glyph-name="uni0496" horiz-adv-x="796" unicode="Җ" d="M420 667v-314l282 314h58l-296 -323l281 -304h37v-174h-42v134h-16l-291 314l-13 -13v-301h-44v301l-13 13l-291 -314h-58l318 344l-296 323h58l282 -314v314h44z"/>
<glyph glyph-name="uni0497" horiz-adv-x="560" unicode="җ" d="M300 408v-194l184 194h52l-190 -196l169 -174h37v-148h-38v110h-16l-178 186l-20 -20v-166h-40v166l-20 20l-178 -186h-54l206 212l-190 196h52l184 -194v194h40z"/>
<glyph glyph-name="uni0498" horiz-adv-x="554" unicode="Ҙ" d="M104 581q6 10 24 32t50 39q18 10 43.5 17t60.5 7q27 0 60.5 -7.5t63.5 -35.5q20 -19 34 -48t14 -72q0 -23 -6 -45.5t-20 -45.5q-14 -21 -29.5 -34t-32.5 -21q32 -8 52.5 -21.5t32.5 -25.5q23 -23 36 -54.5t13 -72.5q0 -42 -15 -81.5t-42 -65.5q-28 -27 -68 -40.5 t-76 -15.5v-140h-44v141q-33 1 -64.5 11t-63.5 36q-11 9 -32.5 31.5t-40.5 60.5l42 20q11 -23 26 -42t32 -33q29 -24 62.5 -35t65.5 -11q34 0 71 13t60 36q14 14 27.5 42t13.5 71q0 32 -11 59t-37 50q-30 26 -64 32.5t-66 6.5h-60v40h50q21 0 50.5 6.5t56.5 34.5 q20 20 27.5 43.5t7.5 49.5q0 22 -6.5 44t-24.5 42q-20 21 -44.5 29t-53.5 8q-31 0 -54 -8.5t-40 -20.5q-29 -21 -49 -53z"/>
<glyph glyph-name="uni0499" horiz-adv-x="400" unicode="ҙ" d="M72 345q6 11 16.5 23.5t26 23.5t37 18t49.5 7q20 0 45 -5t45 -24q13 -11 23 -30.5t10 -48.5q0 -60 -47 -85q27 -6 48 -27q13 -13 21 -33.5t8 -45.5q0 -35 -14.5 -60t-33.5 -39q-16 -12 -37.5 -20.5t-48.5 -9.5v-109h-40v110q-28 2 -48.5 10.5t-34.5 18.5q-9 6 -23.5 20.5 t-27.5 39.5l36 23q9 -20 21 -32.5t22 -19.5q20 -14 39.5 -18.5t37.5 -4.5q31 0 49.5 7.5t28.5 15.5q32 26 32 70q0 20 -8 35.5t-20 24.5q-17 13 -38 15.5t-37 2.5h-42v38h31q12 0 28.5 2.5t32.5 14.5q14 11 19.5 24.5t5.5 27.5q0 21 -7 33.5t-14 19.5q-8 7 -22.5 14t-40.5 7 q-37 0 -60 -17.5t-35 -39.5z"/>
<glyph glyph-name="uni049A" horiz-adv-x="540" unicode="Қ" d="M134 667v-314l315 314h58l-323 -319l303 -308h39v-174h-42v134h-18l-314 318l-18 -17v-301h-44v667h44z"/>
<glyph glyph-name="uni049B" horiz-adv-x="396" unicode="қ" d="M112 408v-194l206 194h54l-208 -194l184 -176h40v-148h-38v110h-20l-196 187l-22 -21v-166h-40v408h40z"/>
<glyph glyph-name="uni049C" horiz-adv-x="600" unicode="Ҝ" d="M134 667v-303h72v140h40v-140l269 303h52l-287 -319l306 -348h-54l-286 324v-160h-40v160h-72v-324h-44v667h44z"/>
<glyph glyph-name="uni049D" horiz-adv-x="400" unicode="ҝ" d="M112 408v-178h43v100h38v-100l149 178h46l-162 -194l166 -214h-50l-149 192v-120h-38v120h-43v-192h-40v408h40z"/>
<glyph glyph-name="uni04A0" horiz-adv-x="624" unicode="Ҡ" d="M174 627h-160v40h204v-314l315 314h58l-323 -319l342 -348h-60l-314 318l-18 -17v-301h-44v627z"/>
<glyph glyph-name="uni04A1" horiz-adv-x="432" unicode="ҡ" d="M108 370h-100v38h140v-194l206 194h54l-208 -194l224 -214h-58l-196 187l-22 -21v-166h-40v370z"/>
<glyph glyph-name="uni04A2" horiz-adv-x="672" unicode="Ң" d="M90 667h44v-283h404v283h44v-627h76v-174h-42v134h-78v344h-404v-344h-44v667z"/>
<glyph glyph-name="uni04A3" horiz-adv-x="454" unicode="ң" d="M72 408h40v-180h230v180h40v-370h60v-148h-38v110h-62v190h-230v-190h-40v408z"/>
<glyph glyph-name="uni04A4" horiz-adv-x="848" unicode="Ҥ" d="M90 667h44v-283h404v283h296v-40h-252v-627h-44v344h-404v-344h-44v667z"/>
<glyph glyph-name="uni04A5" horiz-adv-x="570" unicode="ҥ" d="M72 408h40v-180h230v180h220v-38h-180v-370h-40v190h-230v-190h-40v408z"/>
<glyph glyph-name="uni04AA" horiz-adv-x="678" unicode="Ҫ" d="M624 531q-24 28 -52 48t-57.5 33t-59 18.5t-56.5 5.5q-21 0 -46.5 -3.5t-53.5 -13.5t-57 -27.5t-56 -45.5q-41 -42 -63.5 -94.5t-22.5 -121.5q0 -57 18.5 -109.5t65.5 -100.5q17 -17 39 -33.5t49 -29.5t59.5 -20.5t70.5 -7.5q15 0 39 2.5t53.5 13t62.5 30.5t67 55v-58 q-30 -26 -58.5 -41.5t-53.5 -24.5t-46 -12t-35 -4v-140h-44v141q-60 1 -117.5 22t-114.5 77q-49 48 -75 107t-26 135q0 44 9 81t23.5 67.5t32.5 55t37 42.5q50 50 112.5 74t131.5 24q51 0 111.5 -19t112.5 -68v-58z"/>
<glyph glyph-name="uni04AB" horiz-adv-x="442" unicode="ҫ" d="M399 312q-20 23 -41 36.5t-39.5 20t-34 8.5t-24.5 2q-45 0 -76 -16t-48 -34q-7 -7 -15 -18t-15.5 -27t-12.5 -36.5t-5 -45.5q0 -45 14.5 -75.5t32.5 -49.5q23 -24 54.5 -37t66.5 -13q25 0 47.5 7t41 17.5t33.5 23.5t26 25v-54q-18 -16 -35.5 -26t-33.5 -16.5t-30 -9.5 t-24 -4v-110h-40v110q-49 2 -82.5 20t-54.5 40q-22 23 -40 59.5t-18 91.5q0 50 16.5 90t43.5 67q29 29 68 44t82 15q46 0 81.5 -15.5t61.5 -36.5v-53z"/>
<glyph glyph-name="uni04AE" horiz-adv-x="516" unicode="Ү" d="M233 285l-219 382h50l192 -337l196 337h50l-225 -382v-285h-44v285z"/>
<glyph glyph-name="uni04AF" horiz-adv-x="390" unicode="ү" d="M52 408l143 -339l143 339h44l-167 -387v-251h-40v251l-167 387h44z"/>
<glyph glyph-name="uni04B0" horiz-adv-x="516" unicode="Ұ" d="M233 245h-200v40h200l-219 382h50l192 -337l196 337h50l-225 -382h200v-40h-200v-245h-44v245z"/>
<glyph glyph-name="uni04B1" horiz-adv-x="390" unicode="ұ" d="M52 408l143 -339l143 339h44l-167 -387v-21h120v-38h-120v-192h-40v192h-120v38h120v21l-167 387h44z"/>
<glyph glyph-name="uni04B2" horiz-adv-x="470" unicode="Ҳ" d="M206 340l-175 327h48l151 -285l152 285h48l-174 -327l161 -300h22v-174h-42v134h-6l-161 300l-159 -300h-48z"/>
<glyph glyph-name="uni04B3" horiz-adv-x="400" unicode="ҳ" d="M173 214l-151 194h49l129 -168l127 168h49l-148 -194l135 -176h29v-148h-38v110h-11l-143 188l-143 -188h-49z"/>
<glyph glyph-name="uni04B6" horiz-adv-x="580" unicode="Ҷ" d="M446 300q-18 -1 -41.5 -2.5t-47 -2.5t-45 -1.5t-36.5 -0.5q-41 0 -74.5 4t-61.5 18q-24 12 -37.5 27t-21 33.5t-9.5 40.5t-2 48v203h44v-203q0 -14 0.5 -30t5.5 -32t16 -30t32 -24q19 -9 46.5 -12t75.5 -3q40 0 74.5 1.5t81.5 5.5v327h44v-627h76v-174h-42v134h-78v300z "/>
<glyph glyph-name="uni04B7" horiz-adv-x="412" unicode="ҷ" d="M300 169q-25 -4 -54.5 -7t-52.5 -3q-7 0 -19 0.5t-25.5 3t-27.5 6.5t-24 12q-14 10 -21.5 23t-11 27.5t-4 28t-0.5 25.5v123h40v-123q0 -23 5 -43t22 -32q19 -13 61 -13q12 0 27.5 1t31 2.5t29.5 3t24 3.5v201h40v-370h60v-148h-38v110h-62v169z"/>
<glyph glyph-name="uni04B8" horiz-adv-x="580" unicode="Ҹ" d="M446 300q-15 -1 -26.5 -1.5t-26.5 -1.5t-35.5 -2t-51.5 -2v-129h-40v129q-10 0 -25.5 0.5t-32.5 2.5t-35 6.5t-33 12.5q-24 12 -37.5 27t-21 33.5t-9.5 40.5t-2 48v203h44v-203q0 -14 0.5 -30t5.5 -32t16 -30t32 -24q11 -5 25.5 -8t28.5 -4.5t26 -2t18 -0.5v171h40v-171 q28 0 60 1.5t80 5.5v327h44v-667h-44v300z"/>
<glyph glyph-name="uni04B9" horiz-adv-x="420" unicode="ҹ" d="M308 169q-21 -5 -42 -7t-42 -3v-80h-38v80h-7q-20 0 -43.5 5.5t-38.5 16.5q-14 10 -21.5 23t-11 27.5t-4 28t-0.5 25.5v123h40v-123q0 -22 5 -43t22 -32q11 -7 28 -10t31 -3v120h38v-120q21 1 42 3t42 7v201h40v-408h-40v169z"/>
<glyph glyph-name="uni04BA" horiz-adv-x="580" unicode="Һ" d="M134 384h170q41 0 74.5 -4t61.5 -18q24 -12 37.5 -27t21 -33.5t9.5 -40.5t2 -48v-213h-44v213q0 14 -0.5 30t-5.5 32t-16 30t-32 24q-19 9 -46.5 12t-75.5 3h-156v-344h-44v667h44v-283z"/>
<glyph glyph-name="uni04BB" horiz-adv-x="442" unicode="һ" d="M72 729h40v-385q7 13 18 26t26 23.5t35 17t46 6.5q27 0 47 -7t33.5 -16.5t21.5 -19t11 -14.5q14 -22 17 -49t3 -54v-257h-40v257q0 21 -2.5 43t-13.5 39q-7 11 -25 25.5t-55 14.5q-42 0 -65.5 -18.5t-34.5 -38.5q-14 -24 -18 -52t-4 -58v-212h-40v729z"/>
<glyph glyph-name="uni04C0" horiz-adv-x="184" unicode="Ӏ" d="M112 667v-667h-40v667h40z"/>
<glyph glyph-name="uni04C1" horiz-adv-x="796" unicode="Ӂ" d="M420 667v-314l282 314h58l-296 -323l318 -344h-58l-291 314l-13 -13v-301h-44v301l-13 13l-291 -314h-58l318 344l-296 323h58l282 -314v314h44zM293 822q10 -22 24.5 -35t29.5 -19.5t28.5 -8t22.5 -1.5t22.5 1.5t28.5 8t29.5 19.5t24.5 35l35 -19q-12 -26 -29 -42.5 t-36.5 -26t-39 -13t-35.5 -3.5t-35.5 3.5t-39 13t-36.5 26t-29 42.5z"/>
<glyph glyph-name="uni04C2" horiz-adv-x="560" unicode="ӂ" d="M300 408v-194l184 194h52l-190 -196l206 -212h-54l-178 186l-20 -20v-166h-40v166l-20 20l-178 -186h-54l206 212l-190 196h52l184 -194v194h40zM184 590q8 -29 32.5 -51t63.5 -22t63.5 22t32.5 51l34 -17q-4 -13 -12.5 -29.5t-24 -30.5t-38 -24t-55.5 -10t-55.5 10 t-38 24t-24 30.5t-12.5 29.5z"/>
<glyph glyph-name="uni04C3" horiz-adv-x="537" unicode="Ӄ" d="M134 667v-314l315 314h58l-296 -298q34 0 61.5 -1t50 -5t42 -12t38.5 -21q55 -38 73 -97t18 -129q0 -69 -14 -123t-52 -90q-26 -25 -63.5 -38t-81.5 -13q-13 0 -28.5 1.5t-31.5 4.5v40q21 -5 36.5 -5.5t21.5 -0.5q44 0 72 13t44 29q28 29 39.5 76.5t11.5 101.5 q0 71 -19 117t-47 70q-22 19 -57 31t-82 12q-26 0 -57 -3.5t-52 -7.5v-319h-44v667h44z"/>
<glyph glyph-name="uni04C4" horiz-adv-x="397" unicode="ӄ" d="M112 408v-194l206 194h54l-208 -193q29 0 57.5 -6.5t50.5 -19.5q38 -23 59 -63.5t21 -97.5q0 -44 -16 -89t-54 -82q-21 -20 -52.5 -38.5t-76.5 -26.5v40q17 4 45 15.5t56 40.5q32 33 44 71.5t12 69.5q0 15 -3 33.5t-10.5 37.5t-21 36t-34.5 28q-13 7 -28 10.5t-28 5.5 t-23.5 2.5t-14.5 0.5h-35v-183h-40v408h40z"/>
<glyph glyph-name="uni04C7" horiz-adv-x="672" unicode="Ӈ" d="M90 667h44v-283h404v283h44v-758q0 -12 -1 -27t-5 -31t-11.5 -30.5t-20.5 -26.5q-17 -16 -35 -20t-35 -4q-25 0 -46 7v41q16 -6 37 -6q11 0 25 3.5t25 14.5q17 17 20 44t3 47v423h-404v-344h-44v667z"/>
<glyph glyph-name="uni04C8" horiz-adv-x="454" unicode="ӈ" d="M72 408h40v-180h230v180h40v-499q0 -29 -6 -60t-32 -55q-17 -15 -32.5 -19.5t-33.5 -4.5q-11 0 -19.5 1t-18.5 5v37q3 -1 11 -3t19 -2q17 0 28 4.5t19 12.5q17 17 21 42.5t4 49.5v273h-230v-190h-40v408z"/>
<glyph glyph-name="uni04D0" horiz-adv-x="586" unicode="Ӑ" d="M419 259l-125 316l-127 -316h252zM435 219h-284l-89 -219h-48l281 687l277 -687h-48zM188 822q10 -22 24.5 -35t29.5 -19.5t28.5 -8t22.5 -1.5t22.5 1.5t28.5 8t29.5 19.5t24.5 35l35 -19q-12 -26 -29 -42.5t-36.5 -26t-39 -13t-35.5 -3.5t-35.5 3.5t-39 13t-36.5 26 t-29 42.5z"/>
<glyph glyph-name="uni04D1" horiz-adv-x="516" unicode="ӑ" d="M247 379q-30 0 -59 -11.5t-51 -33t-35.5 -53.5t-13.5 -74q0 -35 10.5 -67t31 -57.5t50 -40.5t68.5 -15q38 0 67.5 15t49.5 40t30.5 57.5t10.5 67.5q0 45 -15 77.5t-38.5 53.5t-51.5 31t-54 10zM404 408h40v-408h-40v73q-31 -47 -75 -65.5t-84 -18.5t-76 14.5t-63.5 42.5 t-43.5 68t-16 90q0 47 14.5 86.5t40.5 67.5t62.5 43.5t81.5 15.5q48 0 89 -19t70 -61v71zM162 590q8 -29 32.5 -51t63.5 -22t63.5 22t32.5 51l34 -17q-4 -13 -12.5 -29.5t-24 -30.5t-38 -24t-55.5 -10t-55.5 10t-38 24t-24 30.5t-12.5 29.5z"/>
<glyph glyph-name="uni04D2" horiz-adv-x="586" unicode="Ӓ" d="M419 259l-125 316l-127 -316h252zM435 219h-284l-89 -219h-48l281 687l277 -687h-48zM348 780q0 16 11 27t27 11t27 -11t11 -27t-11 -27t-27 -11t-27 11t-11 27zM162 780q0 16 11 27t27 11t27 -11t11 -27t-11 -27t-27 -11t-27 11t-11 27z"/>
<glyph glyph-name="uni04D3" horiz-adv-x="516" unicode="ӓ" d="M247 379q-30 0 -59 -11.5t-51 -33t-35.5 -53.5t-13.5 -74q0 -35 10.5 -67t31 -57.5t50 -40.5t68.5 -15q38 0 67.5 15t49.5 40t30.5 57.5t10.5 67.5q0 45 -15 77.5t-38.5 53.5t-51.5 31t-54 10zM404 408h40v-408h-40v73q-31 -47 -75 -65.5t-84 -18.5t-76 14.5t-63.5 42.5 t-43.5 68t-16 90q0 47 14.5 86.5t40.5 67.5t62.5 43.5t81.5 15.5q48 0 89 -19t70 -61v71zM301 526q0 15 10.5 25.5t25.5 10.5t25.5 -10.5t10.5 -25.5t-10.5 -25.5t-25.5 -10.5t-25.5 10.5t-10.5 25.5zM135 526q0 15 10.5 25.5t25.5 10.5t25.5 -10.5t10.5 -25.5t-10.5 -25.5 t-25.5 -10.5t-25.5 10.5t-10.5 25.5z"/>
<glyph glyph-name="uni04D4" horiz-adv-x="852" unicode="Ӕ" d="M417 259l-127 314l-125 -314h252zM434 219h-285l-87 -219h-48l269 667h289l17 -40h-275l99 -242h268l17 -40h-268l124 -305h273l18 -40h-279h-43z"/>
<glyph glyph-name="uni04D5" horiz-adv-x="792" unicode="ӕ" d="M223 207q-69 0 -102.5 -27t-33.5 -64q0 -35 32 -62t98 -27q38 0 64 9t41.5 22.5t22.5 30t7 31.5q0 14 -6.5 29.5t-21.5 28t-39.5 21t-61.5 8.5zM705 236q-5 30 -18 56.5t-33 45.5t-46 30t-56 11t-55.5 -11t-45 -30.5t-32.5 -45.5t-17 -56h303zM397 198q1 -39 13 -70.5 t33 -54t50 -34.5t62 -12q28 0 51.5 8.5t41.5 22t31.5 29.5t22.5 32l34 -24q-28 -44 -73.5 -75t-108.5 -31q-60 0 -102.5 28t-65.5 74q-17 -52 -62 -77t-107 -25q-43 0 -75.5 11t-54 28.5t-32 40.5t-10.5 47q0 19 8 42t28.5 42t55 32t87.5 13q34 0 67 -7.5t64 -34.5 q1 10 1 19q0 24 -6.5 51.5t-24.5 52t-46 39t-66 14.5t-75.5 -11.5t-63.5 -25.5v41q29 14 64.5 24t76.5 10q57 0 100 -28.5t63 -85.5q26 52 71.5 83t103.5 31q36 0 70.5 -13.5t61.5 -40.5t44 -68.5t18 -96.5h-350z"/>
<glyph glyph-name="uni04D6" horiz-adv-x="464" unicode="Ӗ" d="M410 627h-276v-242h270v-40h-270v-305h276v-40h-320v667h320v-40zM145 822q10 -22 24.5 -35t29.5 -19.5t28.5 -8t22.5 -1.5t22.5 1.5t28.5 8t29.5 19.5t24.5 35l35 -19q-12 -26 -29 -42.5t-36.5 -26t-39 -13t-35.5 -3.5t-35.5 3.5t-39 13t-36.5 26t-29 42.5z"/>
<glyph glyph-name="uni04D7" horiz-adv-x="483" unicode="ӗ" d="M395 237q-4 30 -16.5 56t-32.5 45t-46 30t-56 11q-31 0 -57.5 -11t-46 -30.5t-32.5 -45t-17 -55.5h304zM88 199v-10q0 -33 11 -61q13 -32 36 -54.5t53 -34.5t62 -12q50 0 86 26t56 67l34 -20q-9 -17 -24 -36.5t-36.5 -36t-51 -27.5t-67.5 -11q-48 0 -85 16.5t-63 45.5 t-39.5 67.5t-13.5 83.5q0 53 17 93.5t44.5 67.5t63 40.5t73.5 13.5q41 0 77 -16t62 -45q27 -28 41 -68q14 -37 13 -83v-6h-349zM147 590q8 -29 32.5 -51t63.5 -22t63.5 22t32.5 51l34 -17q-4 -13 -12.5 -29.5t-24 -30.5t-38 -24t-55.5 -10t-55.5 10t-38 24t-24 30.5 t-12.5 29.5z"/>
<glyph glyph-name="uni04D8" horiz-adv-x="773" unicode="Ә" d="M100 280q2 -31 13 -70t30 -68q13 -21 35.5 -41t52 -36t66 -26t78.5 -10q60 0 110.5 20t88.5 54.5t62.5 80t32.5 96.5h-569zM673 320v10q-1 64 -23.5 119.5t-62.5 97t-95 65.5t-120 24q-63 0 -111.5 -22t-79.5 -48q-14 -11 -32 -30.5t-32 -43.5l-35 28q20 29 39.5 48 t40.5 36q39 30 88.5 51t120.5 21q73 0 136.5 -26t110.5 -72t74 -109t27 -137q0 -75 -26.5 -137.5t-72.5 -108.5t-109.5 -71.5t-136.5 -25.5q-23 0 -54 3.5t-65 15.5t-68.5 34t-63.5 59q-9 11 -20.5 29.5t-22.5 45.5t-18.5 62.5t-7.5 81.5h619z"/>
<glyph glyph-name="afii10846" horiz-adv-x="483" unicode="ә" d="M88 169q4 -30 16.5 -56t32.5 -45t46 -30t56 -11q31 0 57.5 11t46 30.5t32.5 45t17 55.5h-304zM395 207q0 42 -13 74t-35.5 54t-52 33t-61.5 11q-50 0 -86 -26t-56 -67l-34 20q9 17 24 36.5t36.5 36t51 27.5t67.5 11q48 0 85 -16.5t63 -45.5t39.5 -67.5t13.5 -83.5 q0 -53 -17 -93.5t-44.5 -67.5t-63.5 -40.5t-73 -13.5q-41 0 -76.5 15t-61.5 43.5t-40.5 68.5t-14.5 91h349z"/>
<glyph glyph-name="uni04DA" horiz-adv-x="773" unicode="Ӛ" d="M100 280q2 -31 13 -70t30 -68q13 -21 35.5 -41t52 -36t66 -26t78.5 -10q60 0 110.5 20t88.5 54.5t62.5 80t32.5 96.5h-569zM673 320v10q-1 64 -23.5 119.5t-62.5 97t-95 65.5t-120 24q-63 0 -111.5 -22t-79.5 -48q-14 -11 -32 -30.5t-32 -43.5l-35 28q20 29 39.5 48 t40.5 36q39 30 88.5 51t120.5 21q73 0 136.5 -26t110.5 -72t74 -109t27 -137q0 -75 -26.5 -137.5t-72.5 -108.5t-109.5 -71.5t-136.5 -25.5q-23 0 -54 3.5t-65 15.5t-68.5 34t-63.5 59q-9 11 -20.5 29.5t-22.5 45.5t-18.5 62.5t-7.5 81.5h619zM431 780q0 16 11 27t27 11 t27 -11t11 -27t-11 -27t-27 -11t-27 11t-11 27zM245 780q0 16 11 27t27 11t27 -11t11 -27t-11 -27t-27 -11t-27 11t-11 27z"/>
<glyph glyph-name="uni04DB" horiz-adv-x="483" unicode="ӛ" d="M88 169q4 -30 16.5 -56t32.5 -45t46 -30t56 -11q31 0 57.5 11t46 30.5t32.5 45t17 55.5h-304zM395 207q0 42 -13 74t-35.5 54t-52 33t-61.5 11q-50 0 -86 -26t-56 -67l-34 20q9 17 24 36.5t36.5 36t51 27.5t67.5 11q48 0 85 -16.5t63 -45.5t39.5 -67.5t13.5 -83.5 q0 -53 -17 -93.5t-44.5 -67.5t-63.5 -40.5t-73 -13.5q-41 0 -76.5 15t-61.5 43.5t-40.5 68.5t-14.5 91h349zM288 526q0 15 10.5 25.5t25.5 10.5t25.5 -10.5t10.5 -25.5t-10.5 -25.5t-25.5 -10.5t-25.5 10.5t-10.5 25.5zM122 526q0 15 10.5 25.5t25.5 10.5t25.5 -10.5 t10.5 -25.5t-10.5 -25.5t-25.5 -10.5t-25.5 10.5t-10.5 25.5z"/>
<glyph glyph-name="uni04DC" horiz-adv-x="796" unicode="Ӝ" d="M420 667v-314l282 314h58l-296 -323l318 -344h-58l-291 314l-13 -13v-301h-44v301l-13 13l-291 -314h-58l318 344l-296 323h58l282 -314v314h44zM453 780q0 16 11 27t27 11t27 -11t11 -27t-11 -27t-27 -11t-27 11t-11 27zM267 780q0 16 11 27t27 11t27 -11t11 -27 t-11 -27t-27 -11t-27 11t-11 27z"/>
<glyph glyph-name="uni04DD" horiz-adv-x="560" unicode="ӝ" d="M300 408v-194l184 194h52l-190 -196l206 -212h-54l-178 186l-20 -20v-166h-40v166l-20 20l-178 -186h-54l206 212l-190 196h52l184 -194v194h40zM327 526q0 15 10.5 25.5t25.5 10.5t25.5 -10.5t10.5 -25.5t-10.5 -25.5t-25.5 -10.5t-25.5 10.5t-10.5 25.5zM161 526 q0 15 10.5 25.5t25.5 10.5t25.5 -10.5t10.5 -25.5t-10.5 -25.5t-25.5 -10.5t-25.5 10.5t-10.5 25.5z"/>
<glyph glyph-name="uni04DE" horiz-adv-x="554" unicode="Ӟ" d="M104 581q23 38 66.5 66.5t114.5 28.5q26 0 59 -7.5t62 -35.5q20 -19 34 -48t14 -72q0 -54 -25.5 -90t-62.5 -56q66 -17 100 -65t34 -111q0 -60 -24 -100t-52 -60q-21 -15 -44 -23.5t-44 -12.5t-36.5 -5t-20.5 -1q-45 0 -81 12t-64 31.5t-48 45t-32 52.5l42 20 q13 -32 35 -55t47.5 -37.5t52.5 -21.5t51 -7q29 0 61.5 9.5t53.5 25.5q9 6 19 16.5t18.5 26t14 36.5t5.5 48q0 70 -47 109t-131 39h-60v40h60q25 0 48.5 9t42 26t30 42t11.5 57q0 22 -6.5 44t-24.5 42q-20 21 -44.5 29t-52.5 8q-37 0 -75 -17t-69 -65zM340 780q0 16 11 27 t27 11t27 -11t11 -27t-11 -27t-27 -11t-27 11t-11 27zM154 780q0 16 11 27t27 11t27 -11t11 -27t-11 -27t-27 -11t-27 11t-11 27z"/>
<glyph glyph-name="uni04DF" horiz-adv-x="400" unicode="ӟ" d="M72 345q6 11 16.5 23.5t26 23.5t37 18t49.5 7q20 0 45 -5t45 -24q13 -11 23 -30.5t10 -48.5q0 -60 -47 -85q27 -6 48 -27q13 -13 21 -33.5t8 -44.5q0 -31 -12.5 -57t-35.5 -43q-20 -15 -47.5 -22.5t-56.5 -7.5q-20 0 -48.5 5t-56.5 25q-7 5 -22.5 19.5t-28.5 40.5l36 23 q9 -20 21 -32.5t22 -19.5q20 -14 39.5 -18.5t37.5 -4.5q31 0 49.5 7.5t28.5 15.5q32 26 32 70q0 20 -8 35.5t-20 24.5q-17 13 -38 15.5t-37 2.5h-42v38h31q12 0 28.5 2.5t32.5 14.5q14 11 19.5 24.5t5.5 27.5q0 21 -7 33.5t-14 19.5q-8 7 -22.5 14t-40.5 7q-37 0 -60 -17.5 t-35 -39.5zM248 526q0 15 10.5 25.5t25.5 10.5t25.5 -10.5t10.5 -25.5t-10.5 -25.5t-25.5 -10.5t-25.5 10.5t-10.5 25.5zM82 526q0 15 10.5 25.5t25.5 10.5t25.5 -10.5t10.5 -25.5t-10.5 -25.5t-25.5 -10.5t-25.5 10.5t-10.5 25.5z"/>
<glyph glyph-name="uni04E2" horiz-adv-x="700" unicode="Ӣ" d="M566 556l-476 -573v684h44v-566l476 573v-674h-44v556zM215 794h270v-44h-270v44z"/>
<glyph glyph-name="uni04E3" horiz-adv-x="474" unicode="ӣ" d="M112 408v-327l290 350v-431h-40v325l-290 -350v433h40zM103 532h270v-39h-270v39z"/>
<glyph glyph-name="uni04E4" horiz-adv-x="700" unicode="Ӥ" d="M566 556l-476 -573v684h44v-566l476 573v-674h-44v556zM405 780q0 16 11 27t27 11t27 -11t11 -27t-11 -27t-27 -11t-27 11t-11 27zM219 780q0 16 11 27t27 11t27 -11t11 -27t-11 -27t-27 -11t-27 11t-11 27z"/>
<glyph glyph-name="uni04E5" horiz-adv-x="474" unicode="ӥ" d="M112 408v-327l290 350v-431h-40v325l-290 -350v433h40zM285 526q0 15 10.5 25.5t25.5 10.5t25.5 -10.5t10.5 -25.5t-10.5 -25.5t-25.5 -10.5t-25.5 10.5t-10.5 25.5zM119 526q0 15 10.5 25.5t25.5 10.5t25.5 -10.5t10.5 -25.5t-10.5 -25.5t-25.5 -10.5t-25.5 10.5 t-10.5 25.5z"/>
<glyph glyph-name="uni04E6" horiz-adv-x="800" unicode="Ӧ" d="M400 29q64 0 119 23.5t95.5 64.5t63 96t22.5 119t-22.5 119.5t-63 96.5t-95.5 64.5t-119 23.5q-65 0 -119.5 -23.5t-95 -64.5t-63 -96.5t-22.5 -119.5t22.5 -119t63 -96t95 -64.5t119.5 -23.5zM400 676q73 0 136.5 -27t110 -73.5t73 -109t26.5 -134.5t-26.5 -134.5 t-73 -109t-110 -73t-136.5 -26.5q-74 0 -137 26.5t-109.5 73t-73 109t-26.5 134.5t26.5 134.5t73 109t110 73.5t136.5 27zM455 780q0 16 11 27t27 11t27 -11t11 -27t-11 -27t-27 -11t-27 11t-11 27zM269 780q0 16 11 27t27 11t27 -11t11 -27t-11 -27t-27 -11t-27 11t-11 27z "/>
<glyph glyph-name="uni04E7" horiz-adv-x="520" unicode="ӧ" d="M260 27q37 0 68.5 13.5t54.5 37.5t36 56t13 69t-13 69t-36 56t-54.5 37.5t-68.5 13.5t-68.5 -13.5t-54.5 -37.5t-36 -56t-13 -69t13 -69t36 -56t54.5 -37.5t68.5 -13.5zM260 417q45 0 84.5 -16.5t68 -45t45 -68t16.5 -84.5t-16.5 -84.5t-45 -68t-68 -45t-84.5 -16.5 t-84.5 16.5t-68 45t-45 68t-16.5 84.5t16.5 84.5t45 68t68 45t84.5 16.5zM307 526q0 15 10.5 25.5t25.5 10.5t25.5 -10.5t10.5 -25.5t-10.5 -25.5t-25.5 -10.5t-25.5 10.5t-10.5 25.5zM141 526q0 15 10.5 25.5t25.5 10.5t25.5 -10.5t10.5 -25.5t-10.5 -25.5t-25.5 -10.5 t-25.5 10.5t-10.5 25.5z"/>
<glyph glyph-name="uni04E8" horiz-adv-x="800" unicode="Ө" d="M699 360q-6 63 -32 114t-66.5 87t-92 55.5t-108.5 19.5t-108.5 -19.5t-92 -55.5t-66.5 -87t-32 -114h598zM400 29q67 0 121.5 24t93.5 64t61 93t24 110h-600q2 -57 24 -110t61 -93t93.5 -64t121.5 -24zM400 676q73 0 136.5 -27t110 -73.5t73 -109t26.5 -134.5 t-26.5 -134.5t-73 -109t-110 -73t-136.5 -26.5t-136.5 26.5t-110 73t-73 109t-26.5 134.5t26.5 134.5t73 109t110 73.5t136.5 27z"/>
<glyph glyph-name="uni04E9" horiz-adv-x="520" unicode="ө" d="M431 227q-5 38 -21.5 66.5t-40.5 47.5t-52.5 28.5t-56.5 9.5t-56.5 -9.5t-52.5 -28.5t-40.5 -47.5t-21.5 -66.5h342zM89 189q2 -36 16.5 -66t38 -51.5t53.5 -33t63 -11.5t63 11.5t53 33t38 51.5t17 66h-342zM260 417q45 0 84.5 -16.5t68 -45t45 -68t16.5 -84.5 t-16.5 -84.5t-45 -68t-68 -45t-84.5 -16.5t-84.5 16.5t-68 45t-45 68t-16.5 84.5t16.5 84.5t45 68t68 45t84.5 16.5z"/>
<glyph glyph-name="uni04EA" horiz-adv-x="800" unicode="Ӫ" d="M699 360q-6 63 -32 114t-66.5 87t-92 55.5t-108.5 19.5t-108.5 -19.5t-92 -55.5t-66.5 -87t-32 -114h598zM400 29q67 0 121.5 24t93.5 64t61 93t24 110h-600q2 -57 24 -110t61 -93t93.5 -64t121.5 -24zM400 676q73 0 136.5 -27t110 -73.5t73 -109t26.5 -134.5 t-26.5 -134.5t-73 -109t-110 -73t-136.5 -26.5t-136.5 26.5t-110 73t-73 109t-26.5 134.5t26.5 134.5t73 109t110 73.5t136.5 27zM455 780q0 16 11 27t27 11t27 -11t11 -27t-11 -27t-27 -11t-27 11t-11 27zM269 780q0 16 11 27t27 11t27 -11t11 -27t-11 -27t-27 -11t-27 11 t-11 27z"/>
<glyph glyph-name="uni04EB" horiz-adv-x="520" unicode="ӫ" d="M431 227q-5 38 -21.5 66.5t-40.5 47.5t-52.5 28.5t-56.5 9.5t-56.5 -9.5t-52.5 -28.5t-40.5 -47.5t-21.5 -66.5h342zM89 189q2 -36 16.5 -66t38 -51.5t53.5 -33t63 -11.5t63 11.5t53 33t38 51.5t17 66h-342zM260 417q45 0 84.5 -16.5t68 -45t45 -68t16.5 -84.5 t-16.5 -84.5t-45 -68t-68 -45t-84.5 -16.5t-84.5 16.5t-68 45t-45 68t-16.5 84.5t16.5 84.5t45 68t68 45t84.5 16.5zM307 526q0 15 10.5 25.5t25.5 10.5t25.5 -10.5t10.5 -25.5t-10.5 -25.5t-25.5 -10.5t-25.5 10.5t-10.5 25.5zM141 526q0 15 10.5 25.5t25.5 10.5 t25.5 -10.5t10.5 -25.5t-10.5 -25.5t-25.5 -10.5t-25.5 10.5t-10.5 25.5z"/>
<glyph glyph-name="uni04EE" horiz-adv-x="550" unicode="Ӯ" d="M64 667l231 -432l195 432h46l-305 -667h-46l85 186l-256 481h50zM150 794h270v-44h-270v44z"/>
<glyph glyph-name="uni04EF" horiz-adv-x="428" unicode="ӯ" d="M202 -7l-194 415h46l171 -363l149 363h46l-268 -638h-47zM80 532h270v-39h-270v39z"/>
<glyph glyph-name="uni04F0" horiz-adv-x="550" unicode="Ӱ" d="M64 667l231 -432l195 432h46l-305 -667h-46l85 186l-256 481h50zM339 780q0 16 11 27t27 11t27 -11t11 -27t-11 -27t-27 -11t-27 11t-11 27zM153 780q0 16 11 27t27 11t27 -11t11 -27t-11 -27t-27 -11t-27 11t-11 27z"/>
<glyph glyph-name="uni04F1" horiz-adv-x="428" unicode="ӱ" d="M202 -7l-194 415h46l171 -363l149 363h46l-268 -638h-47zM268 526q0 15 10.5 25.5t25.5 10.5t25.5 -10.5t10.5 -25.5t-10.5 -25.5t-25.5 -10.5t-25.5 10.5t-10.5 25.5zM102 526q0 15 10.5 25.5t25.5 10.5t25.5 -10.5t10.5 -25.5t-10.5 -25.5t-25.5 -10.5t-25.5 10.5 t-10.5 25.5z"/>
<glyph glyph-name="uni04F2" horiz-adv-x="550" unicode="Ӳ" d="M64 667l231 -432l195 432h46l-305 -667h-46l85 186l-256 481h50zM438 828l-100 -125l-36 15l84 136zM317 828l-100 -125l-36 15l84 136z"/>
<glyph glyph-name="uni04F3" horiz-adv-x="428" unicode="ӳ" d="M202 -7l-194 415h46l171 -363l149 363h46l-268 -638h-47zM367 595l-99 -128l-27 16l84 137zM256 595l-99 -128l-27 16l84 137z"/>
<glyph glyph-name="uni04F4" horiz-adv-x="580" unicode="Ӵ" d="M446 300q-18 -1 -41.5 -2.5t-47 -2.5t-45 -1.5t-36.5 -0.5q-41 0 -74.5 4t-61.5 18q-24 12 -37.5 27t-21 33.5t-9.5 40.5t-2 48v203h44v-203q0 -14 0.5 -30t5.5 -32t16 -30t32 -24q19 -9 46.5 -12t75.5 -3q40 0 74.5 1.5t81.5 5.5v327h44v-667h-44v300zM345 780 q0 16 11 27t27 11t27 -11t11 -27t-11 -27t-27 -11t-27 11t-11 27zM159 780q0 16 11 27t27 11t27 -11t11 -27t-11 -27t-27 -11t-27 11t-11 27z"/>
<glyph glyph-name="uni04F5" horiz-adv-x="412" unicode="ӵ" d="M300 169q-25 -4 -54.5 -7t-52.5 -3q-7 0 -19 0.5t-25.5 3t-27.5 6.5t-24 12q-14 10 -21.5 23t-11 27.5t-4 28t-0.5 25.5v123h40v-123q0 -23 5 -43t22 -32q19 -13 61 -13q12 0 27.5 1t31 2.5t29.5 3t24 3.5v201h40v-408h-40v169zM254 526q0 15 10.5 25.5t25.5 10.5 t25.5 -10.5t10.5 -25.5t-10.5 -25.5t-25.5 -10.5t-25.5 10.5t-10.5 25.5zM88 526q0 15 10.5 25.5t25.5 10.5t25.5 -10.5t10.5 -25.5t-10.5 -25.5t-25.5 -10.5t-25.5 10.5t-10.5 25.5z"/>
<glyph glyph-name="uni04F8" horiz-adv-x="690" unicode="Ӹ" d="M600 667v-667h-44v667h44zM134 40h112q15 0 33 0.5t37.5 5t39 13t36.5 25.5q17 16 29.5 43.5t12.5 69.5q0 38 -14 70t-55 53q-29 15 -61.5 17.5t-65.5 2.5h-104v-300zM90 667h44v-287h116q30 0 70 -5t75.5 -24t60 -55t24.5 -99q0 -38 -12 -73t-37.5 -63t-67 -44.5 t-99.5 -16.5h-174v667zM400 780q0 16 11 27t27 11t27 -11t11 -27t-11 -27t-27 -11t-27 11t-11 27zM214 780q0 16 11 27t27 11t27 -11t11 -27t-11 -27t-27 -11t-27 11t-11 27z"/>
<glyph glyph-name="uni04F9" d="M428 408v-408h-40v408h40zM208 38q15 0 32 3t32 16q12 10 20 26t8 36q0 21 -8 37t-21 26t-30.5 14t-34.5 4h-94v-162h96zM112 408v-170h97q24 0 52.5 -6t51.5 -32q15 -17 22 -38.5t7 -42.5q0 -25 -9 -48t-27 -40q-23 -21 -49 -26t-49 -5h-136v408h40zM297 526 q0 15 10.5 25.5t25.5 10.5t25.5 -10.5t10.5 -25.5t-10.5 -25.5t-25.5 -10.5t-25.5 10.5t-10.5 25.5zM131 526q0 15 10.5 25.5t25.5 10.5t25.5 -10.5t10.5 -25.5t-10.5 -25.5t-25.5 -10.5t-25.5 10.5t-10.5 25.5z" unicode="ӹ"/>
<glyph glyph-name="uni1E9E" horiz-adv-x="560" unicode="ẞ" d="M90 500q0 32 11.5 67t46.5 66q29 26 65 34.5t61 8.5q26 0 57 -7t56 -24q29 -20 46 -50.5t16 -68.5l-143 -135q15 -2 33 -6.5t36.5 -11.5t36 -16t31.5 -21q28 -23 45.5 -55.5t17.5 -73.5q0 -39 -14.5 -73.5t-52.5 -69.5q-17 -15 -40 -26.5t-47.5 -19.5t-48.5 -12.5 t-43 -5.5v40q42 2 80 14t68 38q23 20 37.5 47.5t14.5 62.5q0 38 -19.5 68.5t-48.5 48.5q-32 20 -67 28t-65 10v40l142 137q-1 12 -7.5 33.5t-30.5 42.5q-18 16 -44.5 21t-46.5 5q-19 0 -46 -5.5t-49 -25.5q-44 -39 -44 -109v-496h-44v500z"/>
<glyph glyph-name="uni2010" horiz-adv-x="300" unicode="‐" d="M50 230h200v-46h-200v46z"/>
<glyph glyph-name="uni2011" horiz-adv-x="300" unicode="‑" d="M50 230h200v-46h-200v46z"/>
<glyph glyph-name="figuredash" horiz-adv-x="540" unicode="‒" d="M70 357h400v-38h-400v38z"/>
<glyph glyph-name="endash" horiz-adv-x="540" unicode="–" d="M70 226h400v-38h-400v38z"/>
<glyph glyph-name="emdash" horiz-adv-x="740" unicode="—" d="M70 226h600v-38h-600v38z"/>
<glyph glyph-name="afii00208" horiz-adv-x="740" unicode="―" d="M70 226h600v-38h-600v38z"/>
<glyph glyph-name="quoteleft" horiz-adv-x="228" unicode="‘" d="M104 465l-40 12l74 200l26 -10z"/>
<glyph glyph-name="quoteright" horiz-adv-x="228" unicode="’" d="M124 679l40 -12l-74 -200l-26 10z"/>
<glyph glyph-name="quotesinglbase" horiz-adv-x="254" unicode="‚" d="M124 65l40 -12l-74 -200l-26 10z"/>
<glyph glyph-name="quotedblleft" horiz-adv-x="344" unicode="“" d="M220 465l-40 12l74 200l26 -10zM104 465l-40 12l74 200l26 -10z"/>
<glyph glyph-name="quotedblright" horiz-adv-x="344" unicode="”" d="M240 679l40 -12l-74 -200l-26 10zM124 679l40 -12l-74 -200l-26 10z"/>
<glyph glyph-name="quotedblbase" horiz-adv-x="370" unicode="„" d="M240 65l40 -12l-74 -200l-26 10zM124 65l40 -12l-74 -200l-26 10z"/>
<glyph glyph-name="dagger" horiz-adv-x="548" unicode="†" d="M252 729h44v-240h160v-40h-160v-609h-44v609h-160v40h160v240z"/>
<glyph glyph-name="daggerdbl" horiz-adv-x="548" unicode="‡" d="M252 -160v264h-160v40h160v305h-160v40h160v240h44v-240h160v-40h-160v-305h160v-40h-160v-264h-44z"/>
<glyph glyph-name="bullet" horiz-adv-x="1000" unicode="•" d="M360 340q0 29 11 54.5t30 44.5t44.5 30t54.5 11t54.5 -11t44.5 -30t30 -44.5t11 -54.5t-11 -54.5t-30 -44.5t-44.5 -30t-54.5 -11t-54.5 11t-44.5 30t-30 44.5t-11 54.5z"/>
<glyph glyph-name="ellipsis" horiz-adv-x="606" unicode="…" d="M468 30q0 16 10.5 26.5t26.5 10.5t26.5 -10.5t10.5 -26.5t-10.5 -26.5t-26.5 -10.5t-26.5 10.5t-10.5 26.5zM266 30q0 16 10.5 26.5t26.5 10.5t26.5 -10.5t10.5 -26.5t-10.5 -26.5t-26.5 -10.5t-26.5 10.5t-10.5 26.5zM64 30q0 16 10.5 26.5t26.5 10.5t26.5 -10.5 t10.5 -26.5t-10.5 -26.5t-26.5 -10.5t-26.5 10.5t-10.5 26.5z"/>
<glyph glyph-name="perthousand" horiz-adv-x="930" unicode="‰" d="M761 30q24 0 42 8.5t30 22.5t17.5 30.5t5.5 33.5q0 16 -5.5 33t-17.5 31t-30 22.5t-42 8.5t-42 -8.5t-30 -22.5t-17.5 -31t-5.5 -33q0 -17 5.5 -33.5t17.5 -30.5t30 -22.5t42 -8.5zM761 256q62 0 98.5 -37t36.5 -94t-36.5 -94t-98.5 -37t-98.5 37t-36.5 94t36.5 94 t98.5 37zM439 30q24 0 42 8.5t30 22.5t17.5 30.5t5.5 33.5q0 16 -5.5 33t-17.5 31t-30 22.5t-42 8.5t-42 -8.5t-30 -22.5t-17.5 -31t-5.5 -33q0 -17 5.5 -33.5t17.5 -30.5t30 -22.5t42 -8.5zM439 256q62 0 98.5 -37t36.5 -94t-36.5 -94t-98.5 -37t-98.5 37t-36.5 94t36.5 94 t98.5 37zM486 682l30 -16l-394 -681l-30 16zM169 447q24 0 42 8.5t30 22.5t17.5 30.5t5.5 33.5q0 16 -5.5 33t-17.5 31t-30 22.5t-42 8.5t-42 -8.5t-30 -22.5t-17.5 -31t-5.5 -33q0 -17 5.5 -33.5t17.5 -30.5t30 -22.5t42 -8.5zM169 673q62 0 98.5 -37t36.5 -94t-36.5 -94 t-98.5 -37t-98.5 37t-36.5 94t36.5 94t98.5 37z"/>
<glyph glyph-name="guilsinglleft" horiz-adv-x="242" unicode="‹" d="M80 207l108 -126l-26 -24l-130 150l130 150l26 -24z"/>
<glyph glyph-name="guilsinglright" horiz-adv-x="242" unicode="›" d="M162 207l-108 126l26 24l130 -150l-130 -150l-26 24z"/>
<glyph glyph-name="fraction" horiz-adv-x="124" unicode="⁄" d="M244 682l30 -16l-394 -681l-30 16z"/>
<glyph glyph-name="uni2080" horiz-adv-x="330" unicode="₀" d="M165 31q25 0 41 11.5t26 24.5q24 31 31 67.5t7 65.5q0 32 -7 66t-31 66q-11 14 -26.5 25.5t-40.5 11.5t-40.5 -11.5t-26.5 -25.5q-24 -32 -31 -66t-7 -66q0 -29 7 -65.5t31 -67.5q10 -13 26 -24.5t41 -11.5zM165 405q23 0 48 -11.5t46 -36.5q23 -28 37 -68t14 -89 q0 -51 -14 -90t-37 -67q-18 -22 -41 -35t-53 -13t-53 13t-41 35q-23 28 -37 67t-14 90q0 49 14 89t37 68q21 25 46 36.5t48 11.5z"/>
<glyph glyph-name="uni2081" horiz-adv-x="330" unicode="₁" d="M152 364h-62l12 36h88v-400h-38v364z"/>
<glyph glyph-name="uni2082" horiz-adv-x="330" unicode="₂" d="M37 0l146 169q19 22 28 34t13 19q9 14 15 31.5t6 38.5q0 33 -21 55t-59 22q-13 0 -30 -4t-32 -21q-8 -9 -15 -23t-6 -34h-36q0 27 9 48.5t23 35.5q13 14 34.5 24t53.5 10q53 0 86 -32t33 -81q0 -42 -26 -83q-5 -6 -15.5 -21t-16.5 -22l-110 -130h166v-36h-246z"/>
<glyph glyph-name="uni2083" horiz-adv-x="330" unicode="₃" d="M84 98q2 -22 12 -37q10 -14 27.5 -22t34.5 -8q32 0 55 24t23 60q0 15 -7.5 34t-32.5 31q-13 6 -28.5 8.5t-27.5 1.5v36q14 0 29.5 4t28.5 13q14 10 23.5 25.5t9.5 35.5q0 26 -16.5 45.5t-48.5 19.5q-11 0 -24.5 -3.5t-24.5 -15.5q-7 -7 -12.5 -18.5t-5.5 -26.5h-36 q1 19 8 38.5t21 33.5q8 8 25.5 18t48.5 10q50 0 77.5 -29.5t27.5 -70.5q0 -27 -14 -54.5t-49 -41.5q33 -10 50.5 -36.5t17.5 -60.5q0 -26 -9 -47.5t-25 -37t-37.5 -24t-46.5 -8.5q-38 0 -61.5 17.5t-34.5 34.5q-14 23 -14 51h36z"/>
<glyph glyph-name="uni2084" horiz-adv-x="330" unicode="₄" d="M212 112v190l-134 -190h134zM250 112h56v-36h-56v-76h-38v76h-204l242 337v-301z"/>
<glyph glyph-name="uni2085" horiz-adv-x="330" unicode="₅" d="M282 364h-134l-30 -96q7 2 12.5 3t13.5 1q24 0 48 -8t43.5 -25t32 -43t12.5 -62q0 -33 -11.5 -59t-31 -44t-45 -27t-54.5 -9t-63 13t-57 53l38 10q17 -26 41 -33t41 -7q45 0 73.5 28.5t28.5 74.5q0 47 -27.5 74.5t-72.5 27.5q-25 0 -43.5 -5.5t-31.5 -12.5l58 182h36h123 v-36z"/>
<glyph glyph-name="uni2086" horiz-adv-x="330" unicode="₆" d="M165 31q43 0 72.5 28.5t29.5 74.5t-28.5 75.5t-73.5 29.5t-73.5 -29.5t-28.5 -75.5q0 -45 28.5 -74t73.5 -29zM209 384l-83 -119q20 10 46 10q28 0 52.5 -10.5t43 -29t29 -44t10.5 -56.5q0 -30 -10.5 -55.5t-29 -44.5t-45 -29.5t-58.5 -10.5q-36 0 -63 12.5t-44 33 t-25.5 45t-8.5 48.5q0 31 11 55t21 38l126 178z"/>
<glyph glyph-name="uni2087" horiz-adv-x="329" unicode="₇" d="M247 364h-218v36h290l-272 -404l-34 23z"/>
<glyph glyph-name="uni2088" horiz-adv-x="330" unicode="₈" d="M165 31q37 0 57.5 22.5t20.5 55.5q0 36 -21.5 58.5t-56.5 22.5t-56.5 -22.5t-21.5 -58.5q0 -33 20.5 -55.5t57.5 -22.5zM165 226q16 0 28.5 6.5t21.5 17t13.5 24t4.5 26.5q0 12 -4.5 24t-13 22t-21 16.5t-29.5 6.5t-29.5 -6.5t-21 -16.5t-13 -22t-4.5 -24 q0 -13 4.5 -26.5t13.5 -24t21.5 -17t28.5 -6.5zM115 208q-9 4 -18.5 11.5t-18 19t-14 26.5t-5.5 35q0 45 30 75t76 30t76 -30t30 -75q0 -20 -5.5 -35t-14 -26.5t-18 -19t-18.5 -11.5q25 -9 39 -25t20.5 -32t7.5 -29t1 -16q0 -52 -34.5 -81.5t-83.5 -29.5t-83.5 29.5 t-34.5 81.5q0 3 1 16t7.5 29t20 32t39.5 25z"/>
<glyph glyph-name="uni2089" horiz-adv-x="330" unicode="₉" d="M165 369q-43 0 -72.5 -28.5t-29.5 -74.5t28.5 -75.5t73.5 -29.5t73.5 29.5t28.5 75.5q0 45 -28.5 74t-73.5 29zM121 16l83 119q-20 -10 -46 -10q-28 0 -52.5 10.5t-43 29t-29 44t-10.5 56.5q0 30 10.5 55.5t29 44.5t45 29.5t58.5 10.5q36 0 63 -12.5t44 -33t25.5 -45 t8.5 -48.5q0 -31 -11 -55t-21 -38l-126 -178z"/>
<glyph glyph-name="Euro" horiz-adv-x="548" unicode="€" d="M484 592q-34 23 -72.5 33.5t-72.5 10.5q-51 0 -90 -19.5t-66.5 -49.5t-45 -66t-26.5 -70h325l-16 -40h-316q-4 -27 -4 -53t2 -50h278l-16 -40h-256q4 -24 15.5 -61t36.5 -72t65.5 -60.5t102.5 -25.5q50 0 95.5 18.5t80.5 52.5v-58q-46 -32 -93 -42.5t-82 -10.5 q-77 0 -126.5 28.5t-79.5 69t-43.5 85t-17.5 76.5h-68l16 40h46q-2 24 -2 50t4 53h-64l16 40h55q11 53 36 98t61.5 77.5t82.5 51t99 18.5q38 0 80 -11t80 -36z"/>
<glyph glyph-name="uni20B4" horiz-adv-x="548" unicode="₴" d="M108 581q14 18 33.5 35.5t41.5 30.5q51 29 112 29q9 0 22.5 -1t28 -5t29.5 -11.5t28 -20.5q18 -18 28 -43t10 -49q0 -30 -13 -61t-36 -54h90v-40h-127l-117 -103h244v-40h-281q-11 -12 -26 -39.5t-15 -69.5q0 -32 10 -51.5t21 -29.5q11 -11 31.5 -20t52.5 -9t56 11t47 31 q22 20 34.5 40t19.5 39l38 -18q-21 -47 -61 -86q-29 -28 -60.5 -42.5t-77.5 -14.5q-30 0 -58 7.5t-51 27.5q-17 14 -32.5 42.5t-15.5 74.5q0 37 12 63.5t25 43.5h-85v40h114l117 103h-231v40h267q28 23 45 52.5t17 59.5q0 18 -6 35t-16 28q-18 21 -41 25.5t-37 4.5 q-31 0 -54 -8t-39 -18q-4 -2 -23 -16t-39 -40z"/>
<glyph glyph-name="uni20B6" horiz-adv-x="548" unicode="₶" d="M186 357h88q35 0 63 11t46 28q22 21 29.5 46t7.5 50q0 29 -9 53.5t-30 44.5q-27 25 -57 31t-57 6h-81v-270zM142 667h129q34 0 74.5 -9.5t74.5 -44.5q20 -21 33 -51.5t13 -68.5q0 -35 -12 -67.5t-35 -55.5q-20 -21 -55.5 -37t-91.5 -16h-86v-90h167v-40h-167v-187h-44 v187h-75v40h75v90h-75v40h75v310z"/>
<glyph glyph-name="uni20B6" horiz-adv-x="548" unicode="⃎" d="M186 357h88q35 0 63 11t46 28q22 21 29.5 46t7.5 50q0 29 -9 53.5t-30 44.5q-27 25 -57 31t-57 6h-81v-270zM142 667h129q34 0 74.5 -9.5t74.5 -44.5q20 -21 33 -51.5t13 -68.5q0 -35 -12 -67.5t-35 -55.5q-20 -21 -55.5 -37t-91.5 -16h-86v-90h167v-40h-167v-187h-44 v187h-75v40h75v90h-75v40h75v310z"/>
<glyph glyph-name="uni20B6" horiz-adv-x="548" unicode="⃍" d="M186 357h88q35 0 63 11t46 28q22 21 29.5 46t7.5 50q0 29 -9 53.5t-30 44.5q-27 25 -57 31t-57 6h-81v-270zM142 667h129q34 0 74.5 -9.5t74.5 -44.5q20 -21 33 -51.5t13 -68.5q0 -35 -12 -67.5t-35 -55.5q-20 -21 -55.5 -37t-91.5 -16h-86v-90h167v-40h-167v-187h-44 v187h-75v40h75v90h-75v40h75v310z"/>
<glyph glyph-name="uni20B6" horiz-adv-x="548" unicode="⃌" d="M186 357h88q35 0 63 11t46 28q22 21 29.5 46t7.5 50q0 29 -9 53.5t-30 44.5q-27 25 -57 31t-57 6h-81v-270zM142 667h129q34 0 74.5 -9.5t74.5 -44.5q20 -21 33 -51.5t13 -68.5q0 -35 -12 -67.5t-35 -55.5q-20 -21 -55.5 -37t-91.5 -16h-86v-90h167v-40h-167v-187h-44 v187h-75v40h75v90h-75v40h75v310z"/>
<glyph glyph-name="uni20B6" horiz-adv-x="548" unicode="⃋" d="M186 357h88q35 0 63 11t46 28q22 21 29.5 46t7.5 50q0 29 -9 53.5t-30 44.5q-27 25 -57 31t-57 6h-81v-270zM142 667h129q34 0 74.5 -9.5t74.5 -44.5q20 -21 33 -51.5t13 -68.5q0 -35 -12 -67.5t-35 -55.5q-20 -21 -55.5 -37t-91.5 -16h-86v-90h167v-40h-167v-187h-44 v187h-75v40h75v90h-75v40h75v310z"/>
<glyph glyph-name="uni20B6" horiz-adv-x="548" unicode="⃊" d="M186 357h88q35 0 63 11t46 28q22 21 29.5 46t7.5 50q0 29 -9 53.5t-30 44.5q-27 25 -57 31t-57 6h-81v-270zM142 667h129q34 0 74.5 -9.5t74.5 -44.5q20 -21 33 -51.5t13 -68.5q0 -35 -12 -67.5t-35 -55.5q-20 -21 -55.5 -37t-91.5 -16h-86v-90h167v-40h-167v-187h-44 v187h-75v40h75v90h-75v40h75v310z"/>
<glyph glyph-name="uni20B6" horiz-adv-x="548" unicode="⃉" d="M186 357h88q35 0 63 11t46 28q22 21 29.5 46t7.5 50q0 29 -9 53.5t-30 44.5q-27 25 -57 31t-57 6h-81v-270zM142 667h129q34 0 74.5 -9.5t74.5 -44.5q20 -21 33 -51.5t13 -68.5q0 -35 -12 -67.5t-35 -55.5q-20 -21 -55.5 -37t-91.5 -16h-86v-90h167v-40h-167v-187h-44 v187h-75v40h75v90h-75v40h75v310z"/>
<glyph glyph-name="uni20B6" horiz-adv-x="548" unicode="⃈" d="M186 357h88q35 0 63 11t46 28q22 21 29.5 46t7.5 50q0 29 -9 53.5t-30 44.5q-27 25 -57 31t-57 6h-81v-270zM142 667h129q34 0 74.5 -9.5t74.5 -44.5q20 -21 33 -51.5t13 -68.5q0 -35 -12 -67.5t-35 -55.5q-20 -21 -55.5 -37t-91.5 -16h-86v-90h167v-40h-167v-187h-44 v187h-75v40h75v90h-75v40h75v310z"/>
<glyph glyph-name="uni20B6" horiz-adv-x="548" unicode="⃇" d="M186 357h88q35 0 63 11t46 28q22 21 29.5 46t7.5 50q0 29 -9 53.5t-30 44.5q-27 25 -57 31t-57 6h-81v-270zM142 667h129q34 0 74.5 -9.5t74.5 -44.5q20 -21 33 -51.5t13 -68.5q0 -35 -12 -67.5t-35 -55.5q-20 -21 -55.5 -37t-91.5 -16h-86v-90h167v-40h-167v-187h-44 v187h-75v40h75v90h-75v40h75v310z"/>
<glyph glyph-name="uni20B6" horiz-adv-x="548" unicode="⃆" d="M186 357h88q35 0 63 11t46 28q22 21 29.5 46t7.5 50q0 29 -9 53.5t-30 44.5q-27 25 -57 31t-57 6h-81v-270zM142 667h129q34 0 74.5 -9.5t74.5 -44.5q20 -21 33 -51.5t13 -68.5q0 -35 -12 -67.5t-35 -55.5q-20 -21 -55.5 -37t-91.5 -16h-86v-90h167v-40h-167v-187h-44 v187h-75v40h75v90h-75v40h75v310z"/>
<glyph glyph-name="uni20B6" horiz-adv-x="548" unicode="⃅" d="M186 357h88q35 0 63 11t46 28q22 21 29.5 46t7.5 50q0 29 -9 53.5t-30 44.5q-27 25 -57 31t-57 6h-81v-270zM142 667h129q34 0 74.5 -9.5t74.5 -44.5q20 -21 33 -51.5t13 -68.5q0 -35 -12 -67.5t-35 -55.5q-20 -21 -55.5 -37t-91.5 -16h-86v-90h167v-40h-167v-187h-44 v187h-75v40h75v90h-75v40h75v310z"/>
<glyph glyph-name="uni20B6" horiz-adv-x="548" unicode="⃄" d="M186 357h88q35 0 63 11t46 28q22 21 29.5 46t7.5 50q0 29 -9 53.5t-30 44.5q-27 25 -57 31t-57 6h-81v-270zM142 667h129q34 0 74.5 -9.5t74.5 -44.5q20 -21 33 -51.5t13 -68.5q0 -35 -12 -67.5t-35 -55.5q-20 -21 -55.5 -37t-91.5 -16h-86v-90h167v-40h-167v-187h-44 v187h-75v40h75v90h-75v40h75v310z"/>
<glyph glyph-name="uni20B6" horiz-adv-x="548" unicode="⃃" d="M186 357h88q35 0 63 11t46 28q22 21 29.5 46t7.5 50q0 29 -9 53.5t-30 44.5q-27 25 -57 31t-57 6h-81v-270zM142 667h129q34 0 74.5 -9.5t74.5 -44.5q20 -21 33 -51.5t13 -68.5q0 -35 -12 -67.5t-35 -55.5q-20 -21 -55.5 -37t-91.5 -16h-86v-90h167v-40h-167v-187h-44 v187h-75v40h75v90h-75v40h75v310z"/>
<glyph glyph-name="uni20B6" horiz-adv-x="548" unicode="⃂" d="M186 357h88q35 0 63 11t46 28q22 21 29.5 46t7.5 50q0 29 -9 53.5t-30 44.5q-27 25 -57 31t-57 6h-81v-270zM142 667h129q34 0 74.5 -9.5t74.5 -44.5q20 -21 33 -51.5t13 -68.5q0 -35 -12 -67.5t-35 -55.5q-20 -21 -55.5 -37t-91.5 -16h-86v-90h167v-40h-167v-187h-44 v187h-75v40h75v90h-75v40h75v310z"/>
<glyph glyph-name="uni20B6" horiz-adv-x="548" unicode="⃁" d="M186 357h88q35 0 63 11t46 28q22 21 29.5 46t7.5 50q0 29 -9 53.5t-30 44.5q-27 25 -57 31t-57 6h-81v-270zM142 667h129q34 0 74.5 -9.5t74.5 -44.5q20 -21 33 -51.5t13 -68.5q0 -35 -12 -67.5t-35 -55.5q-20 -21 -55.5 -37t-91.5 -16h-86v-90h167v-40h-167v-187h-44 v187h-75v40h75v90h-75v40h75v310z"/>
<glyph glyph-name="uni20B6" horiz-adv-x="548" unicode="⃀" d="M186 357h88q35 0 63 11t46 28q22 21 29.5 46t7.5 50q0 29 -9 53.5t-30 44.5q-27 25 -57 31t-57 6h-81v-270zM142 667h129q34 0 74.5 -9.5t74.5 -44.5q20 -21 33 -51.5t13 -68.5q0 -35 -12 -67.5t-35 -55.5q-20 -21 -55.5 -37t-91.5 -16h-86v-90h167v-40h-167v-187h-44 v187h-75v40h75v90h-75v40h75v310z"/>
<glyph glyph-name="uni20B6" horiz-adv-x="548" unicode="₿" d="M186 357h88q35 0 63 11t46 28q22 21 29.5 46t7.5 50q0 29 -9 53.5t-30 44.5q-27 25 -57 31t-57 6h-81v-270zM142 667h129q34 0 74.5 -9.5t74.5 -44.5q20 -21 33 -51.5t13 -68.5q0 -35 -12 -67.5t-35 -55.5q-20 -21 -55.5 -37t-91.5 -16h-86v-90h167v-40h-167v-187h-44 v187h-75v40h75v90h-75v40h75v310z"/>
<glyph glyph-name="uni20B6" horiz-adv-x="548" unicode="₾" d="M186 357h88q35 0 63 11t46 28q22 21 29.5 46t7.5 50q0 29 -9 53.5t-30 44.5q-27 25 -57 31t-57 6h-81v-270zM142 667h129q34 0 74.5 -9.5t74.5 -44.5q20 -21 33 -51.5t13 -68.5q0 -35 -12 -67.5t-35 -55.5q-20 -21 -55.5 -37t-91.5 -16h-86v-90h167v-40h-167v-187h-44 v187h-75v40h75v90h-75v40h75v310z"/>
<glyph glyph-name="uni20B6" horiz-adv-x="548" unicode="₽" d="M186 357h88q35 0 63 11t46 28q22 21 29.5 46t7.5 50q0 29 -9 53.5t-30 44.5q-27 25 -57 31t-57 6h-81v-270zM142 667h129q34 0 74.5 -9.5t74.5 -44.5q20 -21 33 -51.5t13 -68.5q0 -35 -12 -67.5t-35 -55.5q-20 -21 -55.5 -37t-91.5 -16h-86v-90h167v-40h-167v-187h-44 v187h-75v40h75v90h-75v40h75v310z"/>
<glyph glyph-name="uni20B6" horiz-adv-x="548" unicode="₼" d="M186 357h88q35 0 63 11t46 28q22 21 29.5 46t7.5 50q0 29 -9 53.5t-30 44.5q-27 25 -57 31t-57 6h-81v-270zM142 667h129q34 0 74.5 -9.5t74.5 -44.5q20 -21 33 -51.5t13 -68.5q0 -35 -12 -67.5t-35 -55.5q-20 -21 -55.5 -37t-91.5 -16h-86v-90h167v-40h-167v-187h-44 v187h-75v40h75v90h-75v40h75v310z"/>
<glyph glyph-name="uni20B6" horiz-adv-x="548" unicode="₻" d="M186 357h88q35 0 63 11t46 28q22 21 29.5 46t7.5 50q0 29 -9 53.5t-30 44.5q-27 25 -57 31t-57 6h-81v-270zM142 667h129q34 0 74.5 -9.5t74.5 -44.5q20 -21 33 -51.5t13 -68.5q0 -35 -12 -67.5t-35 -55.5q-20 -21 -55.5 -37t-91.5 -16h-86v-90h167v-40h-167v-187h-44 v187h-75v40h75v90h-75v40h75v310z"/>
<glyph glyph-name="uni20B6" horiz-adv-x="548" unicode="₺" d="M186 357h88q35 0 63 11t46 28q22 21 29.5 46t7.5 50q0 29 -9 53.5t-30 44.5q-27 25 -57 31t-57 6h-81v-270zM142 667h129q34 0 74.5 -9.5t74.5 -44.5q20 -21 33 -51.5t13 -68.5q0 -35 -12 -67.5t-35 -55.5q-20 -21 -55.5 -37t-91.5 -16h-86v-90h167v-40h-167v-187h-44 v187h-75v40h75v90h-75v40h75v310z"/>
<glyph glyph-name="uni20B6" horiz-adv-x="548" unicode="₹" d="M186 357h88q35 0 63 11t46 28q22 21 29.5 46t7.5 50q0 29 -9 53.5t-30 44.5q-27 25 -57 31t-57 6h-81v-270zM142 667h129q34 0 74.5 -9.5t74.5 -44.5q20 -21 33 -51.5t13 -68.5q0 -35 -12 -67.5t-35 -55.5q-20 -21 -55.5 -37t-91.5 -16h-86v-90h167v-40h-167v-187h-44 v187h-75v40h75v90h-75v40h75v310z"/>
<glyph glyph-name="uni20B6" horiz-adv-x="548" unicode="₷" d="M186 357h88q35 0 63 11t46 28q22 21 29.5 46t7.5 50q0 29 -9 53.5t-30 44.5q-27 25 -57 31t-57 6h-81v-270zM142 667h129q34 0 74.5 -9.5t74.5 -44.5q20 -21 33 -51.5t13 -68.5q0 -35 -12 -67.5t-35 -55.5q-20 -21 -55.5 -37t-91.5 -16h-86v-90h167v-40h-167v-187h-44 v187h-75v40h75v90h-75v40h75v310z"/>
<glyph glyph-name="uni20B8" horiz-adv-x="548" unicode="₸" d="M79 627v40h390v-40h-390zM296 537v-537h-44v537h-173v40h390v-40h-173z"/>
<glyph glyph-name="afii61352" horiz-adv-x="940" unicode="№" d="M658 325h230v-46h-230v46zM773 441q24 0 42 8.5t30 22.5t17.5 30.5t5.5 33.5q0 16 -5.5 33t-17.5 31t-30 22.5t-42 8.5t-42 -8.5t-30 -22.5t-17.5 -31t-5.5 -33q0 -17 5.5 -33.5t17.5 -30.5t30 -22.5t42 -8.5zM773 667q62 0 98.5 -37t36.5 -94t-36.5 -94t-98.5 -37 t-98.5 37t-36.5 94t36.5 94t98.5 37zM90 0v674l448 -564v557h44v-684l-448 564v-547h-44z"/>
<glyph glyph-name="uni2117" horiz-adv-x="740" unicode="℗" d="M370 647q-57 0 -111 -21t-99 -63q-45 -43 -72 -104t-27 -125q0 -65 27 -126t72 -104q45 -42 99 -63t111 -21t111 21t99 63q45 43 72 104t27 126q0 64 -27 125t-72 104q-45 42 -99 63t-111 21zM713 334q0 -63 -26 -130t-78 -118q-43 -42 -103.5 -69t-135.5 -27t-135.5 27 t-103.5 69q-52 51 -78 118t-26 130q0 31 6.5 64t19.5 65t32.5 62t45.5 56q43 42 103.5 69t135.5 27t135.5 -27t103.5 -69q26 -26 45.5 -56t32.5 -62t19.5 -65t6.5 -64zM331 337h32q11 0 29.5 2.5t32.5 16.5q17 17 17 50q0 24 -6.5 35.5t-10.5 15.5q-6 6 -19 11.5t-37 5.5 h-38v-137zM368 505q17 0 40 -4.5t42 -21.5q10 -9 18.5 -26t8.5 -45t-8 -45t-19 -28q-18 -18 -42 -23.5t-50 -5.5h-27v-171h-34v370h71z"/>
<glyph glyph-name="trademark" horiz-adv-x="720" unicode="™" d="M265 287l45 410l163 -348l164 348l45 -410h-38l-31 277l-140 -299l-140 299l-30 -277h-38zM133 631v-344h-40v344h-93v36h226v-36h-93z"/>
<glyph glyph-name="partialdiff" horiz-adv-x="516" unicode="∂" d="M428 218q0 38 -11.5 71t-33 57.5t-52 38.5t-69.5 14q-38 0 -69.5 -14t-55 -39t-36.5 -60t-13 -76q0 -45 15.5 -79t40 -57.5t55 -35t60.5 -11.5q32 0 62.5 12.5t54 36.5t38 59.5t14.5 82.5zM110 673q45 -5 77 -15.5t47 -17.5q39 -17 68.5 -40t52 -47.5t38 -48.5t24.5 -42 q26 -50 39.5 -108t13.5 -121q0 -47 -9.5 -83.5t-27.5 -65.5q-31 -50 -78.5 -72.5t-95.5 -22.5t-87 18t-67 48.5t-43.5 71t-15.5 85.5q0 46 16 87t44.5 72t68 48.5t87.5 17.5q29 0 52.5 -7.5t41.5 -18.5t31 -25t22 -27h2q-11 43 -29 77t-32 55q-29 42 -63 69.5t-75 45.5 q-23 11 -50.5 18.5t-56.5 11.5z"/>
<glyph glyph-name="product" horiz-adv-x="678" unicode="∏" d="M34 750h610v-40h-77v-920h77v-40h-202v40h81v920h-369v-920h80v-40h-200v40h76v920h-76v40z"/>
<glyph glyph-name="summation" horiz-adv-x="666" unicode="∑" d="M586 750v-215h-40v175h-465l253 -439l-256 -481h476v173h40v-213h-562v46l252 476l-252 432v46h554z"/>
<glyph glyph-name="minus" d="M33 348h434v-38h-434v38z" unicode="−"/>
<glyph glyph-name="uni2215" horiz-adv-x="468" unicode="∕" d="M470 743l32 -16l-504 -901l-32 16z"/>
<glyph glyph-name="uni2219" horiz-adv-x="200" unicode="∙" d="M52 340q0 20 14 34t34 14t34 -14t14 -34t-14 -34t-34 -14t-34 14t-14 34z"/>
<glyph glyph-name="radical" horiz-adv-x="668" unicode="√" d="M668 827v-38h-208l-244 -789h-43l-96 315h-77v38h109l84 -286h3l231 760h241z"/>
<glyph glyph-name="infinity" horiz-adv-x="667" unicode="∞" d="M313 340q-9 16 -23 35.5t-32.5 36.5t-42 28.5t-50.5 11.5q-47 0 -76 -31t-29 -80q0 -51 29.5 -82t76.5 -31q14 0 30.5 4t35 16t38.5 34t43 58zM354 341q12 -23 28 -43.5t35.5 -36t41 -24.5t43.5 -9q24 0 43.5 9t33 24t21 35.5t7.5 43.5q0 50 -29.5 81t-76.5 31 q-15 0 -31.5 -4t-35 -16t-38.5 -33.5t-42 -57.5zM334 312q-12 -23 -30 -44.5t-39.5 -38.5t-47 -27t-53.5 -10q-31 0 -57.5 11t-45.5 31t-30 47.5t-11 60.5q0 32 11 58.5t30 46t45.5 30.5t58.5 11q26 0 50.5 -9.5t46.5 -26t40 -38t31 -45.5q11 20 27.5 41t38.5 38.5t48 28.5 t57 11q32 0 58.5 -11t45 -30.5t29 -46.5t10.5 -60t-10.5 -60.5t-29 -47t-45 -30t-58.5 -10.5q-31 0 -57 11t-47.5 28.5t-38 39t-27.5 41.5z"/>
<glyph glyph-name="integral" d="M366 703q-5 3 -15 7t-27 4q-15 0 -24 -4t-14 -9q-11 -11 -13.5 -31t-2.5 -37v-766q0 -8 -0.5 -21t-3 -26.5t-8 -26.5t-15.5 -22q-11 -11 -30 -16t-37 -5q-10 0 -24.5 2.5t-29.5 8.5l12 36q5 -3 15 -7t27 -4q15 0 24 4t14 9q11 11 13.5 31t2.5 37v766q0 8 0.5 21t3 26.5 t8 26.5t15.5 22q11 11 30 16t37 5q10 0 24.5 -2.5t29.5 -8.5z" unicode="∫"/>
<glyph glyph-name="approxequal" d="M12 211q9 19 21.5 36.5t25.5 30.5q14 13 34.5 24t50.5 11q28 0 56 -12.5t57 -27.5q22 -11 37.5 -18.5t27 -11.5t20.5 -5.5t18 -1.5q38 0 65 27q11 11 20.5 25.5t15.5 25.5l27 -16q-3 -6 -13 -23.5t-26 -34.5q-17 -18 -40 -30t-55 -12q-26 0 -57 12t-78 38 q-17 10 -35.5 18.5t-42.5 8.5q-37 0 -64 -26q-12 -11 -21.5 -25.5t-16.5 -28.5zM12 358q9 19 21.5 36.5t25.5 30.5q14 13 34.5 24t50.5 11q28 0 56 -12.5t57 -27.5q22 -11 37.5 -18.5t27 -11.5t20.5 -5.5t18 -1.5q38 0 65 27q11 11 20.5 25.5t15.5 25.5l27 -16 q-3 -6 -13 -23.5t-26 -34.5q-17 -18 -40 -30t-55 -12q-26 0 -57 12t-78 38q-17 10 -35.5 18.5t-42.5 8.5q-37 0 -64 -26q-12 -11 -21.5 -25.5t-16.5 -28.5z" unicode="≈"/>
<glyph glyph-name="notequal" d="M33 419h243l55 117h36l-55 -117h155v-38h-173l-49 -104h222v-38h-240l-58 -123h-36l58 123h-158v38h176l49 104h-225v38z" unicode="≠"/>
<glyph glyph-name="lessequal" d="M467 118v-38h-434v38h434zM467 570v-41l-390 -170l390 -170v-41l-434 192v38z" unicode="≤"/>
<glyph glyph-name="greaterequal" d="M467 118v-38h-434v38h434zM33 148v41l390 170l-390 170v41l434 -192v-38z" unicode="≥"/>
<glyph glyph-name="dotmath" horiz-adv-x="200" unicode="⋅" d="M52 340q0 20 14 34t34 14t34 -14t14 -34t-14 -34t-34 -14t-34 14t-14 34z"/>
<glyph glyph-name="lozenge" horiz-adv-x="700" unicode="◊" d="M350 628l-214 -294l214 -294l214 294zM350 694l260 -360l-260 -360l-260 360z"/>
<glyph glyph-name="openbullet" d="M250 639q-48 0 -75.5 -29.5t-27.5 -73.5t27.5 -73.5t75.5 -29.5t75.5 29.5t27.5 73.5t-27.5 73.5t-75.5 29.5zM250 667q30 0 55 -10t42.5 -27t27.5 -41.5t10 -52.5q0 -29 -10 -53t-27.5 -41t-42.5 -27t-55 -10t-55 10t-42.5 27t-27.5 41t-10 53q0 28 10 52.5t27.5 41.5 t42.5 27t55 10z" unicode="◦"/>
<glyph glyph-name="uniF400" horiz-adv-x="2" unicode="" d="M-130 595l-105 -128l-30 16l92 137z"/>
<glyph glyph-name="uniF401" horiz-adv-x="2" unicode="" d="M-132 829l-134 -126l-32 18l116 133z"/>
<glyph glyph-name="uniF406" d="M163 826q4 -14 11 -21.5t13 -12.5q13 -10 31 -14t32 -4t32 4t31 14q6 5 13 12.5t11 21.5h40q-2 -11 -7.5 -26.5t-21.5 -31.5q-15 -15 -40 -25.5t-58 -10.5t-58 10.5t-40 25.5q-16 16 -21.5 31.5t-7.5 26.5h40z" unicode=""/>
<glyph glyph-name="uniF407" d="M316 -76l-108 -126l-30 18l92 134z" unicode=""/>
<glyph glyph-name="uniF408" d="M154 722l-34 27l130 90l130 -90l-34 -27l-96 64z" unicode=""/>
<glyph glyph-name="uniF409" d="M239 -50l44 -14l-62 -136l-28 10z" unicode=""/>
<glyph glyph-name="uniF40A" d="M239 680l44 -14l-62 -156l-28 10z" unicode=""/>
<glyph glyph-name="uniF40B" d="M209 781q0 18 11.5 29.5t29.5 11.5t29.5 -11.5t11.5 -29.5t-11.5 -29.5t-29.5 -11.5t-29.5 11.5t-11.5 29.5z" unicode=""/>
<glyph glyph-name="uniF40C" d="M209 787q0 -18 11.5 -29.5t29.5 -11.5t29.5 11.5t11.5 29.5t-11.5 29.5t-29.5 11.5t-29.5 -11.5t-11.5 -29.5zM170 787q0 33 23.5 56.5t56.5 23.5t56.5 -23.5t23.5 -56.5t-23.5 -56.5t-56.5 -23.5t-56.5 23.5t-23.5 56.5z" unicode=""/>
<glyph glyph-name="uniF40D" d="M120 739q4 8 10 19t13 19q9 10 20.5 16t24.5 6q14 0 29 -4.5t35 -12.5l32.5 -13t26.5 -5q9 0 14 3t11 9q11 13 15 26l29 -22q-4 -11 -11 -23t-17 -20q-12 -11 -24.5 -14t-21.5 -3q-12 0 -25 4.5t-33 12.5q-14 6 -29 12t-29 6q-17 0 -28 -14q-3 -4 -7 -11.5t-6 -12.5z" unicode=""/>
<glyph glyph-name="uniF40E" d="M351 -174q-8 -3 -19 -5.5t-26 -2.5q-45 0 -72.5 23.5t-27.5 59.5q0 33 23 62q8 11 19.5 20t23.5 17h44q-14 -9 -26 -20t-20 -22q-10 -13 -16 -27t-6 -28q0 -20 14 -34.5t46 -14.5q8 0 20 1.5t32 7.5z" unicode=""/>
<glyph glyph-name="uniF4C6" horiz-adv-x="580" unicode="" d="M490 -91q0 -12 -1 -27t-5 -31t-11.5 -30.5t-20.5 -26.5q-17 -16 -35 -20t-34 -4q-12 0 -23 1t-24 6v41q16 -6 37 -6q11 0 25 3.5t25 14.5q17 17 20 44t3 47v379q-18 -1 -41.5 -2.5t-47 -2.5t-45 -1.5t-36.5 -0.5q-41 0 -74.5 4t-61.5 18q-24 12 -37.5 27t-21 33.5 t-9.5 40.5t-2 48v203h44v-203q0 -14 1 -30t6 -32t16 -30t31 -24q19 -9 46.5 -12t75.5 -3q40 0 74.5 1.5t81.5 5.5v327h44v-758z"/>
<glyph glyph-name="uniF4C7" horiz-adv-x="412" unicode="" d="M340 408v-499q0 -52 -13 -78t-25 -37q-15 -14 -32 -19t-36 -5q-20 0 -36 6v37q17 -5 31 -5q18 0 29 5.5t17 11.5q18 17 21.5 44.5t3.5 47.5v252q-23 -4 -52 -7t-54 -3q-23 0 -50.5 4t-46.5 18q-14 10 -21.5 23t-11 27.5t-4 28t-0.5 25.5v123h40v-123q0 -23 5 -43t22 -32 q8 -5 22 -9t40 -4t57.5 3.5t53.5 6.5v201h40z"/>
<glyph glyph-name="uniF4CC" horiz-adv-x="550" unicode="" d="M64 667l231 -432l195 432h46l-305 -667h-46l85 186l-256 481h50zM391 829l-134 -126l-32 18l116 133z"/>
<glyph glyph-name="uniF4CD" horiz-adv-x="428" unicode="" d="M202 -7l-194 415h46l171 -363l149 363h46l-268 -638h-47zM313 595l-105 -128l-30 16l92 137z"/>
<glyph glyph-name="dollar.fitted" horiz-adv-x="429" unicode="" d="M207 636q-27 -2 -47.5 -13t-35 -28.5t-21.5 -39t-7 -43.5q0 -45 28 -74t83 -52v250zM247 32q29 6 52 20.5t39 35t24.5 45t8.5 50.5q0 27 -13.5 54.5t-51.5 50.5q-5 2 -16 8.5t-43 22.5v-287zM351 554q-2 4 -8.5 16t-19.5 25t-31.5 25t-44.5 16v-270q35 -16 58.5 -28.5 t40.5 -24.5q11 -8 23.5 -18.5t23 -26t17.5 -36t7 -48.5q0 -32 -11.5 -64t-33.5 -58.5t-53.5 -45t-71.5 -24.5v-99h-40v96q-31 0 -55.5 7t-43 17.5t-32 22.5t-22.5 23q-20 23 -29 41.5t-14 31.5l38 18q7 -20 17.5 -37.5t18.5 -26.5q23 -29 56.5 -42.5t65.5 -14.5v310l-25 12 q-48 23 -72 40.5t-39 42.5q-11 19 -16 37.5t-5 38.5q0 33 11.5 62.5t32 52t49.5 36t64 15.5v89h40v-89q6 -1 22.5 -4t36.5 -13t40.5 -28.5t36.5 -49.5z"/>
<glyph glyph-name="Euro.fitted" horiz-adv-x="552" unicode="" d="M506 592q-34 23 -72.5 33.5t-72.5 10.5q-51 0 -90 -19.5t-66.5 -49.5t-45 -66t-26.5 -70h325l-16 -40h-316q-4 -27 -4 -53t2 -50h278l-16 -40h-256q4 -24 15.5 -61t36.5 -72t65.5 -60.5t102.5 -25.5q50 0 95.5 18.5t80.5 52.5v-58q-46 -32 -93 -42.5t-82 -10.5 q-77 0 -126.5 28.5t-79.5 69t-43.5 85t-17.5 76.5h-68l16 40h46q-2 24 -2 50t4 53h-64l16 40h55q11 53 36 98t61.5 77.5t82.5 51t99 18.5q38 0 80 -11t80 -36z"/>
<glyph glyph-name="cent.fitted" horiz-adv-x="379" unicode="" d="M198 514q-38 -7 -65.5 -25t-45 -42t-25.5 -52.5t-8 -55.5t8.5 -55.5t26.5 -53t45 -42t64 -23.5v349zM236 553q8 0 21 -1.5t30 -6.5t37 -15t41 -28v-53q-21 23 -53.5 43.5t-75.5 22.5v-350q9 0 23.5 2.5t32 9.5t37.5 21.5t41 38.5v-54q-25 -22 -58.5 -38t-75.5 -18v-114 h-38v114q-42 6 -76 24t-58.5 45.5t-38 63.5t-13.5 78q0 43 13.5 80t38 65t59 46t75.5 23v103h38v-102z"/>
<glyph glyph-name="sterling.fitted" horiz-adv-x="477" unicode="" d="M50 313h98l-21 35q-17 28 -25.5 43.5t-14.5 26.5q-10 20 -16.5 40.5t-6.5 43.5q0 31 12.5 63.5t38.5 58.5q20 20 51.5 35t76.5 15q32 0 61 -10t55 -35q17 -17 35 -51t18 -89h-44q0 37 -12 66.5t-30 46.5q-16 14 -38 23t-46 9q-21 0 -47 -7.5t-49 -31.5q-18 -19 -27 -42 t-9 -46q0 -26 9 -49t18 -40q12 -23 24 -42t22 -35l17 -28h121v-40h-108q11 -21 16.5 -44.5t5.5 -43.5q0 -21 -9 -50t-37 -65l65 -22q16 -5 34 -11t38 -6q18 0 33 6.5t27 16.5t20.5 22.5t13.5 23.5l36 -22q-8 -16 -20.5 -32t-28.5 -29t-35 -21.5t-41 -8.5q-26 0 -57 10.5 t-63 21.5q-25 8 -41.5 12.5t-32.5 4.5q-26 0 -48 -13t-43 -33l-24 32q18 20 36 31.5t34 17t28.5 7t20.5 1.5q20 21 35 50t15 56q0 22 -8 46.5t-19 41.5h-114v40z"/>
<glyph glyph-name="yen.fitted" horiz-adv-x="512" unicode="" d="M338 391l-61 -103h206v-40h-207v-248h-44v248h-200v40h198l-59 103h-139v40h116l-134 236h51l190 -335l194 335h51l-139 -236h122v-40h-145z"/>
<glyph glyph-name="florin.fitted" horiz-adv-x="430" unicode="" d="M161 408h62l45 235q3 14 10 35t23 37q8 8 25 16.5t44 8.5q19 0 33 -4.5t25 -9.5l-8 -36q-13 7 -24 9.5t-22 2.5t-23 -2.5t-23 -12.5q-11 -11 -15.5 -25t-5.5 -19l-44 -235h101l-7 -38h-101l-72 -385q-9 -51 -20 -77.5t-25 -40.5q-11 -11 -29.5 -19t-44.5 -8 q-23 0 -40.5 4.5t-27.5 9.5l8 37q29 -13 56 -13q17 0 29 4.5t20 12.5q7 7 15 24t16 60l75 391h-62z"/>
</font>
</defs>
</svg>
