<!-- <?xml version="1.0" encoding="utf-8"?>
Generator: Adobe Illustrator 18.0.0, SVG Export Plug-In . SVG Version: 6.00 Build 0) 
<!DOCTYPE svg PUBLIC "-//W3C//DTD SVG 1.1//EN" "http://www.w3.org/Graphics/SVG/1.1/DTD/svg11.dtd"> -->
<svg version="1.1" id="Warstwa_1" xmlns="http://www.w3.org/2000/svg" xmlns:xlink="http://www.w3.org/1999/xlink" x="0px" y="0px"
	 width="290px" height="92px" viewBox="0 0 290 92" enable-background="new 0 0 290 92" xml:space="preserve">
<path fill="#FFFFFF" d="M76.7,0.8h-2.3c-0.9,0-2.9,0.4-4.4,0.9l-0.7,0.5c-0.7,0.5-1.9,1.6-2.5,2.1l-0.7,0.5
	c-1.5,0.9-3.4,2.1-4.2,2.8L61,7.9c-0.9,0.5-1.9,1.2-2.5,1.6c-0.7,0.5-2.5,1.9-3.2,2.3c-0.7,0.5-2.8,1.6-3.5,2.3
	c-0.7,0.7-2.1,1.6-2.8,2.1c-0.7,0.5-3.2,1.9-4.4,2.8c-1.2,0.9-3.7,2.8-4.4,3.2C39.4,22.8,21.4,35.7,20,36.4
	c-1.4,0.7-2.5,1.2-3.2,1.9C16,39,14,39.2,13.3,39.7c-0.7,0.5-1.9,1.2-2.5,1.9c-0.7,0.7-1.4,1.4-2.5,2.1C7,44.3,5.9,45,4.9,45.5
	L4,45.9c-1.1,1-2.3,2.4-2.7,3.1c-0.3,0.7-0.6,1.7-0.6,2.2s0.8,0.9,1.9,0.9H6h3.9c1.3,0,5.4-0.7,6.1,0c0.7,0.7,2.8,0.7,3.5,0l0.7-0.7
	c1.3-1,5.6-4.5,9.6-7.8c4-3.2,7.9-6.1,8.6-6.4c0.7-0.3,1.7-0.7,2.2-0.9c0.5-0.3,3.9-2.5,7.5-5.1c3.6-2.5,9.2-6,12.4-7.8
	c3.2-1.7,6.6-3.4,7.5-3.6c1-0.3,2.4-0.7,3.1-0.9c0.8-0.3,1.8-0.4,2.2-0.2c0.4,0.1,1.2,0.4,1.7,0.6c0.5,0.2,0.9,0.9,0.9,1.6v2v1.5
	c0,0.4-0.2,1.1-0.5,1.5c-0.3,0.4-1,1.3-1.6,2c-0.6,0.7-1.7,2.1-2.3,3c-0.6,1,0.1,1.8,1.6,1.8H78h3.4c0.8,0,2,0.5,2.7,1.1
	c0.7,0.6,1.7,1.6,2.3,2.1c0.6,0.5,1.7,1.4,2.4,2.1c0.8,0.6,1.7,1.4,2.1,1.6l0.7,0.7l0.7,0.7c1.1,0.9,3.5,3.5,5.3,5.8
	c1.8,2.3,5.2,6.5,7.6,9.3l0.7,0.7c0.7,0.7,6,6,6.7,6.3l0.7,0.2c1.8,1.5,3.8,3.4,4.5,4.2c0.7,0.8,3.4,2.9,5.9,4.6l0.5,0.7l0.5,0.7
	c1.1,0.5,2.6,0.9,3.2,0.9h1.9c0.4,0,1-0.4,1.3-0.9c0.3-0.5,1.4-1.8,2.3-2.9c1-1.1,1.7-3.2,1.7-4.6c0-1.5-1.2-3.6-2.7-4.6
	c-1.5-1.1-3.6-2.8-4.6-3.7c-1.1-1-2.8-2.4-3.8-3.2c-1-0.8-2.6-2.2-3.5-3c-0.9-0.8-2.7-2.5-3.9-3.7c-1.3-1.2-2.7-2.8-3.2-3.6
	c-0.5-0.8-1.5-1.9-2.2-2.5c-0.7-0.6-1.8-1.8-2.5-2.5c-0.7-0.8-1.4-1.9-1.6-2.4c-0.2-0.6,0.2-1.4,0.8-1.7c0.6-0.4,2.1-1,3.2-1.4
	c1.1-0.4,3.4-0.9,5-1.3c1.6-0.3,3.9-0.6,5.1-0.6s2.7,0.3,3.2,0.6c0.6,0.3,1.6,1.1,2.2,1.6c0.6,0.6,1.6,1.6,2.1,2.4
	c0.5,0.8,1.9,1.9,3,2.5h0.7h0.7c2.3,0.3,5.7,0.5,7.6,0.5l0.7-0.2l0.7-0.2c3.8-2,7-3.9,7.2-4.2c0.2-0.3,0.6-0.8,0.9-1.1
	c0.4-0.4,0.4-1.1,0-1.6c-0.4-0.5-0.8-1.1-0.9-1.2c-0.2-0.1-1.2-0.8-2.4-1.5c-1.1-0.7-2.4-1.6-2.9-2.1c-0.4-0.4-1-1.2-1.3-1.7
	c-0.3-0.5-0.8-1.3-1.3-1.9c-0.4-0.5-1.2-1.1-1.7-1.3c-0.5-0.2-1.9-0.7-3-1h-0.9c-0.9,0-1.6,0-2.5,0.2l-0.9,0.2
	c-1.5,0.4-3.6,0.9-4.6,1.2c-1,0.3-2.5,0.6-3.2,0.7c-0.8,0.1-3.1,0.5-5.1,0.9h-1.2H117c-2.4,0-6.7-0.2-9.5-0.5h-0.7
	c-0.7,0-6.3,0.2-7.4-0.2l-1.2-0.5c-1.4-0.6-3.8-2.9-5.3-5.1L92,17l-0.9-1.2c-1.8-2.7-4.3-6.2-5.6-7.9l-0.5-0.7
	c-0.5-0.7-2.3-1.9-3-2.5c-0.7-0.7-1.6-1.6-2.3-2.1l-0.7-0.5C78.2,1.4,77.1,0.8,76.7,0.8"/>
<path fill="#FFFFFF" d="M175.5,24c-0.5-1-2.3-0.7-4,0.5l-0.5,0.3c-0.5,0.3-4,1.6-4.5,2.1c-0.5,0.5-2.1,1.9-3.1,2.6
	c-1,0.7-3.5,1.7-3.8,2.3l-0.3,0.5c-0.8,1.2-1.9,2.6-2.6,3l1.2,1c1.2,1,2.8,3.8,3,4.3c0.2,0.5,1,2.8,1.4,3.3c0.3,0.5,0.5,1.6,0.9,3
	c0.3,1.4,1,5.6,1.2,6.8c0.2,1.2,0.9,5,0.9,5.6s0.2,2.1,0,3.5c-0.2,1.4-0.2,5.9-0.2,6.4s-0.2,4.2,0.2,5.2c0.3,1,1.7,9,1.7,9.5
	s0.7,1.6,0.7,2.2v0.5c0.2,1.1,0.6,2.3,0.9,2.6c0.3,0.3,0.4,1,0.3,1.6l0.5-3.1c0.5-3.1,1-5,1.4-6.1c0.3-1,1.4-5.9,1.4-7.1
	c0-1.2,1.2-4.9,1.2-6.1c0-1.2,1.4-13.7,1.4-14.8s0.9-19.2,0.9-20.8v-5.1v-2.8V24z"/>
<path fill="#FFFFFF" d="M196.7,23.7c-0.5,0-1.4,0.3-2.3,1.6c-0.9,1.2-1.2,1.9-1.9,2.6l-0.7,0.7c-0.8,1-2,2.6-2.8,3.7v0.5
	c0,0.5-0.7,4,0,4.8c0.7,0.9,6.8,5.9,7.6,5.9c0.9,0,3.6,1.9,3.8,0.9c0.2-1,1.2-4.5,1.6-5.2c0.3-0.7,1.4-2.8,1.6-3.3
	c0.2-0.5,0.3-2.9,0.9-3.1c0.5-0.2,1.4-1.3,1.6-1.8c0.2-0.5,0-1.7,0-2.6c0-0.9-0.5-2.1-1.7-2.3l-1.2-0.2c-1.8-0.3-3.3-0.4-3.3-0.2
	l-1.6-1L196.7,23.7z"/>
<path fill="#FFFFFF" d="M227.9,22.8c-0.3,0-3.2,1.1-3.9,1.7c-0.7,0.6-1.6,1-2.2,1.6c-0.6,0.5-1.7,1.4-2.2,1.7
	c-0.5,0.3-1.3,1-2.2,1.5s-1,0.5-1.2,1c-0.2,0.4-0.6,1.6-0.7,2.6c-0.1,0.9,0.3,2.4,0.9,3.3s1.4,2.2,2.3,2.5c1,0.3,2.5,0.4,2.9,0.7
	c0.4,0.3,1.1,0.5,2.4,0.5c1.2,0,1.8,0.9,3.1,0s2.9-1.4,4-1.8c1.1-0.4,2.3-0.4,3-1.1c0.7-0.7,1.4-0.4,1-2c-0.3-1.6-1-3.6-1.3-4.3
	c-0.3-0.8-0.9-2.5-1.2-3.4c-0.3-0.9-0.4-1.5-0.9-2.3c-0.4-0.8-0.4-0.7-1-1.2c-0.6-0.5-0.6-1-1-0.9C229.4,22.9,227.9,22.8,227.9,22.8
	"/>
<path fill="#FFFFFF" d="M242.8,29.3c-0.5,0.2-1.9,3.4-1.7,3.5c0.1,0.1,1.7,1.3,1.7,1.5c0,0.2,1.4,1.6,1.7,1.6c0.3,0,3.4,0.5,4.4,0.5
	s2.5-0.2,3.6,0c1,0.2,2.9-0.2,4.4-1.3c1.5-1,4.7-3.2,5.6-4.2c0.8-0.9,4.7-4.5,5.7-5.3c0.9-0.8,4.9-4.4,5.6-5
	c0.7-0.6,4.3-3.6,5.1-4.2c0.8-0.6,4.1-3.5,4.8-4.2c0.7-0.7,2.9-2.4,3.6-3.2c0.7-0.8,1.9-2.2,2-2.5c0.1-0.3,0.2-1.6,0-2.1
	c-0.2-0.5-1.4-2.4-2.4-2.4s-4.6,1-5,1.3c-0.3,0.2-3.2,2-3.8,2.8c-0.6,0.8-5.3,3.8-6,4.4c-0.7,0.6-8.6,6.1-10,6.8
	c-1.4,0.7-8.2,4.1-9,4.5c-0.8,0.5-3.2,1.6-5.1,3C246.1,26.1,244.5,28.6,242.8,29.3"/>
</svg>
