<?xml version="1.0" encoding="utf-8"?>
<!-- Generator: Adobe Illustrator 18.0.0, SVG Export Plug-In . SVG Version: 6.00 Build 0)  -->
<!DOCTYPE svg PUBLIC "-//W3C//DTD SVG 1.1//EN" "http://www.w3.org/Graphics/SVG/1.1/DTD/svg11.dtd">
<svg version="1.1" id="Warstwa_1" xmlns="http://www.w3.org/2000/svg" xmlns:xlink="http://www.w3.org/1999/xlink" x="0px" y="0px"
	 width="56px" height="65px" viewBox="0 0 56 65" enable-background="new 0 0 56 65" xml:space="preserve">
<path fill="#FFFFFF" d="M28,43.5c-7.8,0-14.1-6.3-14.1-14.1V14.1C13.9,6.3,20.2,0,28,0s14.1,6.3,14.1,14.1v15.3
	C42.1,37.2,35.8,43.5,28,43.5 M28,1.9c-6.7,0-12.2,5.5-12.2,12.2v15.3c0,6.7,5.5,12.2,12.2,12.2s12.2-5.5,12.2-12.2V14.1
	C40.2,7.4,34.8,1.9,28,1.9"/>
<path fill="#FFFFFF" d="M31.6,18.1c0,1.9-1.6,3.5-3.5,3.5c-1.9,0-3.5-1.6-3.5-3.5c0-1.9,1.6-3.5,3.5-3.5
	C30,14.5,31.6,16.1,31.6,18.1"/>
<path fill="#FFFFFF" d="M6.8,57.2c-0.8-0.7-1.7-1.1-3-1.1c-2,0-3.1,1.1-3.1,2.4c0,1,0.7,2,1.9,2.4l1.6,0.4c0.8,0.2,1.1,0.5,1.1,1
	c0,0.7-0.6,1.2-1.6,1.2c-0.9,0-1.8-0.3-2.4-1.1l-1.1,0.9c0.8,1,2.1,1.5,3.4,1.5c2.1,0,3.3-1.2,3.3-2.6c0-1.1-0.7-2-2.2-2.4l-1.4-0.3
	c-0.8-0.2-1-0.6-1-1.1c0-0.7,0.5-1.1,1.4-1.1c0.7,0,1.4,0.3,2.1,0.8L6.8,57.2z M16.6,62.4c-0.7,0.8-1.5,1.1-2.4,1.1
	c-1.6,0-2.9-1.4-2.9-3c0-1.7,1.3-3,2.9-3c0.9,0,1.6,0.2,2.4,1l1.1-1c-1-1.1-2.1-1.4-3.4-1.4c-2.5,0-4.5,1.9-4.5,4.5
	c0,2.8,2.2,4.4,4.4,4.4c1.6,0,2.6-0.5,3.5-1.6L16.6,62.4z M21.9,61.7c0.6,0.1,1.2,0.1,1.5,0.1h0.1l2,2.9h1.6v-0.2l-2.1-3
	c1-0.4,1.8-1.3,1.8-2.6c0-1.8-1.2-2.7-3.2-2.7h-3.1v8.6H22v-3.1H21.9z M23.6,57.5c1,0,1.6,0.5,1.6,1.4c0,1-0.5,1.6-2.1,1.6
	c-0.3,0-0.8,0-1.2-0.1v-2.8h1.7V57.5z M31.3,60.4c0-1.7,1.3-3.1,2.9-3.1c1.6,0,2.9,1.4,2.9,3.1s-1.3,3.1-2.9,3.1
	C32.6,63.5,31.3,62.2,31.3,60.4 M29.7,60.5c0,2.5,2.1,4.4,4.4,4.4c2.4,0,4.5-1.9,4.5-4.5c0-2.5-2-4.4-4.4-4.4
	C31.7,56,29.7,57.9,29.7,60.5 M41.9,56.2v8.6h5.6v-1.4h-4.1v-7.2H41.9z M50.2,56.2v8.6h5.6v-1.4h-4.1v-7.2H50.2z"/>
</svg>
